%TF.GenerationSoftware,KiCad,Pcbnew,9.0.2+dfsg-1*%
%TF.CreationDate,2026-06-03T10:34:20-04:00*%
%TF.ProjectId,DemonEye,44656d6f-6e45-4796-952e-6b696361645f,rev?*%
%TF.SameCoordinates,Original*%
%TF.FileFunction,Soldermask,Top*%
%TF.FilePolarity,Negative*%
%FSLAX46Y46*%
G04 Gerber Fmt 4.6, Leading zero omitted, Abs format (unit mm)*
G04 Created by KiCad (PCBNEW 9.0.2+dfsg-1) date 2026-06-03 10:34:20*
%MOMM*%
%LPD*%
G01*
G04 APERTURE LIST*
G04 Aperture macros list*
%AMRoundRect*
0 Rectangle with rounded corners*
0 $1 Rounding radius*
0 $2 $3 $4 $5 $6 $7 $8 $9 X,Y pos of 4 corners*
0 Add a 4 corners polygon primitive as box body*
4,1,4,$2,$3,$4,$5,$6,$7,$8,$9,$2,$3,0*
0 Add four circle primitives for the rounded corners*
1,1,$1+$1,$2,$3*
1,1,$1+$1,$4,$5*
1,1,$1+$1,$6,$7*
1,1,$1+$1,$8,$9*
0 Add four rect primitives between the rounded corners*
20,1,$1+$1,$2,$3,$4,$5,0*
20,1,$1+$1,$4,$5,$6,$7,0*
20,1,$1+$1,$6,$7,$8,$9,0*
20,1,$1+$1,$8,$9,$2,$3,0*%
G04 Aperture macros list end*
%ADD10C,2.550000*%
%ADD11RoundRect,0.052500X-0.147500X-0.122500X0.147500X-0.122500X0.147500X0.122500X-0.147500X0.122500X0*%
%ADD12RoundRect,0.054000X-0.126000X-0.126000X0.126000X-0.126000X0.126000X0.126000X-0.126000X0.126000X0*%
%ADD13RoundRect,0.090000X-0.210000X-0.260000X0.210000X-0.260000X0.210000X0.260000X-0.210000X0.260000X0*%
%ADD14RoundRect,0.090000X-0.210000X0.210000X-0.210000X-0.210000X0.210000X-0.210000X0.210000X0.210000X0*%
%ADD15RoundRect,0.127500X-0.372500X0.297500X-0.372500X-0.297500X0.372500X-0.297500X0.372500X0.297500X0*%
%ADD16RoundRect,0.090000X-0.210000X-0.210000X0.210000X-0.210000X0.210000X0.210000X-0.210000X0.210000X0*%
%ADD17RoundRect,0.060000X0.065000X0.015000X-0.065000X0.015000X-0.065000X-0.015000X0.065000X-0.015000X0*%
%ADD18RoundRect,0.060000X0.015000X0.190000X-0.015000X0.190000X-0.015000X-0.190000X0.015000X-0.190000X0*%
%ADD19RoundRect,0.054000X-0.126000X0.126000X-0.126000X-0.126000X0.126000X-0.126000X0.126000X0.126000X0*%
%ADD20RoundRect,0.090000X0.210000X0.260000X-0.210000X0.260000X-0.210000X-0.260000X0.210000X-0.260000X0*%
%ADD21RoundRect,0.090000X0.210000X0.210000X-0.210000X0.210000X-0.210000X-0.210000X0.210000X-0.210000X0*%
%ADD22RoundRect,0.054000X0.126000X-0.126000X0.126000X0.126000X-0.126000X0.126000X-0.126000X-0.126000X0*%
%ADD23RoundRect,0.050000X0.400000X0.800000X-0.400000X0.800000X-0.400000X-0.800000X0.400000X-0.800000X0*%
%ADD24RoundRect,0.050000X1.050000X1.500000X-1.050000X1.500000X-1.050000X-1.500000X1.050000X-1.500000X0*%
%ADD25RoundRect,0.075000X-0.175000X0.175000X-0.175000X-0.175000X0.175000X-0.175000X0.175000X0.175000X0*%
%ADD26R,1.000000X0.500000*%
%ADD27RoundRect,0.050000X0.225000X0.225000X-0.225000X0.225000X-0.225000X-0.225000X0.225000X-0.225000X0*%
%ADD28RoundRect,0.050000X0.575000X1.425000X-0.575000X1.425000X-0.575000X-1.425000X0.575000X-1.425000X0*%
%ADD29RoundRect,0.090000X0.210000X-0.210000X0.210000X0.210000X-0.210000X0.210000X-0.210000X-0.210000X0*%
%ADD30RoundRect,0.063000X0.152000X0.147000X-0.152000X0.147000X-0.152000X-0.147000X0.152000X-0.147000X0*%
%ADD31RoundRect,0.078000X-0.202000X-0.182000X0.202000X-0.182000X0.202000X0.182000X-0.202000X0.182000X0*%
%ADD32RoundRect,0.093750X-0.093750X-0.106250X0.093750X-0.106250X0.093750X0.106250X-0.093750X0.106250X0*%
%ADD33R,1.000000X1.600000*%
G04 APERTURE END LIST*
D10*
X108875000Y-88800000D02*
G75*
G02*
X106325000Y-88800000I-1275000J0D01*
G01*
X106325000Y-88800000D02*
G75*
G02*
X108875000Y-88800000I1275000J0D01*
G01*
D11*
%TO.C,Q3*%
X106050000Y-64400000D03*
X106050000Y-65150000D03*
X106950000Y-64775000D03*
%TD*%
D12*
%TO.C,R21*%
X113820000Y-62000000D03*
X114380000Y-62000000D03*
%TD*%
D13*
%TO.C,D8*%
X108200000Y-73100000D03*
X109000000Y-73100000D03*
%TD*%
D14*
%TO.C,R11*%
X107100000Y-66150000D03*
X107100000Y-67200000D03*
%TD*%
%TO.C,R14*%
X106700000Y-68350000D03*
X106700000Y-69400000D03*
%TD*%
D12*
%TO.C,R20*%
X113820000Y-61400000D03*
X114380000Y-61400000D03*
%TD*%
D15*
%TO.C,C3*%
X109300000Y-69500000D03*
X109300000Y-70700000D03*
%TD*%
D11*
%TO.C,Q7*%
X104850000Y-68800000D03*
X104850000Y-69550000D03*
X105750000Y-69175000D03*
%TD*%
D16*
%TO.C,R1*%
X102325000Y-73100000D03*
X103375000Y-73100000D03*
%TD*%
D15*
%TO.C,C2*%
X113400000Y-69450000D03*
X113400000Y-70650000D03*
%TD*%
D17*
%TO.C,Q8*%
X101600000Y-71800000D03*
X101600000Y-71450000D03*
D18*
X101200000Y-71625000D03*
%TD*%
D19*
%TO.C,R13*%
X102000000Y-68020000D03*
X102000000Y-68580000D03*
%TD*%
%TO.C,R16*%
X101600000Y-70220000D03*
X101600000Y-70780000D03*
%TD*%
D20*
%TO.C,D7*%
X110750000Y-73100000D03*
X109950000Y-73100000D03*
%TD*%
D21*
%TO.C,R2*%
X110400000Y-68300000D03*
X109350000Y-68300000D03*
%TD*%
D12*
%TO.C,R18*%
X113820000Y-60200000D03*
X114380000Y-60200000D03*
%TD*%
D22*
%TO.C,R4*%
X108400000Y-69880000D03*
X108400000Y-69320000D03*
%TD*%
D23*
%TO.C,CN1*%
X104475000Y-75000000D03*
X105725000Y-75000000D03*
X106975000Y-75000000D03*
X108225000Y-75000000D03*
X109475000Y-75000000D03*
X110725000Y-75000000D03*
D24*
X101925000Y-77900000D03*
X113275000Y-77900000D03*
%TD*%
D25*
%TO.C,TH4*%
X103550000Y-70750000D03*
X103550000Y-71650000D03*
%TD*%
D26*
%TO.C,U1*%
X109500000Y-64325000D03*
X109500000Y-65125000D03*
X109500000Y-65925000D03*
X109500000Y-66725000D03*
X112100000Y-66725000D03*
X112100000Y-65925000D03*
X112100000Y-65125000D03*
X112100000Y-64325000D03*
%TD*%
D17*
%TO.C,Q4*%
X102400000Y-67400000D03*
X102400000Y-67050000D03*
D18*
X102000000Y-67225000D03*
%TD*%
D27*
%TO.C,LED1*%
X102800000Y-62800000D03*
X102800000Y-62000000D03*
X102800000Y-61200000D03*
X102800000Y-60400000D03*
X105200000Y-60400000D03*
X105200000Y-61200000D03*
X105200000Y-62000000D03*
X105200000Y-62800000D03*
D28*
X104000000Y-61600000D03*
%TD*%
D17*
%TO.C,Q6*%
X102000000Y-69600000D03*
X102000000Y-69250000D03*
D18*
X101600000Y-69425000D03*
%TD*%
D12*
%TO.C,R25*%
X113820000Y-64400000D03*
X114380000Y-64400000D03*
%TD*%
D14*
%TO.C,R17*%
X106300000Y-70550000D03*
X106300000Y-71600000D03*
%TD*%
D27*
%TO.C,LED3*%
X110000000Y-62800000D03*
X110000000Y-62000000D03*
X110000000Y-61200000D03*
X110000000Y-60400000D03*
X112400000Y-60400000D03*
X112400000Y-61200000D03*
X112400000Y-62000000D03*
X112400000Y-62800000D03*
D28*
X111200000Y-61600000D03*
%TD*%
D29*
%TO.C,R12*%
X102900000Y-69400000D03*
X102900000Y-68350000D03*
%TD*%
D12*
%TO.C,R22*%
X113820000Y-62600000D03*
X114380000Y-62600000D03*
%TD*%
D25*
%TO.C,TH2*%
X104350000Y-66350000D03*
X104350000Y-67250000D03*
%TD*%
D12*
%TO.C,R19*%
X113820000Y-60800000D03*
X114380000Y-60800000D03*
%TD*%
D22*
%TO.C,R5*%
X108400000Y-70880000D03*
X108400000Y-70320000D03*
%TD*%
D12*
%TO.C,R24*%
X113820000Y-63800000D03*
X114380000Y-63800000D03*
%TD*%
D30*
%TO.C,R3*%
X113950000Y-66725000D03*
X113250000Y-66725000D03*
%TD*%
D13*
%TO.C,D9*%
X104450000Y-73100000D03*
X105250000Y-73100000D03*
%TD*%
D20*
%TO.C,D6*%
X107000000Y-73100000D03*
X106200000Y-73100000D03*
%TD*%
D12*
%TO.C,R23*%
X113820000Y-63200000D03*
X114380000Y-63200000D03*
%TD*%
D17*
%TO.C,Q2*%
X103200000Y-65200000D03*
X103200000Y-64850000D03*
D18*
X102800000Y-65025000D03*
%TD*%
D11*
%TO.C,Q5*%
X105250000Y-66600000D03*
X105250000Y-67350000D03*
X106150000Y-66975000D03*
%TD*%
D25*
%TO.C,TH3*%
X103950000Y-68550000D03*
X103950000Y-69450000D03*
%TD*%
D11*
%TO.C,Q9*%
X104450000Y-71000000D03*
X104450000Y-71750000D03*
X105350000Y-71375000D03*
%TD*%
D19*
%TO.C,R7*%
X103200000Y-63620000D03*
X103200000Y-64180000D03*
%TD*%
D27*
%TO.C,LED2*%
X106400000Y-62800000D03*
X106400000Y-62000000D03*
X106400000Y-61200000D03*
X106400000Y-60400000D03*
X108800000Y-60400000D03*
X108800000Y-61200000D03*
X108800000Y-62000000D03*
X108800000Y-62800000D03*
D28*
X107600000Y-61600000D03*
%TD*%
D25*
%TO.C,TH1*%
X105150000Y-64150000D03*
X105150000Y-65050000D03*
%TD*%
D17*
%TO.C,Q1*%
X107600000Y-71250000D03*
X107600000Y-70900000D03*
D18*
X107200000Y-71075000D03*
%TD*%
D29*
%TO.C,R9*%
X103300000Y-67200000D03*
X103300000Y-66150000D03*
%TD*%
%TO.C,R15*%
X102500000Y-71600000D03*
X102500000Y-70550000D03*
%TD*%
%TO.C,R6*%
X104100000Y-65000000D03*
X104100000Y-63950000D03*
%TD*%
D31*
%TO.C,C1*%
X113770000Y-65125000D03*
X114430000Y-65125000D03*
%TD*%
D32*
%TO.C,U2*%
X110562500Y-69450000D03*
X110562500Y-70100000D03*
X110562500Y-70750000D03*
X112337500Y-70750000D03*
X112337500Y-70100000D03*
X112337500Y-69450000D03*
D33*
X111450000Y-70100000D03*
%TD*%
D14*
%TO.C,R8*%
X107900000Y-63950000D03*
X107900000Y-65000000D03*
%TD*%
D19*
%TO.C,R10*%
X102400000Y-65820000D03*
X102400000Y-66380000D03*
%TD*%
M02*
