%TF.GenerationSoftware,KiCad,Pcbnew,9.0.2+dfsg-1*%
%TF.CreationDate,2026-06-03T10:34:20-04:00*%
%TF.ProjectId,DemonEye,44656d6f-6e45-4796-952e-6b696361645f,rev?*%
%TF.SameCoordinates,Original*%
%TF.FileFunction,Legend,Top*%
%TF.FilePolarity,Positive*%
%FSLAX46Y46*%
G04 Gerber Fmt 4.6, Leading zero omitted, Abs format (unit mm)*
G04 Created by KiCad (PCBNEW 9.0.2+dfsg-1) date 2026-06-03 10:34:20*
%MOMM*%
%LPD*%
G01*
G04 APERTURE LIST*
G04 Aperture macros list*
%AMRoundRect*
0 Rectangle with rounded corners*
0 $1 Rounding radius*
0 $2 $3 $4 $5 $6 $7 $8 $9 X,Y pos of 4 corners*
0 Add a 4 corners polygon primitive as box body*
4,1,4,$2,$3,$4,$5,$6,$7,$8,$9,$2,$3,0*
0 Add four circle primitives for the rounded corners*
1,1,$1+$1,$2,$3*
1,1,$1+$1,$4,$5*
1,1,$1+$1,$6,$7*
1,1,$1+$1,$8,$9*
0 Add four rect primitives between the rounded corners*
20,1,$1+$1,$2,$3,$4,$5,0*
20,1,$1+$1,$4,$5,$6,$7,0*
20,1,$1+$1,$6,$7,$8,$9,0*
20,1,$1+$1,$8,$9,$2,$3,0*%
G04 Aperture macros list end*
%ADD10C,0.000000*%
%ADD11C,0.120000*%
%ADD12C,0.300000*%
%ADD13C,0.080000*%
%ADD14C,0.100000*%
%ADD15C,0.150000*%
%ADD16C,0.750000*%
%ADD17C,0.250000*%
%ADD18C,2.550000*%
%ADD19RoundRect,0.052500X-0.147500X-0.122500X0.147500X-0.122500X0.147500X0.122500X-0.147500X0.122500X0*%
%ADD20RoundRect,0.054000X-0.126000X-0.126000X0.126000X-0.126000X0.126000X0.126000X-0.126000X0.126000X0*%
%ADD21RoundRect,0.090000X-0.210000X-0.260000X0.210000X-0.260000X0.210000X0.260000X-0.210000X0.260000X0*%
%ADD22RoundRect,0.090000X-0.210000X0.210000X-0.210000X-0.210000X0.210000X-0.210000X0.210000X0.210000X0*%
%ADD23RoundRect,0.127500X-0.372500X0.297500X-0.372500X-0.297500X0.372500X-0.297500X0.372500X0.297500X0*%
%ADD24RoundRect,0.090000X-0.210000X-0.210000X0.210000X-0.210000X0.210000X0.210000X-0.210000X0.210000X0*%
%ADD25RoundRect,0.060000X0.065000X0.015000X-0.065000X0.015000X-0.065000X-0.015000X0.065000X-0.015000X0*%
%ADD26RoundRect,0.060000X0.015000X0.190000X-0.015000X0.190000X-0.015000X-0.190000X0.015000X-0.190000X0*%
%ADD27RoundRect,0.054000X-0.126000X0.126000X-0.126000X-0.126000X0.126000X-0.126000X0.126000X0.126000X0*%
%ADD28RoundRect,0.090000X0.210000X0.260000X-0.210000X0.260000X-0.210000X-0.260000X0.210000X-0.260000X0*%
%ADD29RoundRect,0.090000X0.210000X0.210000X-0.210000X0.210000X-0.210000X-0.210000X0.210000X-0.210000X0*%
%ADD30RoundRect,0.054000X0.126000X-0.126000X0.126000X0.126000X-0.126000X0.126000X-0.126000X-0.126000X0*%
%ADD31RoundRect,0.050000X0.400000X0.800000X-0.400000X0.800000X-0.400000X-0.800000X0.400000X-0.800000X0*%
%ADD32RoundRect,0.050000X1.050000X1.500000X-1.050000X1.500000X-1.050000X-1.500000X1.050000X-1.500000X0*%
%ADD33RoundRect,0.075000X-0.175000X0.175000X-0.175000X-0.175000X0.175000X-0.175000X0.175000X0.175000X0*%
%ADD34R,1.000000X0.500000*%
%ADD35RoundRect,0.050000X0.225000X0.225000X-0.225000X0.225000X-0.225000X-0.225000X0.225000X-0.225000X0*%
%ADD36RoundRect,0.050000X0.575000X1.425000X-0.575000X1.425000X-0.575000X-1.425000X0.575000X-1.425000X0*%
%ADD37RoundRect,0.090000X0.210000X-0.210000X0.210000X0.210000X-0.210000X0.210000X-0.210000X-0.210000X0*%
%ADD38RoundRect,0.063000X0.152000X0.147000X-0.152000X0.147000X-0.152000X-0.147000X0.152000X-0.147000X0*%
%ADD39RoundRect,0.078000X-0.202000X-0.182000X0.202000X-0.182000X0.202000X0.182000X-0.202000X0.182000X0*%
%ADD40RoundRect,0.093750X-0.093750X-0.106250X0.093750X-0.106250X0.093750X0.106250X-0.093750X0.106250X0*%
%ADD41R,1.000000X1.600000*%
G04 APERTURE END LIST*
D10*
G36*
X105001000Y-91300000D02*
G01*
X100001000Y-91300000D01*
X100001000Y-86300000D01*
X105001000Y-86300000D01*
X105001000Y-91300000D01*
G37*
D11*
X103043809Y-85086331D02*
X102982856Y-85048236D01*
X102982856Y-85048236D02*
X102860952Y-85048236D01*
X102860952Y-85048236D02*
X102799999Y-85086331D01*
X102799999Y-85086331D02*
X102739047Y-85162521D01*
X102739047Y-85162521D02*
X102708571Y-85238712D01*
X102708571Y-85238712D02*
X102708571Y-85391093D01*
X102708571Y-85391093D02*
X102739047Y-85467283D01*
X102739047Y-85467283D02*
X102799999Y-85543474D01*
X102799999Y-85543474D02*
X102860952Y-85581569D01*
X102860952Y-85581569D02*
X102982856Y-85581569D01*
X102982856Y-85581569D02*
X103043809Y-85543474D01*
X102921904Y-84781569D02*
X102769523Y-84819664D01*
X102769523Y-84819664D02*
X102617142Y-84933950D01*
X102617142Y-84933950D02*
X102525713Y-85124426D01*
X102525713Y-85124426D02*
X102495237Y-85314902D01*
X102495237Y-85314902D02*
X102525713Y-85505379D01*
X102525713Y-85505379D02*
X102617142Y-85695855D01*
X102617142Y-85695855D02*
X102769523Y-85810140D01*
X102769523Y-85810140D02*
X102921904Y-85848236D01*
X102921904Y-85848236D02*
X103074285Y-85810140D01*
X103074285Y-85810140D02*
X103226666Y-85695855D01*
X103226666Y-85695855D02*
X103318094Y-85505379D01*
X103318094Y-85505379D02*
X103348571Y-85314902D01*
X103348571Y-85314902D02*
X103318094Y-85124426D01*
X103318094Y-85124426D02*
X103226666Y-84933950D01*
X103226666Y-84933950D02*
X103074285Y-84819664D01*
X103074285Y-84819664D02*
X102921904Y-84781569D01*
X104476190Y-85695855D02*
X104262856Y-85314902D01*
X104110475Y-85695855D02*
X104110475Y-84895855D01*
X104110475Y-84895855D02*
X104354285Y-84895855D01*
X104354285Y-84895855D02*
X104415237Y-84933950D01*
X104415237Y-84933950D02*
X104445714Y-84972045D01*
X104445714Y-84972045D02*
X104476190Y-85048236D01*
X104476190Y-85048236D02*
X104476190Y-85162521D01*
X104476190Y-85162521D02*
X104445714Y-85238712D01*
X104445714Y-85238712D02*
X104415237Y-85276807D01*
X104415237Y-85276807D02*
X104354285Y-85314902D01*
X104354285Y-85314902D02*
X104110475Y-85314902D01*
X104841904Y-85695855D02*
X104780952Y-85657760D01*
X104780952Y-85657760D02*
X104750475Y-85619664D01*
X104750475Y-85619664D02*
X104719999Y-85543474D01*
X104719999Y-85543474D02*
X104719999Y-85314902D01*
X104719999Y-85314902D02*
X104750475Y-85238712D01*
X104750475Y-85238712D02*
X104780952Y-85200617D01*
X104780952Y-85200617D02*
X104841904Y-85162521D01*
X104841904Y-85162521D02*
X104933333Y-85162521D01*
X104933333Y-85162521D02*
X104994285Y-85200617D01*
X104994285Y-85200617D02*
X105024761Y-85238712D01*
X105024761Y-85238712D02*
X105055237Y-85314902D01*
X105055237Y-85314902D02*
X105055237Y-85543474D01*
X105055237Y-85543474D02*
X105024761Y-85619664D01*
X105024761Y-85619664D02*
X104994285Y-85657760D01*
X104994285Y-85657760D02*
X104933333Y-85695855D01*
X104933333Y-85695855D02*
X104841904Y-85695855D01*
X105329523Y-85695855D02*
X105329523Y-84895855D01*
X105329523Y-85200617D02*
X105390476Y-85162521D01*
X105390476Y-85162521D02*
X105512381Y-85162521D01*
X105512381Y-85162521D02*
X105573333Y-85200617D01*
X105573333Y-85200617D02*
X105603809Y-85238712D01*
X105603809Y-85238712D02*
X105634285Y-85314902D01*
X105634285Y-85314902D02*
X105634285Y-85543474D01*
X105634285Y-85543474D02*
X105603809Y-85619664D01*
X105603809Y-85619664D02*
X105573333Y-85657760D01*
X105573333Y-85657760D02*
X105512381Y-85695855D01*
X105512381Y-85695855D02*
X105390476Y-85695855D01*
X105390476Y-85695855D02*
X105329523Y-85657760D01*
X106152381Y-85657760D02*
X106091429Y-85695855D01*
X106091429Y-85695855D02*
X105969524Y-85695855D01*
X105969524Y-85695855D02*
X105908571Y-85657760D01*
X105908571Y-85657760D02*
X105878095Y-85581569D01*
X105878095Y-85581569D02*
X105878095Y-85276807D01*
X105878095Y-85276807D02*
X105908571Y-85200617D01*
X105908571Y-85200617D02*
X105969524Y-85162521D01*
X105969524Y-85162521D02*
X106091429Y-85162521D01*
X106091429Y-85162521D02*
X106152381Y-85200617D01*
X106152381Y-85200617D02*
X106182857Y-85276807D01*
X106182857Y-85276807D02*
X106182857Y-85352998D01*
X106182857Y-85352998D02*
X105878095Y-85429188D01*
X106457142Y-85695855D02*
X106457142Y-85162521D01*
X106457142Y-85314902D02*
X106487619Y-85238712D01*
X106487619Y-85238712D02*
X106518095Y-85200617D01*
X106518095Y-85200617D02*
X106579047Y-85162521D01*
X106579047Y-85162521D02*
X106640000Y-85162521D01*
X106761904Y-85162521D02*
X107005713Y-85162521D01*
X106853332Y-84895855D02*
X106853332Y-85581569D01*
X106853332Y-85581569D02*
X106883809Y-85657760D01*
X106883809Y-85657760D02*
X106944761Y-85695855D01*
X106944761Y-85695855D02*
X107005713Y-85695855D01*
X107706665Y-85695855D02*
X107706665Y-84895855D01*
X108072380Y-85695855D02*
X107798094Y-85238712D01*
X108072380Y-84895855D02*
X107706665Y-85352998D01*
X108590475Y-85657760D02*
X108529523Y-85695855D01*
X108529523Y-85695855D02*
X108407618Y-85695855D01*
X108407618Y-85695855D02*
X108346665Y-85657760D01*
X108346665Y-85657760D02*
X108316189Y-85581569D01*
X108316189Y-85581569D02*
X108316189Y-85276807D01*
X108316189Y-85276807D02*
X108346665Y-85200617D01*
X108346665Y-85200617D02*
X108407618Y-85162521D01*
X108407618Y-85162521D02*
X108529523Y-85162521D01*
X108529523Y-85162521D02*
X108590475Y-85200617D01*
X108590475Y-85200617D02*
X108620951Y-85276807D01*
X108620951Y-85276807D02*
X108620951Y-85352998D01*
X108620951Y-85352998D02*
X108316189Y-85429188D01*
X109169522Y-85695855D02*
X109169522Y-85276807D01*
X109169522Y-85276807D02*
X109139046Y-85200617D01*
X109139046Y-85200617D02*
X109078094Y-85162521D01*
X109078094Y-85162521D02*
X108956189Y-85162521D01*
X108956189Y-85162521D02*
X108895236Y-85200617D01*
X109169522Y-85657760D02*
X109108570Y-85695855D01*
X109108570Y-85695855D02*
X108956189Y-85695855D01*
X108956189Y-85695855D02*
X108895236Y-85657760D01*
X108895236Y-85657760D02*
X108864760Y-85581569D01*
X108864760Y-85581569D02*
X108864760Y-85505379D01*
X108864760Y-85505379D02*
X108895236Y-85429188D01*
X108895236Y-85429188D02*
X108956189Y-85391093D01*
X108956189Y-85391093D02*
X109108570Y-85391093D01*
X109108570Y-85391093D02*
X109169522Y-85352998D01*
X109474284Y-85162521D02*
X109474284Y-85695855D01*
X109474284Y-85238712D02*
X109504761Y-85200617D01*
X109504761Y-85200617D02*
X109565713Y-85162521D01*
X109565713Y-85162521D02*
X109657142Y-85162521D01*
X109657142Y-85162521D02*
X109718094Y-85200617D01*
X109718094Y-85200617D02*
X109748570Y-85276807D01*
X109748570Y-85276807D02*
X109748570Y-85695855D01*
X110510475Y-84972045D02*
X110540951Y-84933950D01*
X110540951Y-84933950D02*
X110601904Y-84895855D01*
X110601904Y-84895855D02*
X110754285Y-84895855D01*
X110754285Y-84895855D02*
X110815237Y-84933950D01*
X110815237Y-84933950D02*
X110845713Y-84972045D01*
X110845713Y-84972045D02*
X110876190Y-85048236D01*
X110876190Y-85048236D02*
X110876190Y-85124426D01*
X110876190Y-85124426D02*
X110845713Y-85238712D01*
X110845713Y-85238712D02*
X110479999Y-85695855D01*
X110479999Y-85695855D02*
X110876190Y-85695855D01*
X111272380Y-84895855D02*
X111333333Y-84895855D01*
X111333333Y-84895855D02*
X111394285Y-84933950D01*
X111394285Y-84933950D02*
X111424761Y-84972045D01*
X111424761Y-84972045D02*
X111455237Y-85048236D01*
X111455237Y-85048236D02*
X111485714Y-85200617D01*
X111485714Y-85200617D02*
X111485714Y-85391093D01*
X111485714Y-85391093D02*
X111455237Y-85543474D01*
X111455237Y-85543474D02*
X111424761Y-85619664D01*
X111424761Y-85619664D02*
X111394285Y-85657760D01*
X111394285Y-85657760D02*
X111333333Y-85695855D01*
X111333333Y-85695855D02*
X111272380Y-85695855D01*
X111272380Y-85695855D02*
X111211428Y-85657760D01*
X111211428Y-85657760D02*
X111180952Y-85619664D01*
X111180952Y-85619664D02*
X111150475Y-85543474D01*
X111150475Y-85543474D02*
X111119999Y-85391093D01*
X111119999Y-85391093D02*
X111119999Y-85200617D01*
X111119999Y-85200617D02*
X111150475Y-85048236D01*
X111150475Y-85048236D02*
X111180952Y-84972045D01*
X111180952Y-84972045D02*
X111211428Y-84933950D01*
X111211428Y-84933950D02*
X111272380Y-84895855D01*
X111729523Y-84972045D02*
X111759999Y-84933950D01*
X111759999Y-84933950D02*
X111820952Y-84895855D01*
X111820952Y-84895855D02*
X111973333Y-84895855D01*
X111973333Y-84895855D02*
X112034285Y-84933950D01*
X112034285Y-84933950D02*
X112064761Y-84972045D01*
X112064761Y-84972045D02*
X112095238Y-85048236D01*
X112095238Y-85048236D02*
X112095238Y-85124426D01*
X112095238Y-85124426D02*
X112064761Y-85238712D01*
X112064761Y-85238712D02*
X111699047Y-85695855D01*
X111699047Y-85695855D02*
X112095238Y-85695855D01*
X112643809Y-84895855D02*
X112521904Y-84895855D01*
X112521904Y-84895855D02*
X112460952Y-84933950D01*
X112460952Y-84933950D02*
X112430476Y-84972045D01*
X112430476Y-84972045D02*
X112369523Y-85086331D01*
X112369523Y-85086331D02*
X112339047Y-85238712D01*
X112339047Y-85238712D02*
X112339047Y-85543474D01*
X112339047Y-85543474D02*
X112369523Y-85619664D01*
X112369523Y-85619664D02*
X112400000Y-85657760D01*
X112400000Y-85657760D02*
X112460952Y-85695855D01*
X112460952Y-85695855D02*
X112582857Y-85695855D01*
X112582857Y-85695855D02*
X112643809Y-85657760D01*
X112643809Y-85657760D02*
X112674285Y-85619664D01*
X112674285Y-85619664D02*
X112704762Y-85543474D01*
X112704762Y-85543474D02*
X112704762Y-85352998D01*
X112704762Y-85352998D02*
X112674285Y-85276807D01*
X112674285Y-85276807D02*
X112643809Y-85238712D01*
X112643809Y-85238712D02*
X112582857Y-85200617D01*
X112582857Y-85200617D02*
X112460952Y-85200617D01*
X112460952Y-85200617D02*
X112400000Y-85238712D01*
X112400000Y-85238712D02*
X112369523Y-85276807D01*
X112369523Y-85276807D02*
X112339047Y-85352998D01*
D12*
G36*
X107010838Y-92683479D02*
G01*
X107046761Y-92700560D01*
X107076686Y-92728374D01*
X107099249Y-92765720D01*
X107116714Y-92819350D01*
X107127830Y-92894337D01*
X106804257Y-92894337D01*
X106818677Y-92809396D01*
X106841993Y-92754294D01*
X106876968Y-92711406D01*
X106918023Y-92686164D01*
X106967216Y-92677449D01*
X107010838Y-92683479D01*
G37*
G36*
X109807058Y-92720236D02*
G01*
X109844513Y-92742737D01*
X109878273Y-92781588D01*
X109902298Y-92830990D01*
X109918330Y-92899248D01*
X109924362Y-92992247D01*
X109918215Y-93092556D01*
X109902163Y-93163611D01*
X109878640Y-93212799D01*
X109845103Y-93251043D01*
X109806756Y-93273512D01*
X109761916Y-93281217D01*
X109717679Y-93273477D01*
X109679303Y-93250753D01*
X109645192Y-93211791D01*
X109621020Y-93161940D01*
X109604797Y-93092242D01*
X109598664Y-92996369D01*
X109604800Y-92902001D01*
X109621110Y-92832734D01*
X109645559Y-92782595D01*
X109680010Y-92743408D01*
X109719072Y-92720462D01*
X109764407Y-92712620D01*
X109807058Y-92720236D01*
G37*
G36*
X114273644Y-92683479D02*
G01*
X114309566Y-92700560D01*
X114339491Y-92728374D01*
X114362054Y-92765720D01*
X114379520Y-92819350D01*
X114390635Y-92894337D01*
X114067062Y-92894337D01*
X114081483Y-92809396D01*
X114104798Y-92754294D01*
X114139774Y-92711406D01*
X114180828Y-92686164D01*
X114230021Y-92677449D01*
X114273644Y-92683479D01*
G37*
G36*
X101165183Y-92354694D02*
G01*
X101208439Y-92368413D01*
X101234788Y-92387288D01*
X101254484Y-92415540D01*
X101266634Y-92451228D01*
X101270984Y-92496648D01*
X101265229Y-92542113D01*
X101248123Y-92581736D01*
X101221901Y-92611805D01*
X101189212Y-92627807D01*
X101091393Y-92648140D01*
X100937153Y-92648140D01*
X100937153Y-92349187D01*
X101097914Y-92349187D01*
X101165183Y-92354694D01*
G37*
G36*
X105760747Y-92390931D02*
G01*
X105816963Y-92408763D01*
X105860224Y-92435871D01*
X105893109Y-92471552D01*
X105916907Y-92516296D01*
X105936261Y-92581026D01*
X105949684Y-92671913D01*
X105954805Y-92796334D01*
X105950893Y-92917416D01*
X105940935Y-93000787D01*
X105927181Y-93055720D01*
X105905398Y-93105425D01*
X105880032Y-93141860D01*
X105850977Y-93167278D01*
X105817173Y-93183086D01*
X105764601Y-93194595D01*
X105686626Y-93199152D01*
X105597966Y-93199152D01*
X105597966Y-92384357D01*
X105688238Y-92384357D01*
X105760747Y-92390931D01*
G37*
G36*
X114901538Y-94157165D02*
G01*
X100392765Y-94157165D01*
X100392765Y-92648140D01*
X100559432Y-92648140D01*
X100559432Y-93545000D01*
X100937153Y-93545000D01*
X100937153Y-92935369D01*
X100967561Y-92935369D01*
X101015269Y-92944020D01*
X101057247Y-92969624D01*
X101084880Y-93005566D01*
X101123706Y-93084388D01*
X101322788Y-93545000D01*
X101747771Y-93545000D01*
X101862223Y-93545000D01*
X102238186Y-93545000D01*
X102238186Y-92935369D01*
X102639282Y-92935369D01*
X102639282Y-93545000D01*
X103017003Y-93545000D01*
X103260855Y-93545000D01*
X103636818Y-93545000D01*
X103636818Y-93184131D01*
X103825716Y-92936468D01*
X104078214Y-93545000D01*
X104541225Y-93545000D01*
X104372265Y-93199152D01*
X105221930Y-93199152D01*
X105221930Y-93545000D01*
X105775946Y-93545000D01*
X105877681Y-93535380D01*
X105997889Y-93503967D01*
X106055385Y-93478038D01*
X106111253Y-93438541D01*
X106166051Y-93384074D01*
X106213953Y-93320048D01*
X106254701Y-93246025D01*
X106288416Y-93160867D01*
X106311090Y-93070093D01*
X106320130Y-92998934D01*
X106459142Y-92998934D01*
X106466807Y-93116719D01*
X106488858Y-93220428D01*
X106524648Y-93312541D01*
X106573332Y-93395093D01*
X106628263Y-93459276D01*
X106689952Y-93507172D01*
X106758347Y-93539093D01*
X106847755Y-93560496D01*
X106963186Y-93568447D01*
X107096097Y-93558872D01*
X107196083Y-93533411D01*
X107270053Y-93495907D01*
X107335556Y-93439377D01*
X107397020Y-93359595D01*
X107454700Y-93252274D01*
X107121162Y-93216646D01*
X107088809Y-93261268D01*
X107062837Y-93285980D01*
X107017715Y-93308842D01*
X106970513Y-93316388D01*
X106921933Y-93308333D01*
X106881070Y-93285056D01*
X106846023Y-93245863D01*
X106827403Y-93210837D01*
X106812910Y-93163182D01*
X106803451Y-93099501D01*
X107472066Y-93099501D01*
X107472066Y-93049675D01*
X107464935Y-92907769D01*
X107445317Y-92793129D01*
X107415206Y-92700896D01*
X107371439Y-92618370D01*
X107316600Y-92550537D01*
X107249536Y-92496099D01*
X107174759Y-92459131D01*
X107134224Y-92448838D01*
X107623008Y-92448838D01*
X107623008Y-93545000D01*
X107962115Y-93545000D01*
X107962115Y-92984279D01*
X107967041Y-92902823D01*
X107979816Y-92845964D01*
X107998385Y-92807325D01*
X108024986Y-92777342D01*
X108055393Y-92759704D01*
X108090928Y-92753653D01*
X108123406Y-92759910D01*
X108151012Y-92778291D01*
X108172760Y-92806654D01*
X108187136Y-92843229D01*
X108191497Y-92874248D01*
X108193510Y-92940040D01*
X108193510Y-93545000D01*
X108532691Y-93545000D01*
X108532691Y-92976677D01*
X108537449Y-92899204D01*
X108549873Y-92844355D01*
X108568081Y-92806409D01*
X108594178Y-92777137D01*
X108624829Y-92759703D01*
X108661504Y-92753653D01*
X108691870Y-92759657D01*
X108718750Y-92777608D01*
X108743277Y-92809248D01*
X108759346Y-92850615D01*
X108765698Y-92917875D01*
X108765698Y-93545000D01*
X109104878Y-93545000D01*
X109104878Y-93000033D01*
X109259557Y-93000033D01*
X109266247Y-93105666D01*
X109285617Y-93200254D01*
X109317225Y-93285717D01*
X109361444Y-93363531D01*
X109419439Y-93434632D01*
X109486926Y-93491397D01*
X109564884Y-93533046D01*
X109655217Y-93559220D01*
X109760304Y-93568447D01*
X109855974Y-93561184D01*
X109939164Y-93540539D01*
X110011669Y-93507753D01*
X110075001Y-93463395D01*
X110130332Y-93407338D01*
X110188646Y-93321565D01*
X110230071Y-93225557D01*
X110255461Y-93117265D01*
X110264275Y-92993804D01*
X110257175Y-92883360D01*
X110236644Y-92784876D01*
X110203171Y-92696255D01*
X110156344Y-92615900D01*
X110099942Y-92549695D01*
X110033795Y-92497396D01*
X109956419Y-92458641D01*
X109920229Y-92448838D01*
X110420126Y-92448838D01*
X110420126Y-93545000D01*
X110758427Y-93545000D01*
X110758427Y-93019816D01*
X110763696Y-92921528D01*
X110776971Y-92856738D01*
X110795503Y-92815935D01*
X110822837Y-92784492D01*
X110854560Y-92765920D01*
X110892150Y-92759515D01*
X110926627Y-92764512D01*
X110953942Y-92778490D01*
X110975754Y-92801097D01*
X110990863Y-92831348D01*
X111001350Y-92877068D01*
X111005430Y-92943979D01*
X111005430Y-93545000D01*
X111345416Y-93545000D01*
X111561058Y-93545000D01*
X112578964Y-93545000D01*
X112578964Y-93199152D01*
X111937900Y-93199152D01*
X111937900Y-92911922D01*
X112515803Y-92911922D01*
X112515803Y-92601245D01*
X111937900Y-92601245D01*
X111937900Y-92448838D01*
X112654069Y-92448838D01*
X113020726Y-93543168D01*
X112990967Y-93623662D01*
X112959910Y-93668189D01*
X112919911Y-93693939D01*
X112865827Y-93703269D01*
X112779858Y-93695142D01*
X112702429Y-93671578D01*
X112729247Y-93966135D01*
X112872088Y-93985476D01*
X112954341Y-93990498D01*
X113045044Y-93983092D01*
X113117535Y-93962787D01*
X113175173Y-93931705D01*
X113220688Y-93890847D01*
X113256625Y-93838462D01*
X113296897Y-93752046D01*
X113341808Y-93619555D01*
X113525382Y-92998934D01*
X113721947Y-92998934D01*
X113729612Y-93116719D01*
X113751663Y-93220428D01*
X113787453Y-93312541D01*
X113836138Y-93395093D01*
X113891068Y-93459276D01*
X113952757Y-93507172D01*
X114021153Y-93539093D01*
X114110560Y-93560496D01*
X114225991Y-93568447D01*
X114358902Y-93558872D01*
X114458889Y-93533411D01*
X114532858Y-93495907D01*
X114598361Y-93439377D01*
X114659826Y-93359595D01*
X114717506Y-93252274D01*
X114383968Y-93216646D01*
X114351614Y-93261268D01*
X114325642Y-93285980D01*
X114280520Y-93308842D01*
X114233319Y-93316388D01*
X114184738Y-93308333D01*
X114143875Y-93285056D01*
X114108828Y-93245863D01*
X114090208Y-93210837D01*
X114075715Y-93163182D01*
X114066256Y-93099501D01*
X114734871Y-93099501D01*
X114734871Y-93049675D01*
X114727741Y-92907769D01*
X114708123Y-92793129D01*
X114678012Y-92700896D01*
X114634244Y-92618370D01*
X114579406Y-92550537D01*
X114512342Y-92496099D01*
X114437565Y-92459131D01*
X114340581Y-92434504D01*
X114216099Y-92425390D01*
X114122471Y-92432530D01*
X114040992Y-92452836D01*
X113969913Y-92485102D01*
X113907760Y-92528784D01*
X113853399Y-92584026D01*
X113796492Y-92668296D01*
X113755807Y-92763909D01*
X113730708Y-92873091D01*
X113729229Y-92894337D01*
X113721947Y-92998934D01*
X113525382Y-92998934D01*
X113688095Y-92448838D01*
X113354264Y-92448838D01*
X113189547Y-93167370D01*
X113011860Y-92448838D01*
X112654069Y-92448838D01*
X111937900Y-92448838D01*
X111937900Y-92366772D01*
X112560939Y-92366772D01*
X112560939Y-92038510D01*
X111561058Y-92038510D01*
X111561058Y-93545000D01*
X111345416Y-93545000D01*
X111345416Y-92849823D01*
X111339537Y-92740064D01*
X111323443Y-92652741D01*
X111298823Y-92583632D01*
X111266427Y-92529346D01*
X111224485Y-92484956D01*
X111175150Y-92452736D01*
X111116961Y-92432538D01*
X111047928Y-92425390D01*
X110980076Y-92431079D01*
X110922343Y-92447124D01*
X110873099Y-92472468D01*
X110827900Y-92508118D01*
X110782127Y-92557313D01*
X110735492Y-92622219D01*
X110735492Y-92448838D01*
X110420126Y-92448838D01*
X109920229Y-92448838D01*
X109865786Y-92434091D01*
X109759425Y-92425390D01*
X109666822Y-92432596D01*
X109585531Y-92453176D01*
X109513928Y-92486042D01*
X109450655Y-92530766D01*
X109394672Y-92587598D01*
X109335696Y-92673920D01*
X109293925Y-92769976D01*
X109268398Y-92877746D01*
X109259822Y-92996369D01*
X109259557Y-93000033D01*
X109104878Y-93000033D01*
X109104878Y-92858066D01*
X109098926Y-92744886D01*
X109082682Y-92655397D01*
X109057935Y-92585098D01*
X109025524Y-92530354D01*
X108983331Y-92485561D01*
X108933596Y-92453029D01*
X108874822Y-92432619D01*
X108804972Y-92425390D01*
X108741743Y-92430106D01*
X108688664Y-92443291D01*
X108644139Y-92463859D01*
X108580233Y-92514284D01*
X108502136Y-92605367D01*
X108474009Y-92550618D01*
X108441242Y-92506438D01*
X108403584Y-92471644D01*
X108361146Y-92447274D01*
X108306815Y-92431268D01*
X108237694Y-92425390D01*
X108173552Y-92430464D01*
X108118630Y-92444795D01*
X108071511Y-92467431D01*
X108006008Y-92520074D01*
X107939180Y-92602436D01*
X107939180Y-92448838D01*
X107623008Y-92448838D01*
X107134224Y-92448838D01*
X107077775Y-92434504D01*
X106953294Y-92425390D01*
X106859665Y-92432530D01*
X106778186Y-92452836D01*
X106707107Y-92485102D01*
X106644955Y-92528784D01*
X106590594Y-92584026D01*
X106533686Y-92668296D01*
X106493001Y-92763909D01*
X106467902Y-92873091D01*
X106466423Y-92894337D01*
X106459142Y-92998934D01*
X106320130Y-92998934D01*
X106326612Y-92947910D01*
X106332453Y-92786625D01*
X106324896Y-92635452D01*
X106302778Y-92495091D01*
X106278635Y-92405954D01*
X106246787Y-92325776D01*
X106207230Y-92253565D01*
X106159637Y-92189887D01*
X106104332Y-92136893D01*
X106040461Y-92094105D01*
X105971727Y-92064921D01*
X105884835Y-92045599D01*
X105775946Y-92038510D01*
X105221930Y-92038510D01*
X105221930Y-93199152D01*
X104372265Y-93199152D01*
X104082537Y-92606099D01*
X104522907Y-92038510D01*
X104022820Y-92038510D01*
X103636818Y-92600604D01*
X103636818Y-92038510D01*
X103260855Y-92038510D01*
X103260855Y-93545000D01*
X103017003Y-93545000D01*
X103017003Y-92038510D01*
X102639282Y-92038510D01*
X102639282Y-92560212D01*
X102238186Y-92560212D01*
X102238186Y-92038510D01*
X101862223Y-92038510D01*
X101862223Y-93545000D01*
X101747771Y-93545000D01*
X101566494Y-93107103D01*
X101514104Y-93012764D01*
X101476286Y-92957920D01*
X101454240Y-92932896D01*
X101419431Y-92907363D01*
X101364774Y-92880140D01*
X101435593Y-92853902D01*
X101487725Y-92822712D01*
X101534524Y-92780725D01*
X101573633Y-92731622D01*
X101605695Y-92674884D01*
X101629048Y-92612023D01*
X101643558Y-92540328D01*
X101648633Y-92457997D01*
X101641999Y-92364029D01*
X101623057Y-92283249D01*
X101592432Y-92213174D01*
X101550756Y-92152821D01*
X101501871Y-92107362D01*
X101444714Y-92075604D01*
X101382609Y-92056706D01*
X101296606Y-92043524D01*
X101180712Y-92038510D01*
X100559432Y-92038510D01*
X100559432Y-92648140D01*
X100392765Y-92648140D01*
X100392765Y-91871843D01*
X114901538Y-91871843D01*
X114901538Y-94157165D01*
G37*
D11*
X111072480Y-91162521D02*
X111224861Y-91695855D01*
X111224861Y-91695855D02*
X111377242Y-91162521D01*
X111742956Y-90895855D02*
X111803909Y-90895855D01*
X111803909Y-90895855D02*
X111864861Y-90933950D01*
X111864861Y-90933950D02*
X111895337Y-90972045D01*
X111895337Y-90972045D02*
X111925813Y-91048236D01*
X111925813Y-91048236D02*
X111956290Y-91200617D01*
X111956290Y-91200617D02*
X111956290Y-91391093D01*
X111956290Y-91391093D02*
X111925813Y-91543474D01*
X111925813Y-91543474D02*
X111895337Y-91619664D01*
X111895337Y-91619664D02*
X111864861Y-91657760D01*
X111864861Y-91657760D02*
X111803909Y-91695855D01*
X111803909Y-91695855D02*
X111742956Y-91695855D01*
X111742956Y-91695855D02*
X111682004Y-91657760D01*
X111682004Y-91657760D02*
X111651528Y-91619664D01*
X111651528Y-91619664D02*
X111621051Y-91543474D01*
X111621051Y-91543474D02*
X111590575Y-91391093D01*
X111590575Y-91391093D02*
X111590575Y-91200617D01*
X111590575Y-91200617D02*
X111621051Y-91048236D01*
X111621051Y-91048236D02*
X111651528Y-90972045D01*
X111651528Y-90972045D02*
X111682004Y-90933950D01*
X111682004Y-90933950D02*
X111742956Y-90895855D01*
X112230575Y-91619664D02*
X112261052Y-91657760D01*
X112261052Y-91657760D02*
X112230575Y-91695855D01*
X112230575Y-91695855D02*
X112200099Y-91657760D01*
X112200099Y-91657760D02*
X112230575Y-91619664D01*
X112230575Y-91619664D02*
X112230575Y-91695855D01*
X112809623Y-91162521D02*
X112809623Y-91695855D01*
X112657242Y-90857760D02*
X112504861Y-91429188D01*
X112504861Y-91429188D02*
X112901052Y-91429188D01*
X113144861Y-91619664D02*
X113175338Y-91657760D01*
X113175338Y-91657760D02*
X113144861Y-91695855D01*
X113144861Y-91695855D02*
X113114385Y-91657760D01*
X113114385Y-91657760D02*
X113144861Y-91619664D01*
X113144861Y-91619664D02*
X113144861Y-91695855D01*
X113784862Y-91695855D02*
X113419147Y-91695855D01*
X113602004Y-91695855D02*
X113602004Y-90895855D01*
X113602004Y-90895855D02*
X113541052Y-91010140D01*
X113541052Y-91010140D02*
X113480100Y-91086331D01*
X113480100Y-91086331D02*
X113419147Y-91124426D01*
X114059147Y-91619664D02*
X114089624Y-91657760D01*
X114089624Y-91657760D02*
X114059147Y-91695855D01*
X114059147Y-91695855D02*
X114028671Y-91657760D01*
X114028671Y-91657760D02*
X114059147Y-91619664D01*
X114059147Y-91619664D02*
X114059147Y-91695855D01*
X114485814Y-90895855D02*
X114546767Y-90895855D01*
X114546767Y-90895855D02*
X114607719Y-90933950D01*
X114607719Y-90933950D02*
X114638195Y-90972045D01*
X114638195Y-90972045D02*
X114668671Y-91048236D01*
X114668671Y-91048236D02*
X114699148Y-91200617D01*
X114699148Y-91200617D02*
X114699148Y-91391093D01*
X114699148Y-91391093D02*
X114668671Y-91543474D01*
X114668671Y-91543474D02*
X114638195Y-91619664D01*
X114638195Y-91619664D02*
X114607719Y-91657760D01*
X114607719Y-91657760D02*
X114546767Y-91695855D01*
X114546767Y-91695855D02*
X114485814Y-91695855D01*
X114485814Y-91695855D02*
X114424862Y-91657760D01*
X114424862Y-91657760D02*
X114394386Y-91619664D01*
X114394386Y-91619664D02*
X114363909Y-91543474D01*
X114363909Y-91543474D02*
X114333433Y-91391093D01*
X114333433Y-91391093D02*
X114333433Y-91200617D01*
X114333433Y-91200617D02*
X114363909Y-91048236D01*
X114363909Y-91048236D02*
X114394386Y-90972045D01*
X114394386Y-90972045D02*
X114424862Y-90933950D01*
X114424862Y-90933950D02*
X114485814Y-90895855D01*
D13*
X104643810Y-78465935D02*
X104643810Y-79037363D01*
X104643810Y-79037363D02*
X104613333Y-79151649D01*
X104613333Y-79151649D02*
X104552381Y-79227840D01*
X104552381Y-79227840D02*
X104460952Y-79265935D01*
X104460952Y-79265935D02*
X104400000Y-79265935D01*
X105253333Y-79265935D02*
X104948571Y-79265935D01*
X104948571Y-79265935D02*
X104948571Y-78465935D01*
X105832381Y-79189744D02*
X105801905Y-79227840D01*
X105801905Y-79227840D02*
X105710476Y-79265935D01*
X105710476Y-79265935D02*
X105649524Y-79265935D01*
X105649524Y-79265935D02*
X105558095Y-79227840D01*
X105558095Y-79227840D02*
X105497143Y-79151649D01*
X105497143Y-79151649D02*
X105466666Y-79075459D01*
X105466666Y-79075459D02*
X105436190Y-78923078D01*
X105436190Y-78923078D02*
X105436190Y-78808792D01*
X105436190Y-78808792D02*
X105466666Y-78656411D01*
X105466666Y-78656411D02*
X105497143Y-78580220D01*
X105497143Y-78580220D02*
X105558095Y-78504030D01*
X105558095Y-78504030D02*
X105649524Y-78465935D01*
X105649524Y-78465935D02*
X105710476Y-78465935D01*
X105710476Y-78465935D02*
X105801905Y-78504030D01*
X105801905Y-78504030D02*
X105832381Y-78542125D01*
X106289524Y-78465935D02*
X106289524Y-79037363D01*
X106289524Y-79037363D02*
X106259047Y-79151649D01*
X106259047Y-79151649D02*
X106198095Y-79227840D01*
X106198095Y-79227840D02*
X106106666Y-79265935D01*
X106106666Y-79265935D02*
X106045714Y-79265935D01*
X106899047Y-79265935D02*
X106594285Y-79265935D01*
X106594285Y-79265935D02*
X106594285Y-78465935D01*
X107478095Y-79189744D02*
X107447619Y-79227840D01*
X107447619Y-79227840D02*
X107356190Y-79265935D01*
X107356190Y-79265935D02*
X107295238Y-79265935D01*
X107295238Y-79265935D02*
X107203809Y-79227840D01*
X107203809Y-79227840D02*
X107142857Y-79151649D01*
X107142857Y-79151649D02*
X107112380Y-79075459D01*
X107112380Y-79075459D02*
X107081904Y-78923078D01*
X107081904Y-78923078D02*
X107081904Y-78808792D01*
X107081904Y-78808792D02*
X107112380Y-78656411D01*
X107112380Y-78656411D02*
X107142857Y-78580220D01*
X107142857Y-78580220D02*
X107203809Y-78504030D01*
X107203809Y-78504030D02*
X107295238Y-78465935D01*
X107295238Y-78465935D02*
X107356190Y-78465935D01*
X107356190Y-78465935D02*
X107447619Y-78504030D01*
X107447619Y-78504030D02*
X107478095Y-78542125D01*
X107935238Y-78465935D02*
X107935238Y-79037363D01*
X107935238Y-79037363D02*
X107904761Y-79151649D01*
X107904761Y-79151649D02*
X107843809Y-79227840D01*
X107843809Y-79227840D02*
X107752380Y-79265935D01*
X107752380Y-79265935D02*
X107691428Y-79265935D01*
X108544761Y-79265935D02*
X108239999Y-79265935D01*
X108239999Y-79265935D02*
X108239999Y-78465935D01*
X109123809Y-79189744D02*
X109093333Y-79227840D01*
X109093333Y-79227840D02*
X109001904Y-79265935D01*
X109001904Y-79265935D02*
X108940952Y-79265935D01*
X108940952Y-79265935D02*
X108849523Y-79227840D01*
X108849523Y-79227840D02*
X108788571Y-79151649D01*
X108788571Y-79151649D02*
X108758094Y-79075459D01*
X108758094Y-79075459D02*
X108727618Y-78923078D01*
X108727618Y-78923078D02*
X108727618Y-78808792D01*
X108727618Y-78808792D02*
X108758094Y-78656411D01*
X108758094Y-78656411D02*
X108788571Y-78580220D01*
X108788571Y-78580220D02*
X108849523Y-78504030D01*
X108849523Y-78504030D02*
X108940952Y-78465935D01*
X108940952Y-78465935D02*
X109001904Y-78465935D01*
X109001904Y-78465935D02*
X109093333Y-78504030D01*
X109093333Y-78504030D02*
X109123809Y-78542125D01*
X109580952Y-78465935D02*
X109580952Y-79037363D01*
X109580952Y-79037363D02*
X109550475Y-79151649D01*
X109550475Y-79151649D02*
X109489523Y-79227840D01*
X109489523Y-79227840D02*
X109398094Y-79265935D01*
X109398094Y-79265935D02*
X109337142Y-79265935D01*
X110190475Y-79265935D02*
X109885713Y-79265935D01*
X109885713Y-79265935D02*
X109885713Y-78465935D01*
X110769523Y-79189744D02*
X110739047Y-79227840D01*
X110739047Y-79227840D02*
X110647618Y-79265935D01*
X110647618Y-79265935D02*
X110586666Y-79265935D01*
X110586666Y-79265935D02*
X110495237Y-79227840D01*
X110495237Y-79227840D02*
X110434285Y-79151649D01*
X110434285Y-79151649D02*
X110403808Y-79075459D01*
X110403808Y-79075459D02*
X110373332Y-78923078D01*
X110373332Y-78923078D02*
X110373332Y-78808792D01*
X110373332Y-78808792D02*
X110403808Y-78656411D01*
X110403808Y-78656411D02*
X110434285Y-78580220D01*
X110434285Y-78580220D02*
X110495237Y-78504030D01*
X110495237Y-78504030D02*
X110586666Y-78465935D01*
X110586666Y-78465935D02*
X110647618Y-78465935D01*
X110647618Y-78465935D02*
X110739047Y-78504030D01*
X110739047Y-78504030D02*
X110769523Y-78542125D01*
D14*
%TO.C,Q3*%
X105700000Y-64425000D02*
X105700000Y-65475000D01*
X105700000Y-65475000D02*
X107300000Y-65475000D01*
D15*
X105750000Y-64125000D02*
X105750000Y-64125000D01*
D14*
X107300000Y-64075000D02*
X106100000Y-64075000D01*
X107300000Y-65475000D02*
X107300000Y-64075000D01*
D15*
%TO.C,D8*%
X107800000Y-73675000D02*
X107800000Y-73675000D01*
D14*
X109425000Y-73700000D02*
X108075000Y-73700000D01*
X107775000Y-73400000D01*
X107775000Y-72500000D01*
X109425000Y-72500000D01*
X109425000Y-73700000D01*
%TO.C,R11*%
X107575000Y-65675000D02*
X106625000Y-65675000D01*
X106625000Y-67675000D01*
X107575000Y-67675000D01*
X107575000Y-65675000D01*
%TO.C,R14*%
X107175000Y-67875000D02*
X106225000Y-67875000D01*
X106225000Y-69875000D01*
X107175000Y-69875000D01*
X107175000Y-67875000D01*
%TO.C,C3*%
X108700000Y-69800000D02*
X108700000Y-69200000D01*
X108700000Y-70400000D02*
X108700000Y-71000000D01*
X109600000Y-68900000D02*
X109000000Y-68900000D01*
X109600000Y-71300000D02*
X109000000Y-71300000D01*
X109900000Y-69800000D02*
X109900000Y-69200000D01*
X109900000Y-70400000D02*
X109900000Y-71000000D01*
X108700000Y-69200000D02*
G75*
G02*
X109000000Y-68900000I300000J0D01*
G01*
X109000000Y-71300000D02*
G75*
G02*
X108700000Y-71000000I0J300000D01*
G01*
X109600000Y-68900000D02*
G75*
G02*
X109900000Y-69200000I0J-300000D01*
G01*
X109900000Y-71000000D02*
G75*
G02*
X109600000Y-71300000I-300000J0D01*
G01*
%TO.C,Q7*%
X104500000Y-68825000D02*
X104500000Y-69875000D01*
X104500000Y-69875000D02*
X106100000Y-69875000D01*
D15*
X104550000Y-68525000D02*
X104550000Y-68525000D01*
D14*
X106100000Y-68475000D02*
X104900000Y-68475000D01*
X106100000Y-69875000D02*
X106100000Y-68475000D01*
%TO.C,R1*%
X101850000Y-72625000D02*
X103850000Y-72625000D01*
X103850000Y-73575000D01*
X101850000Y-73575000D01*
X101850000Y-72625000D01*
%TO.C,C2*%
X112800000Y-69750000D02*
X112800000Y-69150000D01*
X112800000Y-70350000D02*
X112800000Y-70950000D01*
X113700000Y-68850000D02*
X113100000Y-68850000D01*
X113700000Y-71250000D02*
X113100000Y-71250000D01*
X114000000Y-69750000D02*
X114000000Y-69150000D01*
X114000000Y-70350000D02*
X114000000Y-70950000D01*
X112800000Y-69150000D02*
G75*
G02*
X113100000Y-68850000I300000J0D01*
G01*
X113100000Y-71250000D02*
G75*
G02*
X112800000Y-70950000I0J300000D01*
G01*
X113700000Y-68850000D02*
G75*
G02*
X114000000Y-69150000I0J-300000D01*
G01*
X114000000Y-70950000D02*
G75*
G02*
X113700000Y-71250000I-300000J0D01*
G01*
%TO.C,Q8*%
X100900000Y-71175000D02*
X100900000Y-72075000D01*
X100900000Y-72075000D02*
X101900000Y-72075000D01*
X101700000Y-71175000D02*
X100900000Y-71175000D01*
X101900000Y-71375000D02*
X101700000Y-71175000D01*
X101900000Y-72075000D02*
X101900000Y-71375000D01*
D15*
%TO.C,D7*%
X111150000Y-72525000D02*
X111150000Y-72525000D01*
D14*
X111175000Y-72800000D02*
X111175000Y-73700000D01*
X109525000Y-73700000D01*
X109525000Y-72500000D01*
X110875000Y-72500000D01*
X111175000Y-72800000D01*
%TO.C,R2*%
X110875000Y-68775000D02*
X108875000Y-68775000D01*
X108875000Y-67825000D01*
X110875000Y-67825000D01*
X110875000Y-68775000D01*
D11*
%TO.C,CN1*%
X101348900Y-75682001D02*
X101348900Y-76017860D01*
X101348900Y-79782140D02*
X101348900Y-80127001D01*
X101348900Y-80127001D02*
X113851100Y-80127001D01*
D16*
X101800000Y-75150000D02*
X101800000Y-75150000D01*
D11*
X103735860Y-75682001D02*
X101348900Y-75682001D01*
X113851100Y-75682001D02*
X111464140Y-75682001D01*
X113851100Y-76017860D02*
X113851100Y-75682001D01*
X113851100Y-80127001D02*
X113851100Y-79782140D01*
%TO.C,TH4*%
D14*
X103975000Y-70325000D02*
X103125000Y-70325000D01*
X103125000Y-72075000D01*
X103975000Y-72075000D01*
X103975000Y-70325000D01*
%TO.C,U1*%
X109700000Y-63650000D02*
X111900000Y-63650000D01*
X109700000Y-67400000D02*
X111900000Y-67400000D01*
D10*
G36*
X109199999Y-63946409D02*
G01*
X109000000Y-63600000D01*
X109400000Y-63600000D01*
X109199999Y-63946409D01*
G37*
D14*
%TO.C,Q4*%
X101700000Y-66775000D02*
X101700000Y-67675000D01*
X101700000Y-67675000D02*
X102700000Y-67675000D01*
X102500000Y-66775000D02*
X101700000Y-66775000D01*
X102700000Y-66975000D02*
X102500000Y-66775000D01*
X102700000Y-67675000D02*
X102700000Y-66975000D01*
%TO.C,LED1*%
X102400000Y-60000000D02*
X105600000Y-60000000D01*
X102400000Y-62800000D02*
X102400000Y-60000000D01*
D17*
X102400000Y-63200000D02*
X102400000Y-63200000D01*
D14*
X105600000Y-60000000D02*
X105600000Y-63200000D01*
X105600000Y-63200000D02*
X102800000Y-63200000D01*
%TO.C,Q6*%
X101300000Y-68975000D02*
X101300000Y-69875000D01*
X101300000Y-69875000D02*
X102300000Y-69875000D01*
X102100000Y-68975000D02*
X101300000Y-68975000D01*
X102300000Y-69175000D02*
X102100000Y-68975000D01*
X102300000Y-69875000D02*
X102300000Y-69175000D01*
%TO.C,R17*%
X106775000Y-70075000D02*
X105825000Y-70075000D01*
X105825000Y-72075000D01*
X106775000Y-72075000D01*
X106775000Y-70075000D01*
%TO.C,LED3*%
X109600000Y-60000000D02*
X112800000Y-60000000D01*
X109600000Y-62800000D02*
X109600000Y-60000000D01*
D17*
X109600000Y-63200000D02*
X109600000Y-63200000D01*
D14*
X112800000Y-60000000D02*
X112800000Y-63200000D01*
X112800000Y-63200000D02*
X110000000Y-63200000D01*
%TO.C,R12*%
X102425000Y-69875000D02*
X103375000Y-69875000D01*
X103375000Y-67875000D01*
X102425000Y-67875000D01*
X102425000Y-69875000D01*
%TO.C,TH2*%
X104775000Y-65925000D02*
X103925000Y-65925000D01*
X103925000Y-67675000D01*
X104775000Y-67675000D01*
X104775000Y-65925000D01*
%TO.C,R3*%
X114360000Y-67135000D02*
X112840000Y-67135000D01*
X112840000Y-66315000D01*
X114360000Y-66315000D01*
X114360000Y-67135000D01*
D15*
%TO.C,D9*%
X104050000Y-73675000D02*
X104050000Y-73675000D01*
D14*
X105675000Y-73700000D02*
X104325000Y-73700000D01*
X104025000Y-73400000D01*
X104025000Y-72500000D01*
X105675000Y-72500000D01*
X105675000Y-73700000D01*
D15*
%TO.C,D6*%
X107400000Y-72525000D02*
X107400000Y-72525000D01*
D14*
X107425000Y-72800000D02*
X107425000Y-73700000D01*
X105775000Y-73700000D01*
X105775000Y-72500000D01*
X107125000Y-72500000D01*
X107425000Y-72800000D01*
%TO.C,Q2*%
X102500000Y-64575000D02*
X102500000Y-65475000D01*
X102500000Y-65475000D02*
X103500000Y-65475000D01*
X103300000Y-64575000D02*
X102500000Y-64575000D01*
X103500000Y-64775000D02*
X103300000Y-64575000D01*
X103500000Y-65475000D02*
X103500000Y-64775000D01*
%TO.C,Q5*%
X104900000Y-66625000D02*
X104900000Y-67675000D01*
X104900000Y-67675000D02*
X106500000Y-67675000D01*
D15*
X104950000Y-66325000D02*
X104950000Y-66325000D01*
D14*
X106500000Y-66275000D02*
X105300000Y-66275000D01*
X106500000Y-67675000D02*
X106500000Y-66275000D01*
%TO.C,TH3*%
X104375000Y-68125000D02*
X103525000Y-68125000D01*
X103525000Y-69875000D01*
X104375000Y-69875000D01*
X104375000Y-68125000D01*
%TO.C,Q9*%
X104100000Y-71025000D02*
X104100000Y-72075000D01*
X104100000Y-72075000D02*
X105700000Y-72075000D01*
D15*
X104150000Y-70725000D02*
X104150000Y-70725000D01*
D14*
X105700000Y-70675000D02*
X104500000Y-70675000D01*
X105700000Y-72075000D02*
X105700000Y-70675000D01*
%TO.C,LED2*%
X106000000Y-60000000D02*
X109200000Y-60000000D01*
X106000000Y-62800000D02*
X106000000Y-60000000D01*
D17*
X106000000Y-63200000D02*
X106000000Y-63200000D01*
D14*
X109200000Y-60000000D02*
X109200000Y-63200000D01*
X109200000Y-63200000D02*
X106400000Y-63200000D01*
%TO.C,TH1*%
X105575000Y-63725000D02*
X104725000Y-63725000D01*
X104725000Y-65475000D01*
X105575000Y-65475000D01*
X105575000Y-63725000D01*
%TO.C,Q1*%
X106900000Y-70625000D02*
X106900000Y-71525000D01*
X106900000Y-71525000D02*
X107900000Y-71525000D01*
X107700000Y-70625000D02*
X106900000Y-70625000D01*
X107900000Y-70825000D02*
X107700000Y-70625000D01*
X107900000Y-71525000D02*
X107900000Y-70825000D01*
%TO.C,R9*%
X102825000Y-67675000D02*
X103775000Y-67675000D01*
X103775000Y-65675000D01*
X102825000Y-65675000D01*
X102825000Y-67675000D01*
%TO.C,R15*%
X102025000Y-72075000D02*
X102975000Y-72075000D01*
X102975000Y-70075000D01*
X102025000Y-70075000D01*
X102025000Y-72075000D01*
%TO.C,R6*%
X103625000Y-65475000D02*
X104575000Y-65475000D01*
X104575000Y-63475000D01*
X103625000Y-63475000D01*
X103625000Y-65475000D01*
%TO.C,C1*%
X113340000Y-65335000D02*
X113340000Y-64915000D01*
X113540000Y-64715000D02*
X113900000Y-64715000D01*
X113850000Y-65535000D02*
X113540000Y-65535000D01*
X114300000Y-64715000D02*
X114660000Y-64715000D01*
X114300000Y-65535000D02*
X114660000Y-65535000D01*
X114860000Y-65335000D02*
X114860000Y-64915000D01*
X113340000Y-64915000D02*
G75*
G02*
X113540000Y-64715000I200001J-1D01*
G01*
X113540000Y-65535000D02*
G75*
G02*
X113340000Y-65335000I1J200001D01*
G01*
X114660000Y-64715000D02*
G75*
G02*
X114860000Y-64915000I0J-200000D01*
G01*
X114860000Y-65335000D02*
G75*
G02*
X114660000Y-65535000I-200000J0D01*
G01*
D11*
%TO.C,U2*%
X110450000Y-68990000D02*
X112450000Y-68990000D01*
X110450000Y-71210000D02*
X112450000Y-71210000D01*
D10*
G36*
X110347516Y-69227336D02*
G01*
X109961147Y-69123808D01*
X110243990Y-68840965D01*
X110347516Y-69227336D01*
G37*
%TO.C,R8*%
D14*
X108375000Y-63475000D02*
X107425000Y-63475000D01*
X107425000Y-65475000D01*
X108375000Y-65475000D01*
X108375000Y-63475000D01*
%TD*%
%LPC*%
D18*
X108875000Y-88800000D02*
G75*
G02*
X106325000Y-88800000I-1275000J0D01*
G01*
X106325000Y-88800000D02*
G75*
G02*
X108875000Y-88800000I1275000J0D01*
G01*
D19*
%TO.C,Q3*%
X106050000Y-64400000D03*
X106050000Y-65150000D03*
X106950000Y-64775000D03*
%TD*%
D20*
%TO.C,R21*%
X113820000Y-62000000D03*
X114380000Y-62000000D03*
%TD*%
D21*
%TO.C,D8*%
X108200000Y-73100000D03*
X109000000Y-73100000D03*
%TD*%
D22*
%TO.C,R11*%
X107100000Y-66150000D03*
X107100000Y-67200000D03*
%TD*%
%TO.C,R14*%
X106700000Y-68350000D03*
X106700000Y-69400000D03*
%TD*%
D20*
%TO.C,R20*%
X113820000Y-61400000D03*
X114380000Y-61400000D03*
%TD*%
D23*
%TO.C,C3*%
X109300000Y-69500000D03*
X109300000Y-70700000D03*
%TD*%
D19*
%TO.C,Q7*%
X104850000Y-68800000D03*
X104850000Y-69550000D03*
X105750000Y-69175000D03*
%TD*%
D24*
%TO.C,R1*%
X102325000Y-73100000D03*
X103375000Y-73100000D03*
%TD*%
D23*
%TO.C,C2*%
X113400000Y-69450000D03*
X113400000Y-70650000D03*
%TD*%
D25*
%TO.C,Q8*%
X101600000Y-71800000D03*
X101600000Y-71450000D03*
D26*
X101200000Y-71625000D03*
%TD*%
D27*
%TO.C,R13*%
X102000000Y-68020000D03*
X102000000Y-68580000D03*
%TD*%
%TO.C,R16*%
X101600000Y-70220000D03*
X101600000Y-70780000D03*
%TD*%
D28*
%TO.C,D7*%
X110750000Y-73100000D03*
X109950000Y-73100000D03*
%TD*%
D29*
%TO.C,R2*%
X110400000Y-68300000D03*
X109350000Y-68300000D03*
%TD*%
D20*
%TO.C,R18*%
X113820000Y-60200000D03*
X114380000Y-60200000D03*
%TD*%
D30*
%TO.C,R4*%
X108400000Y-69880000D03*
X108400000Y-69320000D03*
%TD*%
D31*
%TO.C,CN1*%
X104475000Y-75000000D03*
X105725000Y-75000000D03*
X106975000Y-75000000D03*
X108225000Y-75000000D03*
X109475000Y-75000000D03*
X110725000Y-75000000D03*
D32*
X101925000Y-77900000D03*
X113275000Y-77900000D03*
%TD*%
D33*
%TO.C,TH4*%
X103550000Y-70750000D03*
X103550000Y-71650000D03*
%TD*%
D34*
%TO.C,U1*%
X109500000Y-64325000D03*
X109500000Y-65125000D03*
X109500000Y-65925000D03*
X109500000Y-66725000D03*
X112100000Y-66725000D03*
X112100000Y-65925000D03*
X112100000Y-65125000D03*
X112100000Y-64325000D03*
%TD*%
D25*
%TO.C,Q4*%
X102400000Y-67400000D03*
X102400000Y-67050000D03*
D26*
X102000000Y-67225000D03*
%TD*%
D35*
%TO.C,LED1*%
X102800000Y-62800000D03*
X102800000Y-62000000D03*
X102800000Y-61200000D03*
X102800000Y-60400000D03*
X105200000Y-60400000D03*
X105200000Y-61200000D03*
X105200000Y-62000000D03*
X105200000Y-62800000D03*
D36*
X104000000Y-61600000D03*
%TD*%
D25*
%TO.C,Q6*%
X102000000Y-69600000D03*
X102000000Y-69250000D03*
D26*
X101600000Y-69425000D03*
%TD*%
D20*
%TO.C,R25*%
X113820000Y-64400000D03*
X114380000Y-64400000D03*
%TD*%
D22*
%TO.C,R17*%
X106300000Y-70550000D03*
X106300000Y-71600000D03*
%TD*%
D35*
%TO.C,LED3*%
X110000000Y-62800000D03*
X110000000Y-62000000D03*
X110000000Y-61200000D03*
X110000000Y-60400000D03*
X112400000Y-60400000D03*
X112400000Y-61200000D03*
X112400000Y-62000000D03*
X112400000Y-62800000D03*
D36*
X111200000Y-61600000D03*
%TD*%
D37*
%TO.C,R12*%
X102900000Y-69400000D03*
X102900000Y-68350000D03*
%TD*%
D20*
%TO.C,R22*%
X113820000Y-62600000D03*
X114380000Y-62600000D03*
%TD*%
D33*
%TO.C,TH2*%
X104350000Y-66350000D03*
X104350000Y-67250000D03*
%TD*%
D20*
%TO.C,R19*%
X113820000Y-60800000D03*
X114380000Y-60800000D03*
%TD*%
D30*
%TO.C,R5*%
X108400000Y-70880000D03*
X108400000Y-70320000D03*
%TD*%
D20*
%TO.C,R24*%
X113820000Y-63800000D03*
X114380000Y-63800000D03*
%TD*%
D38*
%TO.C,R3*%
X113950000Y-66725000D03*
X113250000Y-66725000D03*
%TD*%
D21*
%TO.C,D9*%
X104450000Y-73100000D03*
X105250000Y-73100000D03*
%TD*%
D28*
%TO.C,D6*%
X107000000Y-73100000D03*
X106200000Y-73100000D03*
%TD*%
D20*
%TO.C,R23*%
X113820000Y-63200000D03*
X114380000Y-63200000D03*
%TD*%
D25*
%TO.C,Q2*%
X103200000Y-65200000D03*
X103200000Y-64850000D03*
D26*
X102800000Y-65025000D03*
%TD*%
D19*
%TO.C,Q5*%
X105250000Y-66600000D03*
X105250000Y-67350000D03*
X106150000Y-66975000D03*
%TD*%
D33*
%TO.C,TH3*%
X103950000Y-68550000D03*
X103950000Y-69450000D03*
%TD*%
D19*
%TO.C,Q9*%
X104450000Y-71000000D03*
X104450000Y-71750000D03*
X105350000Y-71375000D03*
%TD*%
D27*
%TO.C,R7*%
X103200000Y-63620000D03*
X103200000Y-64180000D03*
%TD*%
D35*
%TO.C,LED2*%
X106400000Y-62800000D03*
X106400000Y-62000000D03*
X106400000Y-61200000D03*
X106400000Y-60400000D03*
X108800000Y-60400000D03*
X108800000Y-61200000D03*
X108800000Y-62000000D03*
X108800000Y-62800000D03*
D36*
X107600000Y-61600000D03*
%TD*%
D33*
%TO.C,TH1*%
X105150000Y-64150000D03*
X105150000Y-65050000D03*
%TD*%
D25*
%TO.C,Q1*%
X107600000Y-71250000D03*
X107600000Y-70900000D03*
D26*
X107200000Y-71075000D03*
%TD*%
D37*
%TO.C,R9*%
X103300000Y-67200000D03*
X103300000Y-66150000D03*
%TD*%
%TO.C,R15*%
X102500000Y-71600000D03*
X102500000Y-70550000D03*
%TD*%
%TO.C,R6*%
X104100000Y-65000000D03*
X104100000Y-63950000D03*
%TD*%
D39*
%TO.C,C1*%
X113770000Y-65125000D03*
X114430000Y-65125000D03*
%TD*%
D40*
%TO.C,U2*%
X110562500Y-69450000D03*
X110562500Y-70100000D03*
X110562500Y-70750000D03*
X112337500Y-70750000D03*
X112337500Y-70100000D03*
X112337500Y-69450000D03*
D41*
X111450000Y-70100000D03*
%TD*%
D22*
%TO.C,R8*%
X107900000Y-63950000D03*
X107900000Y-65000000D03*
%TD*%
D27*
%TO.C,R10*%
X102400000Y-65820000D03*
X102400000Y-66380000D03*
%TD*%
%LPD*%
M02*
