%TF.GenerationSoftware,KiCad,Pcbnew,9.0.2+dfsg-1*%
%TF.CreationDate,2026-06-03T10:34:20-04:00*%
%TF.ProjectId,DemonEye,44656d6f-6e45-4796-952e-6b696361645f,rev?*%
%TF.SameCoordinates,Original*%
%TF.FileFunction,Paste,Top*%
%TF.FilePolarity,Positive*%
%FSLAX46Y46*%
G04 Gerber Fmt 4.6, Leading zero omitted, Abs format (unit mm)*
G04 Created by KiCad (PCBNEW 9.0.2+dfsg-1) date 2026-06-03 10:34:20*
%MOMM*%
%LPD*%
G01*
G04 APERTURE LIST*
G04 Aperture macros list*
%AMRoundRect*
0 Rectangle with rounded corners*
0 $1 Rounding radius*
0 $2 $3 $4 $5 $6 $7 $8 $9 X,Y pos of 4 corners*
0 Add a 4 corners polygon primitive as box body*
4,1,4,$2,$3,$4,$5,$6,$7,$8,$9,$2,$3,0*
0 Add four circle primitives for the rounded corners*
1,1,$1+$1,$2,$3*
1,1,$1+$1,$4,$5*
1,1,$1+$1,$6,$7*
1,1,$1+$1,$8,$9*
0 Add four rect primitives between the rounded corners*
20,1,$1+$1,$2,$3,$4,$5,0*
20,1,$1+$1,$4,$5,$6,$7,0*
20,1,$1+$1,$6,$7,$8,$9,0*
20,1,$1+$1,$8,$9,$2,$3,0*%
G04 Aperture macros list end*
%ADD10RoundRect,0.037500X-0.112500X-0.087500X0.112500X-0.087500X0.112500X0.087500X-0.112500X0.087500X0*%
%ADD11RoundRect,0.039000X-0.091000X-0.091000X0.091000X-0.091000X0.091000X0.091000X-0.091000X0.091000X0*%
%ADD12RoundRect,0.060000X-0.140000X-0.190000X0.140000X-0.190000X0.140000X0.190000X-0.140000X0.190000X0*%
%ADD13RoundRect,0.090000X-0.210000X0.210000X-0.210000X-0.210000X0.210000X-0.210000X0.210000X0.210000X0*%
%ADD14RoundRect,0.097500X-0.302500X0.227500X-0.302500X-0.227500X0.302500X-0.227500X0.302500X0.227500X0*%
%ADD15RoundRect,0.090000X-0.210000X-0.210000X0.210000X-0.210000X0.210000X0.210000X-0.210000X0.210000X0*%
%ADD16RoundRect,0.100000X0.075000X0.025000X-0.075000X0.025000X-0.075000X-0.025000X0.075000X-0.025000X0*%
%ADD17RoundRect,0.100000X0.025000X0.200000X-0.025000X0.200000X-0.025000X-0.200000X0.025000X-0.200000X0*%
%ADD18RoundRect,0.039000X-0.091000X0.091000X-0.091000X-0.091000X0.091000X-0.091000X0.091000X0.091000X0*%
%ADD19RoundRect,0.060000X0.140000X0.190000X-0.140000X0.190000X-0.140000X-0.190000X0.140000X-0.190000X0*%
%ADD20RoundRect,0.090000X0.210000X0.210000X-0.210000X0.210000X-0.210000X-0.210000X0.210000X-0.210000X0*%
%ADD21RoundRect,0.039000X0.091000X-0.091000X0.091000X0.091000X-0.091000X0.091000X-0.091000X-0.091000X0*%
%ADD22R,0.700000X1.500000*%
%ADD23R,1.900000X2.800000*%
%ADD24RoundRect,0.075000X-0.175000X0.175000X-0.175000X-0.175000X0.175000X-0.175000X0.175000X0.175000X0*%
%ADD25R,1.000000X0.500000*%
%ADD26R,0.350000X0.350000*%
%ADD27R,1.050000X2.750000*%
%ADD28RoundRect,0.090000X0.210000X-0.210000X0.210000X0.210000X-0.210000X0.210000X-0.210000X-0.210000X0*%
%ADD29RoundRect,0.048000X0.117000X0.112000X-0.117000X0.112000X-0.117000X-0.112000X0.117000X-0.112000X0*%
%ADD30RoundRect,0.048000X-0.132000X-0.112000X0.132000X-0.112000X0.132000X0.112000X-0.132000X0.112000X0*%
%ADD31RoundRect,0.160000X-0.245000X-0.160000X0.245000X-0.160000X0.245000X0.160000X-0.245000X0.160000X0*%
%ADD32RoundRect,0.093750X-0.093750X-0.106250X0.093750X-0.106250X0.093750X0.106250X-0.093750X0.106250X0*%
G04 APERTURE END LIST*
D10*
%TO.C,Q3*%
X106050000Y-64400000D03*
X106050000Y-65150000D03*
X106950000Y-64775000D03*
%TD*%
D11*
%TO.C,R21*%
X113820000Y-62000000D03*
X114380000Y-62000000D03*
%TD*%
D12*
%TO.C,D8*%
X108200000Y-73100000D03*
X109000000Y-73100000D03*
%TD*%
D13*
%TO.C,R11*%
X107100000Y-66150000D03*
X107100000Y-67200000D03*
%TD*%
%TO.C,R14*%
X106700000Y-68350000D03*
X106700000Y-69400000D03*
%TD*%
D11*
%TO.C,R20*%
X113820000Y-61400000D03*
X114380000Y-61400000D03*
%TD*%
D14*
%TO.C,C3*%
X109300000Y-69500000D03*
X109300000Y-70700000D03*
%TD*%
D10*
%TO.C,Q7*%
X104850000Y-68800000D03*
X104850000Y-69550000D03*
X105750000Y-69175000D03*
%TD*%
D15*
%TO.C,R1*%
X102325000Y-73100000D03*
X103375000Y-73100000D03*
%TD*%
D14*
%TO.C,C2*%
X113400000Y-69450000D03*
X113400000Y-70650000D03*
%TD*%
D16*
%TO.C,Q8*%
X101600000Y-71800000D03*
X101600000Y-71450000D03*
D17*
X101200000Y-71625000D03*
%TD*%
D18*
%TO.C,R13*%
X102000000Y-68020000D03*
X102000000Y-68580000D03*
%TD*%
%TO.C,R16*%
X101600000Y-70220000D03*
X101600000Y-70780000D03*
%TD*%
D19*
%TO.C,D7*%
X110750000Y-73100000D03*
X109950000Y-73100000D03*
%TD*%
D20*
%TO.C,R2*%
X110400000Y-68300000D03*
X109350000Y-68300000D03*
%TD*%
D11*
%TO.C,R18*%
X113820000Y-60200000D03*
X114380000Y-60200000D03*
%TD*%
D21*
%TO.C,R4*%
X108400000Y-69880000D03*
X108400000Y-69320000D03*
%TD*%
D22*
%TO.C,CN1*%
X104475000Y-75000000D03*
X105725000Y-75000000D03*
X106975000Y-75000000D03*
X108225000Y-75000000D03*
X109475000Y-75000000D03*
X110725000Y-75000000D03*
D23*
X101925000Y-77900000D03*
X113275000Y-77900000D03*
%TD*%
D24*
%TO.C,TH4*%
X103550000Y-70750000D03*
X103550000Y-71650000D03*
%TD*%
D25*
%TO.C,U1*%
X109500000Y-64325000D03*
X109500000Y-65125000D03*
X109500000Y-65925000D03*
X109500000Y-66725000D03*
X112100000Y-66725000D03*
X112100000Y-65925000D03*
X112100000Y-65125000D03*
X112100000Y-64325000D03*
%TD*%
D16*
%TO.C,Q4*%
X102400000Y-67400000D03*
X102400000Y-67050000D03*
D17*
X102000000Y-67225000D03*
%TD*%
D26*
%TO.C,LED1*%
X102800000Y-62800000D03*
X102800000Y-62000000D03*
X102800000Y-61200000D03*
X102800000Y-60400000D03*
X105200000Y-60400000D03*
X105200000Y-61200000D03*
X105200000Y-62000000D03*
X105200000Y-62800000D03*
D27*
X104000000Y-61600000D03*
%TD*%
D16*
%TO.C,Q6*%
X102000000Y-69600000D03*
X102000000Y-69250000D03*
D17*
X101600000Y-69425000D03*
%TD*%
D11*
%TO.C,R25*%
X113820000Y-64400000D03*
X114380000Y-64400000D03*
%TD*%
D13*
%TO.C,R17*%
X106300000Y-70550000D03*
X106300000Y-71600000D03*
%TD*%
D26*
%TO.C,LED3*%
X110000000Y-62800000D03*
X110000000Y-62000000D03*
X110000000Y-61200000D03*
X110000000Y-60400000D03*
X112400000Y-60400000D03*
X112400000Y-61200000D03*
X112400000Y-62000000D03*
X112400000Y-62800000D03*
D27*
X111200000Y-61600000D03*
%TD*%
D28*
%TO.C,R12*%
X102900000Y-69400000D03*
X102900000Y-68350000D03*
%TD*%
D11*
%TO.C,R22*%
X113820000Y-62600000D03*
X114380000Y-62600000D03*
%TD*%
D24*
%TO.C,TH2*%
X104350000Y-66350000D03*
X104350000Y-67250000D03*
%TD*%
D11*
%TO.C,R19*%
X113820000Y-60800000D03*
X114380000Y-60800000D03*
%TD*%
D21*
%TO.C,R5*%
X108400000Y-70880000D03*
X108400000Y-70320000D03*
%TD*%
D11*
%TO.C,R24*%
X113820000Y-63800000D03*
X114380000Y-63800000D03*
%TD*%
D29*
%TO.C,R3*%
X113950000Y-66725000D03*
X113250000Y-66725000D03*
%TD*%
D12*
%TO.C,D9*%
X104450000Y-73100000D03*
X105250000Y-73100000D03*
%TD*%
D19*
%TO.C,D6*%
X107000000Y-73100000D03*
X106200000Y-73100000D03*
%TD*%
D11*
%TO.C,R23*%
X113820000Y-63200000D03*
X114380000Y-63200000D03*
%TD*%
D16*
%TO.C,Q2*%
X103200000Y-65200000D03*
X103200000Y-64850000D03*
D17*
X102800000Y-65025000D03*
%TD*%
D10*
%TO.C,Q5*%
X105250000Y-66600000D03*
X105250000Y-67350000D03*
X106150000Y-66975000D03*
%TD*%
D24*
%TO.C,TH3*%
X103950000Y-68550000D03*
X103950000Y-69450000D03*
%TD*%
D10*
%TO.C,Q9*%
X104450000Y-71000000D03*
X104450000Y-71750000D03*
X105350000Y-71375000D03*
%TD*%
D18*
%TO.C,R7*%
X103200000Y-63620000D03*
X103200000Y-64180000D03*
%TD*%
D26*
%TO.C,LED2*%
X106400000Y-62800000D03*
X106400000Y-62000000D03*
X106400000Y-61200000D03*
X106400000Y-60400000D03*
X108800000Y-60400000D03*
X108800000Y-61200000D03*
X108800000Y-62000000D03*
X108800000Y-62800000D03*
D27*
X107600000Y-61600000D03*
%TD*%
D24*
%TO.C,TH1*%
X105150000Y-64150000D03*
X105150000Y-65050000D03*
%TD*%
D16*
%TO.C,Q1*%
X107600000Y-71250000D03*
X107600000Y-70900000D03*
D17*
X107200000Y-71075000D03*
%TD*%
D28*
%TO.C,R9*%
X103300000Y-67200000D03*
X103300000Y-66150000D03*
%TD*%
%TO.C,R15*%
X102500000Y-71600000D03*
X102500000Y-70550000D03*
%TD*%
%TO.C,R6*%
X104100000Y-65000000D03*
X104100000Y-63950000D03*
%TD*%
D30*
%TO.C,C1*%
X113770000Y-65125000D03*
X114430000Y-65125000D03*
%TD*%
D31*
%TO.C,U2*%
X111450000Y-69700000D03*
X111450000Y-70500000D03*
D32*
X110562500Y-69450000D03*
X110562500Y-70100000D03*
X110562500Y-70750000D03*
X112337500Y-70750000D03*
X112337500Y-70100000D03*
X112337500Y-69450000D03*
%TD*%
D13*
%TO.C,R8*%
X107900000Y-63950000D03*
X107900000Y-65000000D03*
%TD*%
D18*
%TO.C,R10*%
X102400000Y-65820000D03*
X102400000Y-66380000D03*
%TD*%
M02*
