%TF.GenerationSoftware,KiCad,Pcbnew,9.0.2+dfsg-1*%
%TF.CreationDate,2026-06-03T10:34:20-04:00*%
%TF.ProjectId,DemonEye,44656d6f-6e45-4796-952e-6b696361645f,rev?*%
%TF.SameCoordinates,Original*%
%TF.FileFunction,Copper,L1,Top*%
%TF.FilePolarity,Positive*%
%FSLAX46Y46*%
G04 Gerber Fmt 4.6, Leading zero omitted, Abs format (unit mm)*
G04 Created by KiCad (PCBNEW 9.0.2+dfsg-1) date 2026-06-03 10:34:20*
%MOMM*%
%LPD*%
G01*
G04 APERTURE LIST*
G04 Aperture macros list*
%AMRoundRect*
0 Rectangle with rounded corners*
0 $1 Rounding radius*
0 $2 $3 $4 $5 $6 $7 $8 $9 X,Y pos of 4 corners*
0 Add a 4 corners polygon primitive as box body*
4,1,4,$2,$3,$4,$5,$6,$7,$8,$9,$2,$3,0*
0 Add four circle primitives for the rounded corners*
1,1,$1+$1,$2,$3*
1,1,$1+$1,$4,$5*
1,1,$1+$1,$6,$7*
1,1,$1+$1,$8,$9*
0 Add four rect primitives between the rounded corners*
20,1,$1+$1,$2,$3,$4,$5,0*
20,1,$1+$1,$4,$5,$6,$7,0*
20,1,$1+$1,$6,$7,$8,$9,0*
20,1,$1+$1,$8,$9,$2,$3,0*%
G04 Aperture macros list end*
%TA.AperFunction,SMDPad,CuDef*%
%ADD10RoundRect,0.052500X-0.147500X-0.122500X0.147500X-0.122500X0.147500X0.122500X-0.147500X0.122500X0*%
%TD*%
%TA.AperFunction,SMDPad,CuDef*%
%ADD11RoundRect,0.054000X-0.126000X-0.126000X0.126000X-0.126000X0.126000X0.126000X-0.126000X0.126000X0*%
%TD*%
%TA.AperFunction,SMDPad,CuDef*%
%ADD12RoundRect,0.075000X-0.175000X-0.225000X0.175000X-0.225000X0.175000X0.225000X-0.175000X0.225000X0*%
%TD*%
%TA.AperFunction,SMDPad,CuDef*%
%ADD13RoundRect,0.090000X-0.210000X0.210000X-0.210000X-0.210000X0.210000X-0.210000X0.210000X0.210000X0*%
%TD*%
%TA.AperFunction,SMDPad,CuDef*%
%ADD14RoundRect,0.112500X-0.337500X0.262500X-0.337500X-0.262500X0.337500X-0.262500X0.337500X0.262500X0*%
%TD*%
%TA.AperFunction,SMDPad,CuDef*%
%ADD15RoundRect,0.090000X-0.210000X-0.210000X0.210000X-0.210000X0.210000X0.210000X-0.210000X0.210000X0*%
%TD*%
%TA.AperFunction,SMDPad,CuDef*%
%ADD16RoundRect,0.100000X0.075000X0.025000X-0.075000X0.025000X-0.075000X-0.025000X0.075000X-0.025000X0*%
%TD*%
%TA.AperFunction,SMDPad,CuDef*%
%ADD17RoundRect,0.100000X0.025000X0.200000X-0.025000X0.200000X-0.025000X-0.200000X0.025000X-0.200000X0*%
%TD*%
%TA.AperFunction,SMDPad,CuDef*%
%ADD18RoundRect,0.054000X-0.126000X0.126000X-0.126000X-0.126000X0.126000X-0.126000X0.126000X0.126000X0*%
%TD*%
%TA.AperFunction,SMDPad,CuDef*%
%ADD19RoundRect,0.075000X0.175000X0.225000X-0.175000X0.225000X-0.175000X-0.225000X0.175000X-0.225000X0*%
%TD*%
%TA.AperFunction,SMDPad,CuDef*%
%ADD20RoundRect,0.090000X0.210000X0.210000X-0.210000X0.210000X-0.210000X-0.210000X0.210000X-0.210000X0*%
%TD*%
%TA.AperFunction,SMDPad,CuDef*%
%ADD21RoundRect,0.054000X0.126000X-0.126000X0.126000X0.126000X-0.126000X0.126000X-0.126000X-0.126000X0*%
%TD*%
%TA.AperFunction,SMDPad,CuDef*%
%ADD22R,0.800000X1.600000*%
%TD*%
%TA.AperFunction,SMDPad,CuDef*%
%ADD23R,2.100000X3.000000*%
%TD*%
%TA.AperFunction,SMDPad,CuDef*%
%ADD24RoundRect,0.075000X-0.175000X0.175000X-0.175000X-0.175000X0.175000X-0.175000X0.175000X0.175000X0*%
%TD*%
%TA.AperFunction,SMDPad,CuDef*%
%ADD25R,1.000000X0.500000*%
%TD*%
%TA.AperFunction,SMDPad,CuDef*%
%ADD26R,0.450000X0.450000*%
%TD*%
%TA.AperFunction,SMDPad,CuDef*%
%ADD27R,1.150000X2.850000*%
%TD*%
%TA.AperFunction,SMDPad,CuDef*%
%ADD28RoundRect,0.090000X0.210000X-0.210000X0.210000X0.210000X-0.210000X0.210000X-0.210000X-0.210000X0*%
%TD*%
%TA.AperFunction,SMDPad,CuDef*%
%ADD29RoundRect,0.063000X0.152000X0.147000X-0.152000X0.147000X-0.152000X-0.147000X0.152000X-0.147000X0*%
%TD*%
%TA.AperFunction,SMDPad,CuDef*%
%ADD30RoundRect,0.063000X-0.167000X-0.147000X0.167000X-0.147000X0.167000X0.147000X-0.167000X0.147000X0*%
%TD*%
%TA.AperFunction,SMDPad,CuDef*%
%ADD31RoundRect,0.093750X-0.093750X-0.106250X0.093750X-0.106250X0.093750X0.106250X-0.093750X0.106250X0*%
%TD*%
%TA.AperFunction,HeatsinkPad*%
%ADD32R,1.000000X1.600000*%
%TD*%
%TA.AperFunction,ViaPad*%
%ADD33C,5.000000*%
%TD*%
%TA.AperFunction,Conductor*%
%ADD34C,0.300000*%
%TD*%
%TA.AperFunction,Conductor*%
%ADD35C,0.500000*%
%TD*%
%TA.AperFunction,Conductor*%
%ADD36C,0.150000*%
%TD*%
%TA.AperFunction,Conductor*%
%ADD37C,0.100000*%
%TD*%
%TA.AperFunction,Conductor*%
%ADD38C,0.200000*%
%TD*%
%TA.AperFunction,Conductor*%
%ADD39C,0.450000*%
%TD*%
%TA.AperFunction,Conductor*%
%ADD40C,0.420000*%
%TD*%
G04 APERTURE END LIST*
D10*
%TO.P,Q3,1,B*%
%TO.N,/Base_{R}*%
X106050000Y-64400000D03*
%TO.P,Q3,2,E*%
%TO.N,/+V_{OUT_{SW}}*%
X106050000Y-65150000D03*
%TO.P,Q3,3,C*%
%TO.N,/Gate_{R}*%
X106950000Y-64775000D03*
%TD*%
D11*
%TO.P,R21,1*%
%TO.N,/Red3*%
X113820000Y-62000000D03*
%TO.P,R21,2*%
%TO.N,GND*%
X114380000Y-62000000D03*
%TD*%
D12*
%TO.P,D8,1,A1*%
%TO.N,/D_{OUT}*%
X108200000Y-73100000D03*
%TO.P,D8,2,A2*%
%TO.N,GND*%
X109000000Y-73100000D03*
%TD*%
D13*
%TO.P,R11,1*%
%TO.N,/OUTG*%
X107100000Y-66150000D03*
%TO.P,R11,2*%
%TO.N,/Gate_{G}*%
X107100000Y-67200000D03*
%TD*%
%TO.P,R14,1*%
%TO.N,/OUTB*%
X106700000Y-68350000D03*
%TO.P,R14,2*%
%TO.N,/Gate_{B}*%
X106700000Y-69400000D03*
%TD*%
D11*
%TO.P,R20,1*%
%TO.N,/Red3*%
X113820000Y-61400000D03*
%TO.P,R20,2*%
%TO.N,GND*%
X114380000Y-61400000D03*
%TD*%
D14*
%TO.P,C3,1*%
%TO.N,V_{OUT}*%
X109300000Y-69500000D03*
%TO.P,C3,2*%
%TO.N,GND*%
X109300000Y-70700000D03*
%TD*%
D10*
%TO.P,Q7,1,B*%
%TO.N,/Base_{B}*%
X104850000Y-68800000D03*
%TO.P,Q7,2,E*%
%TO.N,/+V_{OUT_{SW}}*%
X104850000Y-69550000D03*
%TO.P,Q7,3,C*%
%TO.N,/Gate_{B}*%
X105750000Y-69175000D03*
%TD*%
D15*
%TO.P,R1,1*%
%TO.N,GND*%
X102325000Y-73100000D03*
%TO.P,R1,2*%
%TO.N,/SRH*%
X103375000Y-73100000D03*
%TD*%
D14*
%TO.P,C2,1*%
%TO.N,+12V*%
X113400000Y-69450000D03*
%TO.P,C2,2*%
%TO.N,GND*%
X113400000Y-70650000D03*
%TD*%
D16*
%TO.P,Q8,1,G*%
%TO.N,/Gate_{W}*%
X101600000Y-71800000D03*
%TO.P,Q8,2,S*%
%TO.N,/Source_{W}*%
X101600000Y-71450000D03*
D17*
%TO.P,Q8,3,D*%
%TO.N,/White0*%
X101200000Y-71625000D03*
%TD*%
D18*
%TO.P,R13,1*%
%TO.N,/Base_{B}*%
X102000000Y-68020000D03*
%TO.P,R13,2*%
%TO.N,/Source_{B}*%
X102000000Y-68580000D03*
%TD*%
%TO.P,R16,1*%
%TO.N,/Base_{W}*%
X101600000Y-70220000D03*
%TO.P,R16,2*%
%TO.N,/Source_{W}*%
X101600000Y-70780000D03*
%TD*%
D19*
%TO.P,D7,1,A1*%
%TO.N,/D_{IN}*%
X110750000Y-73100000D03*
%TO.P,D7,2,A2*%
%TO.N,GND*%
X109950000Y-73100000D03*
%TD*%
D20*
%TO.P,R2,1*%
%TO.N,/V_{DD}*%
X110400000Y-68300000D03*
%TO.P,R2,2*%
%TO.N,V_{OUT}*%
X109350000Y-68300000D03*
%TD*%
D11*
%TO.P,R18,1*%
%TO.N,/Red3*%
X113820000Y-60200000D03*
%TO.P,R18,2*%
%TO.N,GND*%
X114380000Y-60200000D03*
%TD*%
D21*
%TO.P,R4,1*%
%TO.N,/FB*%
X108400000Y-69880000D03*
%TO.P,R4,2*%
%TO.N,V_{OUT}*%
X108400000Y-69320000D03*
%TD*%
D22*
%TO.P,CN1,1,Pin_1*%
%TO.N,/SRH*%
X104475000Y-75000000D03*
%TO.P,CN1,2,Pin_2*%
%TO.N,GND*%
X105725000Y-75000000D03*
%TO.P,CN1,3,Pin_3*%
%TO.N,+12V*%
X106975000Y-75000000D03*
%TO.P,CN1,4,Pin_4*%
%TO.N,/D_{OUT}*%
X108225000Y-75000000D03*
%TO.P,CN1,5,Pin_4*%
%TO.N,GND*%
X109475000Y-75000000D03*
%TO.P,CN1,6,Pin_4*%
%TO.N,/D_{IN}*%
X110725000Y-75000000D03*
D23*
%TO.P,CN1,MP,MountPin*%
%TO.N,GND*%
X101925000Y-77900000D03*
X113275000Y-77900000D03*
%TD*%
D24*
%TO.P,TH4,1*%
%TO.N,/Base_{W}*%
X103550000Y-70750000D03*
%TO.P,TH4,2*%
%TO.N,/+V_{OUT_{SW}}*%
X103550000Y-71650000D03*
%TD*%
D25*
%TO.P,U1,1,OUTR*%
%TO.N,/OUTR*%
X109500000Y-64325000D03*
%TO.P,U1,2,OUTG*%
%TO.N,/OUTG*%
X109500000Y-65125000D03*
%TO.P,U1,3,OUTB*%
%TO.N,/OUTB*%
X109500000Y-65925000D03*
%TO.P,U1,4,GND*%
%TO.N,GND*%
X109500000Y-66725000D03*
%TO.P,U1,5,D_{OUT}*%
%TO.N,/DOUT*%
X112100000Y-66725000D03*
%TO.P,U1,6,D_{IN}*%
%TO.N,/D_{IN}*%
X112100000Y-65925000D03*
%TO.P,U1,7,V_{DD}*%
%TO.N,/V_{DD}*%
X112100000Y-65125000D03*
%TO.P,U1,8,OUTW*%
%TO.N,/OUTW*%
X112100000Y-64325000D03*
%TD*%
D16*
%TO.P,Q4,1,G*%
%TO.N,/Gate_{G}*%
X102400000Y-67400000D03*
%TO.P,Q4,2,S*%
%TO.N,/Source_{G}*%
X102400000Y-67050000D03*
D17*
%TO.P,Q4,3,D*%
%TO.N,/Green0*%
X102000000Y-67225000D03*
%TD*%
D26*
%TO.P,LED1,1,Red_A*%
%TO.N,/Red0*%
X102800000Y-62800000D03*
%TO.P,LED1,2,Green_A*%
%TO.N,/Green0*%
X102800000Y-62000000D03*
%TO.P,LED1,3,Blue_A*%
%TO.N,/Blue0*%
X102800000Y-61200000D03*
%TO.P,LED1,4,White_A*%
%TO.N,/White0*%
X102800000Y-60400000D03*
%TO.P,LED1,5,White_K*%
%TO.N,/White1*%
X105200000Y-60400000D03*
%TO.P,LED1,6,Blue_K*%
%TO.N,/Blue1*%
X105200000Y-61200000D03*
%TO.P,LED1,7,Green_K*%
%TO.N,/Green1*%
X105200000Y-62000000D03*
%TO.P,LED1,8,Red_K*%
%TO.N,/Red1*%
X105200000Y-62800000D03*
D27*
%TO.P,LED1,9,EP*%
%TO.N,GND*%
X104000000Y-61600000D03*
%TD*%
D16*
%TO.P,Q6,1,G*%
%TO.N,/Gate_{B}*%
X102000000Y-69600000D03*
%TO.P,Q6,2,S*%
%TO.N,/Source_{B}*%
X102000000Y-69250000D03*
D17*
%TO.P,Q6,3,D*%
%TO.N,/Blue0*%
X101600000Y-69425000D03*
%TD*%
D11*
%TO.P,R25,1*%
%TO.N,/Red3*%
X113820000Y-64400000D03*
%TO.P,R25,2*%
%TO.N,GND*%
X114380000Y-64400000D03*
%TD*%
D13*
%TO.P,R17,1*%
%TO.N,/OUTW*%
X106300000Y-70550000D03*
%TO.P,R17,2*%
%TO.N,/Gate_{W}*%
X106300000Y-71600000D03*
%TD*%
D26*
%TO.P,LED3,1,Red_A*%
%TO.N,/Red2*%
X110000000Y-62800000D03*
%TO.P,LED3,2,Green_A*%
%TO.N,/Green2*%
X110000000Y-62000000D03*
%TO.P,LED3,3,Blue_A*%
%TO.N,/Blue2*%
X110000000Y-61200000D03*
%TO.P,LED3,4,White_A*%
%TO.N,/White2*%
X110000000Y-60400000D03*
%TO.P,LED3,5,White_K*%
%TO.N,GND*%
X112400000Y-60400000D03*
%TO.P,LED3,6,Blue_K*%
X112400000Y-61200000D03*
%TO.P,LED3,7,Green_K*%
X112400000Y-62000000D03*
%TO.P,LED3,8,Red_K*%
%TO.N,/Red3*%
X112400000Y-62800000D03*
D27*
%TO.P,LED3,9,EP*%
%TO.N,GND*%
X111200000Y-61600000D03*
%TD*%
D28*
%TO.P,R12,1*%
%TO.N,/+V_{OUT_{SW}}*%
X102900000Y-69400000D03*
%TO.P,R12,2*%
%TO.N,/Source_{B}*%
X102900000Y-68350000D03*
%TD*%
D11*
%TO.P,R22,1*%
%TO.N,/Red3*%
X113820000Y-62600000D03*
%TO.P,R22,2*%
%TO.N,GND*%
X114380000Y-62600000D03*
%TD*%
D24*
%TO.P,TH2,1*%
%TO.N,/Base_{G}*%
X104350000Y-66350000D03*
%TO.P,TH2,2*%
%TO.N,/+V_{OUT_{SW}}*%
X104350000Y-67250000D03*
%TD*%
D11*
%TO.P,R19,1*%
%TO.N,/Red3*%
X113820000Y-60800000D03*
%TO.P,R19,2*%
%TO.N,GND*%
X114380000Y-60800000D03*
%TD*%
D21*
%TO.P,R5,1*%
%TO.N,GND*%
X108400000Y-70880000D03*
%TO.P,R5,2*%
%TO.N,/FB*%
X108400000Y-70320000D03*
%TD*%
D11*
%TO.P,R24,1*%
%TO.N,/Red3*%
X113820000Y-63800000D03*
%TO.P,R24,2*%
%TO.N,GND*%
X114380000Y-63800000D03*
%TD*%
D29*
%TO.P,R3,1*%
%TO.N,/D_{OUT}*%
X113950000Y-66725000D03*
%TO.P,R3,2*%
%TO.N,/DOUT*%
X113250000Y-66725000D03*
%TD*%
D12*
%TO.P,D9,1,K*%
%TO.N,/SRH*%
X104450000Y-73100000D03*
%TO.P,D9,2,A*%
%TO.N,GND*%
X105250000Y-73100000D03*
%TD*%
D19*
%TO.P,D6,1,K*%
%TO.N,+12V*%
X107000000Y-73100000D03*
%TO.P,D6,2,A*%
%TO.N,GND*%
X106200000Y-73100000D03*
%TD*%
D11*
%TO.P,R23,1*%
%TO.N,/Red3*%
X113820000Y-63200000D03*
%TO.P,R23,2*%
%TO.N,GND*%
X114380000Y-63200000D03*
%TD*%
D16*
%TO.P,Q2,1,G*%
%TO.N,/Gate_{R}*%
X103200000Y-65200000D03*
%TO.P,Q2,2,S*%
%TO.N,/Source_{R}*%
X103200000Y-64850000D03*
D17*
%TO.P,Q2,3,D*%
%TO.N,/Red0*%
X102800000Y-65025000D03*
%TD*%
D10*
%TO.P,Q5,1,B*%
%TO.N,/Base_{G}*%
X105250000Y-66600000D03*
%TO.P,Q5,2,E*%
%TO.N,/+V_{OUT_{SW}}*%
X105250000Y-67350000D03*
%TO.P,Q5,3,C*%
%TO.N,/Gate_{G}*%
X106150000Y-66975000D03*
%TD*%
D24*
%TO.P,TH3,1*%
%TO.N,/Base_{B}*%
X103950000Y-68550000D03*
%TO.P,TH3,2*%
%TO.N,/+V_{OUT_{SW}}*%
X103950000Y-69450000D03*
%TD*%
D10*
%TO.P,Q9,1,B*%
%TO.N,/Base_{W}*%
X104450000Y-71000000D03*
%TO.P,Q9,2,E*%
%TO.N,/+V_{OUT_{SW}}*%
X104450000Y-71750000D03*
%TO.P,Q9,3,C*%
%TO.N,/Gate_{W}*%
X105350000Y-71375000D03*
%TD*%
D18*
%TO.P,R7,1*%
%TO.N,/Base_{R}*%
X103200000Y-63620000D03*
%TO.P,R7,2*%
%TO.N,/Source_{R}*%
X103200000Y-64180000D03*
%TD*%
D26*
%TO.P,LED2,1,Red_A*%
%TO.N,/Red1*%
X106400000Y-62800000D03*
%TO.P,LED2,2,Green_A*%
%TO.N,/Green1*%
X106400000Y-62000000D03*
%TO.P,LED2,3,Blue_A*%
%TO.N,/Blue1*%
X106400000Y-61200000D03*
%TO.P,LED2,4,White_A*%
%TO.N,/White1*%
X106400000Y-60400000D03*
%TO.P,LED2,5,White_K*%
%TO.N,/White2*%
X108800000Y-60400000D03*
%TO.P,LED2,6,Blue_K*%
%TO.N,/Blue2*%
X108800000Y-61200000D03*
%TO.P,LED2,7,Green_K*%
%TO.N,/Green2*%
X108800000Y-62000000D03*
%TO.P,LED2,8,Red_K*%
%TO.N,/Red2*%
X108800000Y-62800000D03*
D27*
%TO.P,LED2,9,EP*%
%TO.N,GND*%
X107600000Y-61600000D03*
%TD*%
D24*
%TO.P,TH1,1*%
%TO.N,/Base_{R}*%
X105150000Y-64150000D03*
%TO.P,TH1,2*%
%TO.N,/+V_{OUT_{SW}}*%
X105150000Y-65050000D03*
%TD*%
D16*
%TO.P,Q1,1,G*%
%TO.N,/SRH*%
X107600000Y-71250000D03*
%TO.P,Q1,2,S*%
%TO.N,V_{OUT}*%
X107600000Y-70900000D03*
D17*
%TO.P,Q1,3,D*%
%TO.N,/+V_{OUT_{SW}}*%
X107200000Y-71075000D03*
%TD*%
D28*
%TO.P,R9,1*%
%TO.N,/+V_{OUT_{SW}}*%
X103300000Y-67200000D03*
%TO.P,R9,2*%
%TO.N,/Source_{G}*%
X103300000Y-66150000D03*
%TD*%
%TO.P,R15,1*%
%TO.N,/+V_{OUT_{SW}}*%
X102500000Y-71600000D03*
%TO.P,R15,2*%
%TO.N,/Source_{W}*%
X102500000Y-70550000D03*
%TD*%
%TO.P,R6,1*%
%TO.N,/+V_{OUT_{SW}}*%
X104100000Y-65000000D03*
%TO.P,R6,2*%
%TO.N,/Source_{R}*%
X104100000Y-63950000D03*
%TD*%
D30*
%TO.P,C1,1*%
%TO.N,/V_{DD}*%
X113770000Y-65125000D03*
%TO.P,C1,2*%
%TO.N,GND*%
X114430000Y-65125000D03*
%TD*%
D31*
%TO.P,U2,1,OUT*%
%TO.N,V_{OUT}*%
X110562500Y-69450000D03*
%TO.P,U2,2,FB*%
%TO.N,/FB*%
X110562500Y-70100000D03*
%TO.P,U2,3,GND*%
%TO.N,GND*%
X110562500Y-70750000D03*
%TO.P,U2,4,EN*%
%TO.N,unconnected-(U2-EN-Pad4)*%
X112337500Y-70750000D03*
%TO.P,U2,5,GND*%
%TO.N,GND*%
X112337500Y-70100000D03*
%TO.P,U2,6,IN*%
%TO.N,+12V*%
X112337500Y-69450000D03*
D32*
%TO.P,U2,7,PAD*%
%TO.N,GND*%
X111450000Y-70100000D03*
%TD*%
D13*
%TO.P,R8,1*%
%TO.N,/OUTR*%
X107900000Y-63950000D03*
%TO.P,R8,2*%
%TO.N,/Gate_{R}*%
X107900000Y-65000000D03*
%TD*%
D18*
%TO.P,R10,1*%
%TO.N,/Base_{G}*%
X102400000Y-65820000D03*
%TO.P,R10,2*%
%TO.N,/Source_{G}*%
X102400000Y-66380000D03*
%TD*%
D33*
%TO.N,GND*%
X107600000Y-88800000D03*
%TD*%
D34*
%TO.N,+12V*%
X113750000Y-69450000D02*
X113400000Y-69450000D01*
X108300000Y-71800000D02*
X113738966Y-71800000D01*
X107000000Y-73100000D02*
X108300000Y-71800000D01*
X114124000Y-71414966D02*
X114124000Y-69824000D01*
D35*
X107000000Y-73100000D02*
X107000000Y-74975000D01*
D34*
X113738966Y-71800000D02*
X114124000Y-71414966D01*
X114124000Y-69824000D02*
X113750000Y-69450000D01*
D36*
%TO.N,/D_{OUT}*%
X114225000Y-66725000D02*
X114450000Y-66950000D01*
D35*
X108200000Y-73100000D02*
X108200000Y-74975000D01*
D36*
X114450000Y-66950000D02*
X114450000Y-71550000D01*
X108575000Y-72150000D02*
X108225000Y-72500000D01*
X114450000Y-71550000D02*
X113850000Y-72150000D01*
X113850000Y-72150000D02*
X108575000Y-72150000D01*
X113880000Y-66725000D02*
X114225000Y-66725000D01*
X108225000Y-72500000D02*
X108225000Y-73100000D01*
D37*
%TO.N,/SRH*%
X106850000Y-72300000D02*
X104600000Y-72300000D01*
D35*
X104450000Y-73100000D02*
X104450000Y-74975000D01*
D37*
X107600000Y-71550000D02*
X106850000Y-72300000D01*
X104600000Y-72300000D02*
X104450000Y-72450000D01*
D38*
X104425000Y-73125000D02*
X104450000Y-73100000D01*
D37*
X104450000Y-72450000D02*
X104450000Y-73100000D01*
X107600000Y-71250000D02*
X107600000Y-71550000D01*
D35*
X104450000Y-73100000D02*
X103375000Y-73100000D01*
D36*
%TO.N,/D_{IN}*%
X110725000Y-73075000D02*
X110725000Y-73100000D01*
X113925000Y-73100000D02*
X110750000Y-73100000D01*
D35*
X110750000Y-73100000D02*
X110750000Y-74975000D01*
D36*
X114900000Y-72125000D02*
X113925000Y-73100000D01*
X114900000Y-66400000D02*
X114900000Y-72125000D01*
X114425000Y-65925000D02*
X114900000Y-66400000D01*
X112100000Y-65925000D02*
X114425000Y-65925000D01*
D38*
%TO.N,/OUTR*%
X109500000Y-64325000D02*
X108275000Y-64325000D01*
X108275000Y-64325000D02*
X107900000Y-63950000D01*
%TO.N,/OUTG*%
X108675000Y-65125000D02*
X109500000Y-65125000D01*
X107100000Y-66150000D02*
X107650000Y-66150000D01*
X107650000Y-66150000D02*
X108675000Y-65125000D01*
%TO.N,/OUTB*%
X106700000Y-68350000D02*
X107650000Y-68350000D01*
X108425000Y-65925000D02*
X109500000Y-65925000D01*
X108000000Y-68000000D02*
X108000000Y-66350000D01*
X107650000Y-68350000D02*
X108000000Y-68000000D01*
X108000000Y-66350000D02*
X108425000Y-65925000D01*
%TO.N,/OUTW*%
X108300000Y-67525000D02*
X108300000Y-68125678D01*
X110900000Y-64600000D02*
X110900000Y-66600000D01*
X107600000Y-70300000D02*
X107350000Y-70550000D01*
X110300000Y-67200000D02*
X108625000Y-67200000D01*
X111175000Y-64325000D02*
X110900000Y-64600000D01*
X108625000Y-67200000D02*
X108300000Y-67525000D01*
X112100000Y-64325000D02*
X111175000Y-64325000D01*
X107350000Y-70550000D02*
X106300000Y-70550000D01*
X107600000Y-68825678D02*
X107600000Y-70300000D01*
X110900000Y-66600000D02*
X110300000Y-67200000D01*
X108300000Y-68125678D02*
X107600000Y-68825678D01*
%TO.N,/Green0*%
X102000000Y-62300000D02*
X102000000Y-67225000D01*
X102300000Y-62000000D02*
X102000000Y-62300000D01*
X102800000Y-62000000D02*
X102300000Y-62000000D01*
D39*
%TO.N,/White1*%
X105200000Y-60400000D02*
X106400000Y-60400000D01*
D38*
%TO.N,/Blue0*%
X102137261Y-61200000D02*
X101600000Y-61737261D01*
X102800000Y-61200000D02*
X102137261Y-61200000D01*
X101600000Y-61737261D02*
X101600000Y-69425000D01*
D39*
%TO.N,/Green1*%
X105200000Y-62000000D02*
X106400000Y-62000000D01*
D38*
%TO.N,/Red0*%
X102800000Y-62800000D02*
X102800000Y-65025000D01*
D39*
%TO.N,/Red1*%
X105200000Y-62800000D02*
X106400000Y-62800000D01*
D38*
%TO.N,/White0*%
X102798164Y-60398164D02*
X102800000Y-60400000D01*
X102800000Y-60400000D02*
X101807110Y-60400000D01*
X101200000Y-61007110D02*
X101200000Y-71625000D01*
X101807110Y-60400000D02*
X101200000Y-61007110D01*
D39*
%TO.N,/Blue1*%
X105200000Y-61200000D02*
X106400000Y-61200000D01*
%TO.N,/Green2*%
X108800000Y-62000000D02*
X110000000Y-62000000D01*
%TO.N,/Red2*%
X108800000Y-62800000D02*
X110000000Y-62800000D01*
%TO.N,/Blue2*%
X108800000Y-61200000D02*
X110000000Y-61200000D01*
%TO.N,/White2*%
X108800000Y-60400000D02*
X110000000Y-60400000D01*
D38*
%TO.N,/V_{DD}*%
X111575000Y-65125000D02*
X111200000Y-65500000D01*
D40*
X113770000Y-65125000D02*
X112100000Y-65125000D01*
D38*
X111200000Y-66725678D02*
X110400000Y-67525678D01*
X110400000Y-67525678D02*
X110400000Y-68300000D01*
X111200000Y-65500000D02*
X111200000Y-66725678D01*
X112100000Y-65125000D02*
X111575000Y-65125000D01*
%TO.N,/+V_{OUT_{SW}}*%
X104300000Y-67200000D02*
X104350000Y-67250000D01*
X104450000Y-67350000D02*
X104350000Y-67250000D01*
X103900000Y-69400000D02*
X103950000Y-69450000D01*
X104050000Y-69550000D02*
X104850000Y-69550000D01*
X105250000Y-67350000D02*
X104450000Y-67350000D01*
X102500000Y-71600000D02*
X103500000Y-71600000D01*
X103950000Y-69450000D02*
X104050000Y-69550000D01*
X103300000Y-67200000D02*
X104300000Y-67200000D01*
X103550000Y-71650000D02*
X103650000Y-71750000D01*
X102900000Y-69400000D02*
X103900000Y-69400000D01*
X103650000Y-71750000D02*
X104450000Y-71750000D01*
X103500000Y-71600000D02*
X103550000Y-71650000D01*
%TO.N,/Source_{R}*%
X103200000Y-64850000D02*
X103200000Y-64180000D01*
X104100000Y-63950000D02*
X103800001Y-63950000D01*
X103800001Y-63950000D02*
X103570001Y-64180000D01*
X103570001Y-64180000D02*
X103200000Y-64180000D01*
%TO.N,/Gate_{R}*%
X104857598Y-64600000D02*
X104732598Y-64475000D01*
X107175000Y-65000000D02*
X106950000Y-64775000D01*
X105795040Y-64775000D02*
X105620040Y-64600000D01*
X105620040Y-64600000D02*
X104857598Y-64600000D01*
X107900000Y-65000000D02*
X107175000Y-65000000D01*
X103600000Y-65025000D02*
X103425000Y-65200000D01*
X106950000Y-64775000D02*
X105795040Y-64775000D01*
X103425000Y-65200000D02*
X103200000Y-65200000D01*
X104732598Y-64475000D02*
X103790970Y-64475000D01*
X103790970Y-64475000D02*
X103600000Y-64665970D01*
X103600000Y-64665970D02*
X103600000Y-65025000D01*
%TO.N,/Source_{G}*%
X103000001Y-66150000D02*
X102770001Y-66380000D01*
X103300000Y-66150000D02*
X103000001Y-66150000D01*
X102400000Y-67050000D02*
X102400000Y-66380000D01*
X102770001Y-66380000D02*
X102400000Y-66380000D01*
%TO.N,/Gate_{G}*%
X102990970Y-66675000D02*
X102800000Y-66865970D01*
X104995040Y-66975000D02*
X106150000Y-66975000D01*
X102800000Y-67225000D02*
X102625000Y-67400000D01*
X104820040Y-66800000D02*
X104995040Y-66975000D01*
X102800000Y-66865970D02*
X102800000Y-67225000D01*
X103932598Y-66675000D02*
X102990970Y-66675000D01*
X107100000Y-67200000D02*
X106375000Y-67200000D01*
X104057598Y-66800000D02*
X104820040Y-66800000D01*
X106375000Y-67200000D02*
X106150000Y-66975000D01*
X103932598Y-66675000D02*
X104057598Y-66800000D01*
X102625000Y-67400000D02*
X102400000Y-67400000D01*
D36*
%TO.N,/FB*%
X110562500Y-70100000D02*
X108620000Y-70100000D01*
X108620000Y-70100000D02*
X108400000Y-70320000D01*
X108620000Y-70100000D02*
X108400000Y-69880000D01*
D38*
%TO.N,/Source_{B}*%
X102000000Y-69250000D02*
X102000000Y-68580000D01*
X102600001Y-68350000D02*
X102370001Y-68580000D01*
X102370001Y-68580000D02*
X102000000Y-68580000D01*
X102900000Y-68350000D02*
X102600001Y-68350000D01*
%TO.N,/Gate_{B}*%
X104595040Y-69175000D02*
X105750000Y-69175000D01*
X102590970Y-68875000D02*
X102400000Y-69065970D01*
X105975000Y-69400000D02*
X105750000Y-69175000D01*
X103532598Y-68875000D02*
X103657598Y-69000000D01*
X102400000Y-69065970D02*
X102400000Y-69425000D01*
X104420040Y-69000000D02*
X104595040Y-69175000D01*
X102400000Y-69425000D02*
X102225000Y-69600000D01*
X103657598Y-69000000D02*
X104420040Y-69000000D01*
X103532598Y-68875000D02*
X102590970Y-68875000D01*
X102225000Y-69600000D02*
X102000000Y-69600000D01*
X106700000Y-69400000D02*
X105975000Y-69400000D01*
%TO.N,/Gate_{W}*%
X104020040Y-71200000D02*
X104195040Y-71375000D01*
X103132598Y-71075000D02*
X102190970Y-71075000D01*
X101825000Y-71800000D02*
X101600000Y-71800000D01*
X102000000Y-71265970D02*
X102000000Y-71625000D01*
X103132598Y-71075000D02*
X103257598Y-71200000D01*
X102190970Y-71075000D02*
X102000000Y-71265970D01*
X106300000Y-71600000D02*
X105575000Y-71600000D01*
X104195040Y-71375000D02*
X105350000Y-71375000D01*
X105575000Y-71600000D02*
X105350000Y-71375000D01*
X102000000Y-71625000D02*
X101825000Y-71800000D01*
X103257598Y-71200000D02*
X104020040Y-71200000D01*
D40*
%TO.N,/DOUT*%
X112100000Y-66725000D02*
X113250000Y-66725000D01*
D38*
%TO.N,/Source_{W}*%
X102200001Y-70550000D02*
X101970001Y-70780000D01*
X101970001Y-70780000D02*
X101600000Y-70780000D01*
X101600000Y-71450000D02*
X101600000Y-70780000D01*
X102500000Y-70550000D02*
X102200001Y-70550000D01*
%TO.N,/Base_{R}*%
X103200000Y-63620000D02*
X103371000Y-63449000D01*
X103371000Y-63449000D02*
X104974000Y-63449000D01*
X105150000Y-64150000D02*
X105800000Y-64150000D01*
X104974000Y-63449000D02*
X105150000Y-63625000D01*
X105800000Y-64150000D02*
X106050000Y-64400000D01*
X105150000Y-63625000D02*
X105150000Y-64150000D01*
%TO.N,/Base_{G}*%
X102571000Y-65649000D02*
X104174000Y-65649000D01*
X104350000Y-66350000D02*
X105000000Y-66350000D01*
X104174000Y-65649000D02*
X104350000Y-65825000D01*
X102400000Y-65820000D02*
X102571000Y-65649000D01*
X104350000Y-65825000D02*
X104350000Y-66350000D01*
X105000000Y-66350000D02*
X105250000Y-66600000D01*
%TO.N,/Base_{B}*%
X103950000Y-68025000D02*
X103950000Y-68550000D01*
X103950000Y-68550000D02*
X104600000Y-68550000D01*
X102000000Y-68020000D02*
X102171000Y-67849000D01*
X104600000Y-68550000D02*
X104850000Y-68800000D01*
X102171000Y-67849000D02*
X103774000Y-67849000D01*
X103774000Y-67849000D02*
X103950000Y-68025000D01*
%TO.N,/Base_{W}*%
X104200000Y-70750000D02*
X104450000Y-71000000D01*
X103550000Y-70750000D02*
X104200000Y-70750000D01*
X101600000Y-70220000D02*
X101771000Y-70049000D01*
X103550000Y-70225000D02*
X103550000Y-70750000D01*
X103374000Y-70049000D02*
X103550000Y-70225000D01*
X101771000Y-70049000D02*
X103374000Y-70049000D01*
%TD*%
%TA.AperFunction,Conductor*%
%TO.N,/D_{IN}*%
G36*
X112605238Y-65703143D02*
G01*
X112844320Y-65846592D01*
X112849651Y-65853787D01*
X112850000Y-65856625D01*
X112850000Y-65993375D01*
X112846573Y-66001648D01*
X112844320Y-66003408D01*
X112605238Y-66146856D01*
X112596380Y-66148174D01*
X112594425Y-66147496D01*
X112122765Y-65935673D01*
X112116622Y-65929158D01*
X112116885Y-65920207D01*
X112122765Y-65914327D01*
X112251248Y-65856625D01*
X112594426Y-65702502D01*
X112603376Y-65702240D01*
X112605238Y-65703143D01*
G37*
%TD.AperFunction*%
%TD*%
%TA.AperFunction,Conductor*%
%TO.N,/Base_{W}*%
G36*
X104155307Y-70657799D02*
G01*
X104502828Y-70820513D01*
X104508868Y-70827125D01*
X104508907Y-70834983D01*
X104452939Y-70994472D01*
X104446966Y-71001144D01*
X104445412Y-71001758D01*
X104259348Y-71060330D01*
X104250428Y-71059546D01*
X104245465Y-71054587D01*
X104139978Y-70852543D01*
X104138650Y-70847128D01*
X104138650Y-70668396D01*
X104142077Y-70660123D01*
X104150350Y-70656696D01*
X104155307Y-70657799D01*
G37*
%TD.AperFunction*%
%TD*%
%TA.AperFunction,Conductor*%
%TO.N,/White0*%
G36*
X102581240Y-60181212D02*
G01*
X102792672Y-60391709D01*
X102796117Y-60399974D01*
X102792708Y-60408255D01*
X102792672Y-60408291D01*
X102581240Y-60618787D01*
X102572959Y-60622196D01*
X102567303Y-60620724D01*
X102563816Y-60618787D01*
X102514481Y-60591378D01*
X102356018Y-60503343D01*
X102350450Y-60496329D01*
X102350000Y-60493115D01*
X102350000Y-60306884D01*
X102353427Y-60298611D01*
X102356014Y-60296658D01*
X102567305Y-60179274D01*
X102576199Y-60178253D01*
X102581240Y-60181212D01*
G37*
%TD.AperFunction*%
%TD*%
%TA.AperFunction,Conductor*%
%TO.N,/Blue0*%
G36*
X102581240Y-60981212D02*
G01*
X102792672Y-61191709D01*
X102796117Y-61199974D01*
X102792708Y-61208255D01*
X102792672Y-61208291D01*
X102581240Y-61418787D01*
X102572959Y-61422196D01*
X102567303Y-61420724D01*
X102563816Y-61418787D01*
X102514481Y-61391378D01*
X102356018Y-61303343D01*
X102350450Y-61296329D01*
X102350000Y-61293115D01*
X102350000Y-61106884D01*
X102353427Y-61098611D01*
X102356014Y-61096658D01*
X102567305Y-60979274D01*
X102576199Y-60978253D01*
X102581240Y-60981212D01*
G37*
%TD.AperFunction*%
%TD*%
%TA.AperFunction,Conductor*%
%TO.N,/FB*%
G36*
X108476486Y-69711793D02*
G01*
X108500473Y-69714303D01*
X108509407Y-69721460D01*
X108520388Y-69724685D01*
X108536177Y-69742907D01*
X108555002Y-69757988D01*
X108563011Y-69773875D01*
X108566143Y-69777489D01*
X108567706Y-69783186D01*
X108570891Y-69789504D01*
X108575194Y-69802312D01*
X108577411Y-69822927D01*
X108588617Y-69874438D01*
X108611974Y-69921099D01*
X108617095Y-69927009D01*
X108623542Y-69946195D01*
X108630000Y-69985691D01*
X108630000Y-70376000D01*
X108610315Y-70443039D01*
X108557511Y-70488794D01*
X108506000Y-70500000D01*
X108394000Y-70500000D01*
X108326961Y-70480315D01*
X108281206Y-70427511D01*
X108270000Y-70376000D01*
X108270000Y-69829000D01*
X108289685Y-69761961D01*
X108342489Y-69716206D01*
X108394000Y-69705000D01*
X108453349Y-69705000D01*
X108476486Y-69711793D01*
G37*
%TD.AperFunction*%
%TD*%
%TA.AperFunction,Conductor*%
%TO.N,/Gate_{R}*%
G36*
X107149971Y-64705463D02*
G01*
X107154998Y-64709946D01*
X107269975Y-64897182D01*
X107271705Y-64903304D01*
X107271705Y-65082764D01*
X107268278Y-65091037D01*
X107260005Y-65094464D01*
X107255686Y-65093638D01*
X106904116Y-64954011D01*
X106897692Y-64947772D01*
X106897273Y-64939630D01*
X106910610Y-64897182D01*
X106947269Y-64780508D01*
X106953017Y-64773644D01*
X106954417Y-64773027D01*
X107141025Y-64705074D01*
X107149971Y-64705463D01*
G37*
%TD.AperFunction*%
%TD*%
%TA.AperFunction,Conductor*%
%TO.N,/Gate_{R}*%
G36*
X106784388Y-64606939D02*
G01*
X106787568Y-64609229D01*
X106849740Y-64672291D01*
X106942901Y-64766786D01*
X106946269Y-64775083D01*
X106942901Y-64783214D01*
X106787572Y-64940767D01*
X106779323Y-64944253D01*
X106775451Y-64943622D01*
X106582911Y-64877708D01*
X106576193Y-64871787D01*
X106575000Y-64866639D01*
X106575000Y-64683360D01*
X106578427Y-64675087D01*
X106582908Y-64672292D01*
X106775453Y-64606377D01*
X106784388Y-64606939D01*
G37*
%TD.AperFunction*%
%TD*%
%TA.AperFunction,Conductor*%
%TO.N,/D_{IN}*%
G36*
X111003110Y-72855548D02*
G01*
X111244921Y-73021514D01*
X111249803Y-73029021D01*
X111250000Y-73031160D01*
X111250000Y-73168839D01*
X111246573Y-73177112D01*
X111244921Y-73178485D01*
X111003110Y-73344451D01*
X110994350Y-73346308D01*
X110988150Y-73343012D01*
X110757075Y-73108206D01*
X110753715Y-73099906D01*
X110757075Y-73091794D01*
X110988151Y-72856986D01*
X110996395Y-72853494D01*
X111003110Y-72855548D01*
G37*
%TD.AperFunction*%
%TD*%
%TA.AperFunction,Conductor*%
%TO.N,GND*%
G36*
X115185148Y-59814852D02*
G01*
X115199500Y-59849500D01*
X115199500Y-94150500D01*
X115185148Y-94185148D01*
X115150500Y-94199500D01*
X100049500Y-94199500D01*
X100014852Y-94185148D01*
X100000500Y-94150500D01*
X100000500Y-82800000D01*
X101695059Y-82800000D01*
X101712801Y-83059390D01*
X101765696Y-83313939D01*
X101852770Y-83558940D01*
X101967375Y-83780116D01*
X101972381Y-83789777D01*
X102122316Y-84002185D01*
X102299777Y-84192199D01*
X102501458Y-84356279D01*
X102723603Y-84491369D01*
X102962074Y-84594951D01*
X103212428Y-84665097D01*
X103421175Y-84693788D01*
X103470001Y-84700500D01*
X103470002Y-84700500D01*
X111729999Y-84700500D01*
X111771043Y-84694858D01*
X111987572Y-84665097D01*
X112237926Y-84594951D01*
X112476397Y-84491369D01*
X112698542Y-84356279D01*
X112900223Y-84192199D01*
X113077684Y-84002185D01*
X113227619Y-83789777D01*
X113319455Y-83612540D01*
X113347229Y-83558940D01*
X113347230Y-83558935D01*
X113347233Y-83558931D01*
X113434301Y-83313947D01*
X113487198Y-83059389D01*
X113504941Y-82800000D01*
X113487198Y-82540611D01*
X113439259Y-82309911D01*
X113434303Y-82286060D01*
X113347229Y-82041059D01*
X113256098Y-81865186D01*
X113227619Y-81810223D01*
X113077684Y-81597815D01*
X112900223Y-81407801D01*
X112698542Y-81243721D01*
X112476397Y-81108631D01*
X112476393Y-81108629D01*
X112476391Y-81108628D01*
X112237927Y-81005049D01*
X111987574Y-80934903D01*
X111729999Y-80899500D01*
X111729998Y-80899500D01*
X111652727Y-80899500D01*
X103657583Y-80899500D01*
X103600000Y-80899500D01*
X103470002Y-80899500D01*
X103470001Y-80899500D01*
X103212425Y-80934903D01*
X102962072Y-81005049D01*
X102723608Y-81108628D01*
X102501456Y-81243722D01*
X102299785Y-81407794D01*
X102299774Y-81407804D01*
X102122320Y-81597810D01*
X102122311Y-81597821D01*
X101972385Y-81810216D01*
X101972379Y-81810226D01*
X101852770Y-82041059D01*
X101765696Y-82286060D01*
X101712801Y-82540609D01*
X101695059Y-82800000D01*
X100000500Y-82800000D01*
X100000500Y-80400000D01*
X102975000Y-80400000D01*
X103975000Y-80400000D01*
X103975000Y-80399999D01*
X111224999Y-80399999D01*
X111225000Y-80400000D01*
X112225000Y-80400000D01*
X112225000Y-78600000D01*
X112224999Y-78599999D01*
X111224999Y-78599999D01*
X111224999Y-80399999D01*
X103975000Y-80399999D01*
X103975000Y-78600000D01*
X102975000Y-78600000D01*
X102975000Y-80400000D01*
X100000500Y-80400000D01*
X100000500Y-71405252D01*
X100974500Y-71405252D01*
X100974500Y-71844748D01*
X100986133Y-71903231D01*
X101003882Y-71929795D01*
X101030447Y-71969552D01*
X101041271Y-71976784D01*
X101096769Y-72013867D01*
X101155252Y-72025500D01*
X101155255Y-72025500D01*
X101244745Y-72025500D01*
X101244748Y-72025500D01*
X101303231Y-72013867D01*
X101347778Y-71984100D01*
X101384559Y-71976784D01*
X101402219Y-71984099D01*
X101446769Y-72013867D01*
X101505252Y-72025500D01*
X101505255Y-72025500D01*
X101694745Y-72025500D01*
X101694748Y-72025500D01*
X101753231Y-72013867D01*
X101755969Y-72012037D01*
X101760878Y-72008758D01*
X101788100Y-72000500D01*
X101864880Y-72000500D01*
X101864882Y-72000500D01*
X101938574Y-71969976D01*
X102010852Y-71897698D01*
X102045500Y-71883346D01*
X102080148Y-71897698D01*
X102094500Y-71932346D01*
X102094500Y-72126005D01*
X102102528Y-72166364D01*
X102102531Y-72166375D01*
X102124204Y-72218697D01*
X102124206Y-72218702D01*
X102131719Y-72233448D01*
X102131721Y-72233451D01*
X102166202Y-72262899D01*
X102181301Y-72275795D01*
X102233627Y-72297469D01*
X102233630Y-72297469D01*
X102233635Y-72297471D01*
X102273994Y-72305499D01*
X102274000Y-72305500D01*
X104273620Y-72305500D01*
X104282623Y-72309229D01*
X104292370Y-72309229D01*
X104299263Y-72316122D01*
X104308268Y-72319852D01*
X104311997Y-72328855D01*
X104318889Y-72335747D01*
X104318889Y-72345494D01*
X104322620Y-72354500D01*
X104318891Y-72373250D01*
X104313921Y-72385250D01*
X104313920Y-72385252D01*
X104299500Y-72420062D01*
X104299500Y-72499421D01*
X104292734Y-72524267D01*
X104174529Y-72725194D01*
X104159641Y-72741007D01*
X104159415Y-72741159D01*
X104132069Y-72749500D01*
X103732482Y-72749500D01*
X103705260Y-72741242D01*
X103659330Y-72710553D01*
X103645437Y-72707789D01*
X103603762Y-72699500D01*
X103146238Y-72699500D01*
X103112897Y-72706131D01*
X103090669Y-72710553D01*
X103027656Y-72752656D01*
X102985553Y-72815669D01*
X102985553Y-72815671D01*
X102974500Y-72871238D01*
X102974500Y-73328762D01*
X102983342Y-73373215D01*
X102985553Y-73384330D01*
X103027656Y-73447343D01*
X103090669Y-73489446D01*
X103090671Y-73489447D01*
X103146238Y-73500500D01*
X103146241Y-73500500D01*
X103603759Y-73500500D01*
X103603762Y-73500500D01*
X103659329Y-73489447D01*
X103673458Y-73480006D01*
X103705260Y-73458758D01*
X103732482Y-73450500D01*
X104050500Y-73450500D01*
X104085148Y-73464852D01*
X104099500Y-73499500D01*
X104099500Y-74052445D01*
X104085148Y-74087093D01*
X104060059Y-74100503D01*
X104035787Y-74105331D01*
X104035786Y-74105331D01*
X104035784Y-74105332D01*
X104035783Y-74105332D01*
X104002543Y-74127542D01*
X103980330Y-74160786D01*
X103980330Y-74160787D01*
X103974500Y-74190095D01*
X103974500Y-74190100D01*
X103974501Y-75351000D01*
X103960149Y-75385648D01*
X103925501Y-75400000D01*
X102975000Y-75400000D01*
X102975000Y-77200000D01*
X103975000Y-77200000D01*
X103975000Y-75942284D01*
X103989352Y-75907636D01*
X104024000Y-75893284D01*
X104033560Y-75894226D01*
X104035786Y-75894668D01*
X104035787Y-75894669D01*
X104065101Y-75900500D01*
X104884898Y-75900499D01*
X104914213Y-75894669D01*
X104947457Y-75872457D01*
X104969669Y-75839213D01*
X104975500Y-75809899D01*
X104975499Y-74190102D01*
X104975498Y-74190095D01*
X106474500Y-74190095D01*
X106474500Y-75809894D01*
X106474501Y-75809898D01*
X106480331Y-75839213D01*
X106480331Y-75839214D01*
X106480332Y-75839215D01*
X106480332Y-75839216D01*
X106502542Y-75872456D01*
X106502543Y-75872457D01*
X106535787Y-75894669D01*
X106565101Y-75900500D01*
X107384898Y-75900499D01*
X107414213Y-75894669D01*
X107447457Y-75872457D01*
X107469669Y-75839213D01*
X107475500Y-75809899D01*
X107475499Y-74190102D01*
X107469669Y-74160787D01*
X107469667Y-74160784D01*
X107469667Y-74160783D01*
X107447457Y-74127543D01*
X107414213Y-74105330D01*
X107389940Y-74100502D01*
X107358758Y-74079666D01*
X107350500Y-74052444D01*
X107350500Y-73257674D01*
X107358668Y-73230587D01*
X107611315Y-72849738D01*
X107611314Y-72849738D01*
X107611319Y-72849732D01*
X107613692Y-72844680D01*
X107623392Y-72830867D01*
X107940519Y-72513740D01*
X107975166Y-72499389D01*
X108009814Y-72513741D01*
X108024166Y-72548389D01*
X108018252Y-72571725D01*
X107941945Y-72712616D01*
X107926084Y-72730021D01*
X107898471Y-72748472D01*
X107898469Y-72748474D01*
X107859681Y-72806525D01*
X107849500Y-72857710D01*
X107849500Y-74052445D01*
X107835148Y-74087093D01*
X107810059Y-74100503D01*
X107785787Y-74105331D01*
X107785786Y-74105331D01*
X107785784Y-74105332D01*
X107785783Y-74105332D01*
X107752543Y-74127542D01*
X107730330Y-74160786D01*
X107730330Y-74160787D01*
X107724500Y-74190095D01*
X107724500Y-75809894D01*
X107724501Y-75809898D01*
X107730331Y-75839213D01*
X107730331Y-75839214D01*
X107730332Y-75839215D01*
X107730332Y-75839216D01*
X107752542Y-75872456D01*
X107752543Y-75872457D01*
X107785787Y-75894669D01*
X107815101Y-75900500D01*
X108634898Y-75900499D01*
X108664213Y-75894669D01*
X108697457Y-75872457D01*
X108719669Y-75839213D01*
X108725500Y-75809899D01*
X108725499Y-74190102D01*
X108725498Y-74190095D01*
X110224500Y-74190095D01*
X110224500Y-75809894D01*
X110224501Y-75809898D01*
X110230331Y-75839213D01*
X110230331Y-75839214D01*
X110230332Y-75839215D01*
X110230332Y-75839216D01*
X110252542Y-75872456D01*
X110252543Y-75872457D01*
X110285787Y-75894669D01*
X110315101Y-75900500D01*
X111134898Y-75900499D01*
X111164213Y-75894669D01*
X111164215Y-75894667D01*
X111166441Y-75894225D01*
X111203223Y-75901543D01*
X111224058Y-75932726D01*
X111224999Y-75942284D01*
X111224999Y-77200001D01*
X112225000Y-77200001D01*
X112225000Y-75400000D01*
X111274500Y-75400000D01*
X111239852Y-75385648D01*
X111225500Y-75351000D01*
X111225499Y-74190105D01*
X111225499Y-74190102D01*
X111219669Y-74160787D01*
X111219667Y-74160784D01*
X111219667Y-74160783D01*
X111197457Y-74127543D01*
X111164213Y-74105330D01*
X111139940Y-74100502D01*
X111108758Y-74079666D01*
X111100500Y-74052444D01*
X111100500Y-73431366D01*
X111114852Y-73396718D01*
X111121772Y-73390966D01*
X111277475Y-73284100D01*
X111305203Y-73275500D01*
X113959907Y-73275500D01*
X113959909Y-73275500D01*
X114024413Y-73248782D01*
X114999411Y-72273782D01*
X114999413Y-72273782D01*
X115048782Y-72224413D01*
X115075500Y-72159909D01*
X115075500Y-66365091D01*
X115048782Y-66300587D01*
X114999413Y-66251218D01*
X114999411Y-66251217D01*
X114996620Y-66248425D01*
X114996616Y-66248422D01*
X114524415Y-65776219D01*
X114459910Y-65749500D01*
X114459909Y-65749500D01*
X112901128Y-65749500D01*
X112875918Y-65742517D01*
X112701843Y-65638072D01*
X112686311Y-65623277D01*
X112672458Y-65602544D01*
X112672457Y-65602543D01*
X112639212Y-65580330D01*
X112609901Y-65574500D01*
X111590105Y-65574500D01*
X111590104Y-65574500D01*
X111590102Y-65574501D01*
X111560787Y-65580331D01*
X111560786Y-65580331D01*
X111560784Y-65580332D01*
X111560783Y-65580332D01*
X111527543Y-65602542D01*
X111505330Y-65635786D01*
X111505330Y-65635787D01*
X111499500Y-65665095D01*
X111499500Y-66184894D01*
X111499501Y-66184898D01*
X111505331Y-66214213D01*
X111505331Y-66214214D01*
X111505332Y-66214215D01*
X111505332Y-66214216D01*
X111527542Y-66247456D01*
X111527543Y-66247457D01*
X111560787Y-66269669D01*
X111590101Y-66275500D01*
X112609898Y-66275499D01*
X112639213Y-66269669D01*
X112672457Y-66247457D01*
X112686313Y-66226717D01*
X112701842Y-66211926D01*
X112875917Y-66107482D01*
X112901127Y-66100500D01*
X114332009Y-66100500D01*
X114366657Y-66114852D01*
X114710148Y-66458342D01*
X114724500Y-66492990D01*
X114724500Y-72032009D01*
X114710148Y-72066657D01*
X113866657Y-72910148D01*
X113832009Y-72924500D01*
X111305205Y-72924500D01*
X111277477Y-72915900D01*
X111074544Y-72776617D01*
X111061531Y-72763442D01*
X111051527Y-72748471D01*
X111051525Y-72748469D01*
X110993474Y-72709681D01*
X110942289Y-72699500D01*
X110942284Y-72699500D01*
X110557716Y-72699500D01*
X110557710Y-72699500D01*
X110506525Y-72709681D01*
X110448471Y-72748471D01*
X110409681Y-72806525D01*
X110399500Y-72857710D01*
X110399500Y-74050500D01*
X110385148Y-74085148D01*
X110350501Y-74099500D01*
X110315105Y-74099500D01*
X110315104Y-74099500D01*
X110315102Y-74099501D01*
X110285787Y-74105331D01*
X110285786Y-74105331D01*
X110285784Y-74105332D01*
X110285783Y-74105332D01*
X110252543Y-74127542D01*
X110230330Y-74160786D01*
X110230330Y-74160787D01*
X110224500Y-74190095D01*
X108725498Y-74190095D01*
X108719669Y-74160787D01*
X108719667Y-74160784D01*
X108719667Y-74160783D01*
X108697457Y-74127543D01*
X108664212Y-74105330D01*
X108634904Y-74099500D01*
X108634899Y-74099500D01*
X108599500Y-74099500D01*
X108564852Y-74085148D01*
X108550500Y-74050500D01*
X108550500Y-72857716D01*
X108550499Y-72857710D01*
X108540318Y-72806525D01*
X108516768Y-72771281D01*
X108501732Y-72748777D01*
X108497497Y-72740998D01*
X108494843Y-72734859D01*
X108430635Y-72586319D01*
X108430061Y-72548821D01*
X108440965Y-72532229D01*
X108633343Y-72339852D01*
X108667991Y-72325500D01*
X113884907Y-72325500D01*
X113884909Y-72325500D01*
X113949413Y-72298782D01*
X113949415Y-72298780D01*
X113949416Y-72298780D01*
X114598780Y-71649416D01*
X114598780Y-71649415D01*
X114598782Y-71649413D01*
X114625500Y-71584909D01*
X114625500Y-71515091D01*
X114625500Y-66915091D01*
X114598782Y-66850587D01*
X114549413Y-66801218D01*
X114467020Y-66718825D01*
X114461521Y-66712270D01*
X114450131Y-66695994D01*
X114448436Y-66693571D01*
X114250743Y-66504235D01*
X114243903Y-66496081D01*
X114219877Y-66460123D01*
X114219875Y-66460122D01*
X114219875Y-66460121D01*
X114165793Y-66423986D01*
X114118105Y-66414500D01*
X114118102Y-66414500D01*
X113781898Y-66414500D01*
X113781894Y-66414500D01*
X113734206Y-66423986D01*
X113680123Y-66460122D01*
X113680122Y-66460123D01*
X113641306Y-66518218D01*
X113639421Y-66516959D01*
X113618744Y-66537630D01*
X113581241Y-66537624D01*
X113560576Y-66516959D01*
X113558694Y-66518218D01*
X113519877Y-66460123D01*
X113519876Y-66460122D01*
X113465793Y-66423986D01*
X113418105Y-66414500D01*
X113418102Y-66414500D01*
X113290878Y-66414500D01*
X112872513Y-66414500D01*
X112860093Y-66412900D01*
X112845319Y-66409028D01*
X112679317Y-66399068D01*
X112655030Y-66390899D01*
X112639214Y-66380332D01*
X112639213Y-66380331D01*
X112639212Y-66380330D01*
X112609900Y-66374500D01*
X111590105Y-66374500D01*
X111590104Y-66374500D01*
X111590102Y-66374501D01*
X111560787Y-66380331D01*
X111560786Y-66380331D01*
X111560784Y-66380332D01*
X111560783Y-66380332D01*
X111527543Y-66402542D01*
X111505330Y-66435786D01*
X111505330Y-66435787D01*
X111499500Y-66465095D01*
X111499500Y-66984894D01*
X111499501Y-66984898D01*
X111505331Y-67014213D01*
X111505331Y-67014214D01*
X111505332Y-67014215D01*
X111505332Y-67014216D01*
X111527542Y-67047456D01*
X111527543Y-67047457D01*
X111560787Y-67069669D01*
X111590101Y-67075500D01*
X112609898Y-67075499D01*
X112639213Y-67069669D01*
X112655032Y-67059098D01*
X112679315Y-67050930D01*
X112845320Y-67040970D01*
X112861775Y-67036920D01*
X112873485Y-67035500D01*
X113418102Y-67035500D01*
X113465794Y-67026013D01*
X113519877Y-66989877D01*
X113556013Y-66935794D01*
X113556012Y-66935794D01*
X113558694Y-66931782D01*
X113560579Y-66933042D01*
X113581244Y-66912374D01*
X113618747Y-66912370D01*
X113639421Y-66933040D01*
X113641306Y-66931782D01*
X113676794Y-66984895D01*
X113680123Y-66989877D01*
X113734206Y-67026013D01*
X113781898Y-67035500D01*
X114118101Y-67035500D01*
X114118102Y-67035500D01*
X114138327Y-67031476D01*
X114164048Y-67028941D01*
X114212858Y-67014127D01*
X114214453Y-67013759D01*
X114231450Y-67016594D01*
X114248592Y-67018281D01*
X114249708Y-67019641D01*
X114251445Y-67019931D01*
X114261461Y-67033957D01*
X114272388Y-67047268D01*
X114272761Y-67049781D01*
X114273239Y-67050451D01*
X114273038Y-67051651D01*
X114274500Y-67061498D01*
X114274500Y-69501943D01*
X114260148Y-69536591D01*
X114225500Y-69550943D01*
X114190852Y-69536591D01*
X113969852Y-69315591D01*
X113955500Y-69280943D01*
X113955500Y-69124002D01*
X113955500Y-69124000D01*
X113947469Y-69083626D01*
X113947468Y-69083623D01*
X113933121Y-69048986D01*
X113933116Y-69048975D01*
X113925603Y-69034230D01*
X113925602Y-69034229D01*
X113876022Y-68991883D01*
X113841374Y-68977531D01*
X113801000Y-68969500D01*
X113004990Y-68969500D01*
X112994294Y-68970044D01*
X112994288Y-68970044D01*
X112994280Y-68970045D01*
X112994253Y-68970047D01*
X112984449Y-68971046D01*
X112984423Y-68971049D01*
X112984413Y-68971051D01*
X112977704Y-68972080D01*
X112973820Y-68972676D01*
X112167856Y-69138609D01*
X112167839Y-69138614D01*
X112139081Y-69149067D01*
X112114301Y-69162419D01*
X112109228Y-69165337D01*
X112091544Y-69186043D01*
X112066883Y-69214917D01*
X112052531Y-69249565D01*
X112045718Y-69283819D01*
X112044500Y-69289941D01*
X112044500Y-69610058D01*
X112048940Y-69640347D01*
X112048942Y-69640355D01*
X112057019Y-69667304D01*
X112058854Y-69672859D01*
X112098875Y-69724331D01*
X112098878Y-69724334D01*
X112129920Y-69745378D01*
X112167845Y-69761386D01*
X112167846Y-69761386D01*
X112167848Y-69761387D01*
X112973820Y-69927323D01*
X112973835Y-69927326D01*
X112984413Y-69928949D01*
X112984442Y-69928952D01*
X112984449Y-69928953D01*
X112994253Y-69929952D01*
X112994259Y-69929952D01*
X112994294Y-69929956D01*
X113004990Y-69930500D01*
X113005005Y-69930500D01*
X113801000Y-69930500D01*
X113814939Y-69927727D01*
X113851722Y-69935042D01*
X113872558Y-69966224D01*
X113873500Y-69975785D01*
X113873500Y-71290909D01*
X113859148Y-71325557D01*
X113649557Y-71535148D01*
X113614909Y-71549500D01*
X108355537Y-71549500D01*
X108355529Y-71549499D01*
X108349828Y-71549499D01*
X108250173Y-71549499D01*
X108250171Y-71549499D01*
X108205984Y-71567803D01*
X108176693Y-71579936D01*
X108158101Y-71587637D01*
X108158100Y-71587637D01*
X108087636Y-71658103D01*
X108087635Y-71658104D01*
X107270474Y-72475264D01*
X107255237Y-72485061D01*
X107255387Y-72485367D01*
X107253224Y-72486425D01*
X106920228Y-72692184D01*
X106894471Y-72699500D01*
X106807710Y-72699500D01*
X106756525Y-72709681D01*
X106698471Y-72748471D01*
X106659681Y-72806525D01*
X106649500Y-72857710D01*
X106649500Y-74050500D01*
X106635148Y-74085148D01*
X106600501Y-74099500D01*
X106565105Y-74099500D01*
X106565104Y-74099500D01*
X106565102Y-74099501D01*
X106535787Y-74105331D01*
X106535786Y-74105331D01*
X106535784Y-74105332D01*
X106535783Y-74105332D01*
X106502543Y-74127542D01*
X106480330Y-74160786D01*
X106480330Y-74160787D01*
X106474500Y-74190095D01*
X104975498Y-74190095D01*
X104969669Y-74160787D01*
X104969667Y-74160784D01*
X104969667Y-74160783D01*
X104947457Y-74127543D01*
X104914212Y-74105330D01*
X104884904Y-74099500D01*
X104884899Y-74099500D01*
X104849500Y-74099500D01*
X104814852Y-74085148D01*
X104800500Y-74050500D01*
X104800500Y-72857716D01*
X104800499Y-72857710D01*
X104790318Y-72806525D01*
X104751528Y-72748471D01*
X104740479Y-72741089D01*
X104725469Y-72725194D01*
X104619566Y-72545178D01*
X104617767Y-72532323D01*
X104612801Y-72520332D01*
X104615259Y-72514398D01*
X104614369Y-72508038D01*
X104627152Y-72485686D01*
X104647988Y-72464851D01*
X104682635Y-72450500D01*
X106879934Y-72450500D01*
X106879936Y-72450500D01*
X106902848Y-72441009D01*
X106935252Y-72427588D01*
X107331419Y-72031420D01*
X107727585Y-71635255D01*
X107727585Y-71635254D01*
X107727587Y-71635252D01*
X107738955Y-71607807D01*
X107750500Y-71579936D01*
X107750500Y-71543305D01*
X107751401Y-71538674D01*
X107753716Y-71535176D01*
X107756276Y-71524950D01*
X107774709Y-71490427D01*
X107802889Y-71437654D01*
X107816170Y-71422999D01*
X107816138Y-71422967D01*
X107816803Y-71422301D01*
X107818902Y-71419986D01*
X107819552Y-71419552D01*
X107863867Y-71353231D01*
X107875500Y-71294748D01*
X107875500Y-71229500D01*
X107889852Y-71194852D01*
X107924500Y-71180500D01*
X107976005Y-71180500D01*
X107992019Y-71178777D01*
X107998427Y-71178089D01*
X108049938Y-71166883D01*
X108096599Y-71143526D01*
X108149403Y-71097771D01*
X108181541Y-71047763D01*
X108201226Y-70980724D01*
X108205500Y-70951000D01*
X108205500Y-70649315D01*
X108219852Y-70614667D01*
X108254500Y-70600315D01*
X108258255Y-70600500D01*
X108258782Y-70600500D01*
X108355722Y-70600500D01*
X108362696Y-70600999D01*
X108368268Y-70601800D01*
X108394000Y-70605500D01*
X108394003Y-70605500D01*
X108506005Y-70605500D01*
X108517213Y-70604294D01*
X108528427Y-70603089D01*
X108540328Y-70600500D01*
X108541218Y-70600500D01*
X108586283Y-70591536D01*
X108603160Y-70580258D01*
X108626599Y-70568526D01*
X108679403Y-70522771D01*
X108711541Y-70472763D01*
X108731226Y-70405724D01*
X108735500Y-70376000D01*
X108735500Y-70324500D01*
X108749852Y-70289852D01*
X108784500Y-70275500D01*
X109709296Y-70275500D01*
X109713731Y-70277337D01*
X109718432Y-70276359D01*
X109730556Y-70284306D01*
X109743944Y-70289852D01*
X109745780Y-70294286D01*
X109749797Y-70296919D01*
X109752750Y-70311111D01*
X109758296Y-70324500D01*
X109757437Y-70333636D01*
X109755020Y-70346372D01*
X109754085Y-70350374D01*
X109747799Y-70372959D01*
X109743945Y-70402722D01*
X109743945Y-70402726D01*
X109744096Y-70413407D01*
X109744729Y-70419399D01*
X109745000Y-70424395D01*
X109745000Y-70476890D01*
X109745010Y-70478372D01*
X109745022Y-70479226D01*
X109745172Y-70480495D01*
X109745180Y-70483084D01*
X109744955Y-70483629D01*
X109751707Y-70528351D01*
X109751707Y-70528352D01*
X109755349Y-70537814D01*
X109755350Y-70537814D01*
X109756639Y-70541161D01*
X109758779Y-70550670D01*
X109765181Y-70563348D01*
X109766066Y-70565646D01*
X109766065Y-70565647D01*
X109768080Y-70570878D01*
X109768082Y-70570882D01*
X109770287Y-70574209D01*
X109773178Y-70579182D01*
X109773721Y-70580258D01*
X109781972Y-70596596D01*
X109793302Y-70609673D01*
X109795373Y-70612063D01*
X109806683Y-70629128D01*
X109819547Y-70639962D01*
X109822070Y-70642873D01*
X109827653Y-70649315D01*
X109827733Y-70649407D01*
X109837866Y-70655918D01*
X109842934Y-70659656D01*
X109852149Y-70667418D01*
X109852151Y-70667419D01*
X109852153Y-70667420D01*
X109860070Y-70670902D01*
X109866830Y-70674530D01*
X109877740Y-70681542D01*
X109894351Y-70686419D01*
X109900254Y-70688573D01*
X109916107Y-70695546D01*
X109928959Y-70697208D01*
X109936480Y-70698789D01*
X109936924Y-70698919D01*
X109936924Y-70698920D01*
X109944768Y-70701224D01*
X109974500Y-70705500D01*
X109974502Y-70705500D01*
X110198071Y-70705500D01*
X110198080Y-70705500D01*
X110219584Y-70703285D01*
X110219596Y-70703282D01*
X110219600Y-70703282D01*
X110269069Y-70692982D01*
X110269068Y-70692982D01*
X110269074Y-70692981D01*
X110315224Y-70670648D01*
X110368836Y-70625843D01*
X110369938Y-70624616D01*
X112049500Y-70624616D01*
X112049500Y-70875384D01*
X112060770Y-70932043D01*
X112103702Y-70996297D01*
X112135268Y-71017388D01*
X112167957Y-71039230D01*
X112224616Y-71050500D01*
X112224619Y-71050500D01*
X112450381Y-71050500D01*
X112450384Y-71050500D01*
X112507043Y-71039230D01*
X112571297Y-70996297D01*
X112614230Y-70932043D01*
X112625500Y-70875384D01*
X112625500Y-70624616D01*
X112614230Y-70567957D01*
X112575210Y-70509559D01*
X112571297Y-70503702D01*
X112507043Y-70460770D01*
X112450384Y-70449500D01*
X112224616Y-70449500D01*
X112184960Y-70457388D01*
X112167956Y-70460770D01*
X112103702Y-70503702D01*
X112060770Y-70567956D01*
X112060770Y-70567957D01*
X112049500Y-70624616D01*
X110369938Y-70624616D01*
X110388902Y-70603504D01*
X110404435Y-70580258D01*
X110422959Y-70552534D01*
X110422979Y-70552504D01*
X110424018Y-70550918D01*
X110426410Y-70547195D01*
X110439391Y-70518081D01*
X110457877Y-70450702D01*
X110457877Y-70450693D01*
X110457872Y-70450369D01*
X110457940Y-70450195D01*
X110458314Y-70447223D01*
X110459072Y-70447318D01*
X110471607Y-70415472D01*
X110505995Y-70400508D01*
X110506864Y-70400500D01*
X110675381Y-70400500D01*
X110675384Y-70400500D01*
X110732043Y-70389230D01*
X110796297Y-70346297D01*
X110839230Y-70282043D01*
X110850500Y-70225384D01*
X110850500Y-69974616D01*
X110839230Y-69917957D01*
X110839229Y-69917956D01*
X110838604Y-69914812D01*
X110845920Y-69878029D01*
X110854573Y-69868222D01*
X110898903Y-69829810D01*
X110931041Y-69779802D01*
X110950726Y-69712763D01*
X110955000Y-69683039D01*
X110955000Y-69316378D01*
X110963261Y-69289151D01*
X110966880Y-69283736D01*
X110967355Y-69283017D01*
X110968569Y-69281164D01*
X110968568Y-69281164D01*
X110968571Y-69281161D01*
X110981541Y-69253082D01*
X111001226Y-69186043D01*
X111005500Y-69156319D01*
X111005500Y-68777327D01*
X111005500Y-68777321D01*
X111002884Y-68753976D01*
X110990742Y-68700465D01*
X110990741Y-68700463D01*
X110990741Y-68700462D01*
X110966340Y-68653307D01*
X110919649Y-68601329D01*
X110869073Y-68570088D01*
X110869071Y-68570087D01*
X110836537Y-68561163D01*
X110806920Y-68538157D01*
X110800500Y-68513909D01*
X110800500Y-68071241D01*
X110800500Y-68071238D01*
X110789447Y-68015671D01*
X110789446Y-68015669D01*
X110747343Y-67952656D01*
X110684328Y-67910552D01*
X110639941Y-67901723D01*
X110608758Y-67880888D01*
X110600500Y-67853665D01*
X110600500Y-67629024D01*
X110614852Y-67594376D01*
X111369974Y-66839254D01*
X111369976Y-66839252D01*
X111400500Y-66765560D01*
X111400500Y-66685796D01*
X111400500Y-65603345D01*
X111414851Y-65568698D01*
X111504469Y-65479080D01*
X111539115Y-65464729D01*
X111557869Y-65468460D01*
X111560786Y-65469668D01*
X111560787Y-65469669D01*
X111560788Y-65469669D01*
X111560790Y-65469670D01*
X111575444Y-65472584D01*
X111590101Y-65475500D01*
X112609898Y-65475499D01*
X112639213Y-65469669D01*
X112646607Y-65464729D01*
X112676470Y-65444776D01*
X112677737Y-65446672D01*
X112704710Y-65435500D01*
X113448541Y-65435500D01*
X113475763Y-65443757D01*
X113519696Y-65473113D01*
X113581970Y-65485500D01*
X113581973Y-65485500D01*
X113958027Y-65485500D01*
X113958030Y-65485500D01*
X114020304Y-65473113D01*
X114090925Y-65425925D01*
X114138113Y-65355304D01*
X114150500Y-65293030D01*
X114150500Y-64956970D01*
X114138113Y-64894696D01*
X114098751Y-64835787D01*
X114090925Y-64824074D01*
X114048590Y-64795787D01*
X114020304Y-64776887D01*
X113990080Y-64770875D01*
X113958899Y-64750040D01*
X113951582Y-64713258D01*
X113972418Y-64682075D01*
X113990079Y-64674759D01*
X114006283Y-64671536D01*
X114057388Y-64637388D01*
X114091536Y-64586283D01*
X114100500Y-64541218D01*
X114100500Y-64494277D01*
X114100999Y-64487303D01*
X114102275Y-64478427D01*
X114105500Y-64456000D01*
X114105500Y-60144000D01*
X114105500Y-60143997D01*
X114105500Y-60143994D01*
X114103089Y-60121574D01*
X114103089Y-60121573D01*
X114101620Y-60114820D01*
X114100500Y-60104404D01*
X114100500Y-60058785D01*
X114100500Y-60058782D01*
X114091536Y-60013717D01*
X114080519Y-59997229D01*
X114057388Y-59962611D01*
X114006283Y-59928464D01*
X114006284Y-59928464D01*
X113995016Y-59926223D01*
X113961218Y-59919500D01*
X113961215Y-59919500D01*
X113914278Y-59919500D01*
X113907304Y-59919001D01*
X113876002Y-59914500D01*
X113876000Y-59914500D01*
X113124000Y-59914500D01*
X113123995Y-59914500D01*
X113101574Y-59916910D01*
X113101570Y-59916911D01*
X113050064Y-59928116D01*
X113003400Y-59951474D01*
X112950597Y-59997228D01*
X112918457Y-60047239D01*
X112898773Y-60114276D01*
X112894500Y-60143997D01*
X112894500Y-62304754D01*
X112880148Y-62339402D01*
X112764402Y-62455148D01*
X112729754Y-62469500D01*
X112298995Y-62469500D01*
X112276577Y-62471910D01*
X112276562Y-62471912D01*
X112269811Y-62473381D01*
X112259400Y-62474500D01*
X112165105Y-62474500D01*
X112165104Y-62474500D01*
X112165102Y-62474501D01*
X112135787Y-62480331D01*
X112135786Y-62480331D01*
X112135784Y-62480332D01*
X112135783Y-62480332D01*
X112102543Y-62502542D01*
X112080330Y-62535786D01*
X112080330Y-62535787D01*
X112074500Y-62565095D01*
X112074500Y-62660724D01*
X112074001Y-62667698D01*
X112069500Y-62698997D01*
X112069500Y-62901007D01*
X112070573Y-62916013D01*
X112070573Y-62916015D01*
X112074001Y-62939852D01*
X112074500Y-62946825D01*
X112074500Y-63034894D01*
X112074501Y-63034898D01*
X112080331Y-63064213D01*
X112080331Y-63064214D01*
X112080332Y-63064215D01*
X112080332Y-63064216D01*
X112102542Y-63097456D01*
X112135784Y-63119668D01*
X112135786Y-63119668D01*
X112135787Y-63119669D01*
X112165101Y-63125500D01*
X112260714Y-63125499D01*
X112267687Y-63125998D01*
X112290684Y-63129304D01*
X112299000Y-63130500D01*
X112729754Y-63130500D01*
X112764402Y-63144852D01*
X112880148Y-63260598D01*
X112894500Y-63295246D01*
X112894500Y-64456005D01*
X112896910Y-64478425D01*
X112896911Y-64478429D01*
X112908116Y-64529935D01*
X112908117Y-64529938D01*
X112931474Y-64576599D01*
X112977229Y-64629403D01*
X113027237Y-64661541D01*
X113027239Y-64661542D01*
X113094276Y-64681226D01*
X113124000Y-64685500D01*
X113124003Y-64685500D01*
X113494936Y-64685500D01*
X113499573Y-64687421D01*
X113504496Y-64686442D01*
X113516380Y-64694382D01*
X113529584Y-64699852D01*
X113531504Y-64704488D01*
X113535678Y-64707277D01*
X113538466Y-64721294D01*
X113543936Y-64734500D01*
X113542014Y-64739137D01*
X113542994Y-64744060D01*
X113535053Y-64755944D01*
X113529584Y-64769148D01*
X113522159Y-64775242D01*
X113519697Y-64776886D01*
X113519696Y-64776887D01*
X113498213Y-64791242D01*
X113475764Y-64806242D01*
X113448541Y-64814500D01*
X112749000Y-64814500D01*
X112714352Y-64800148D01*
X112700000Y-64765500D01*
X112700000Y-64592239D01*
X112700487Y-64587318D01*
X112700264Y-64587296D01*
X112700499Y-64584904D01*
X112700500Y-64584899D01*
X112700499Y-64065102D01*
X112694669Y-64035787D01*
X112694667Y-64035784D01*
X112694667Y-64035783D01*
X112672457Y-64002543D01*
X112639212Y-63980330D01*
X112609901Y-63974500D01*
X111590105Y-63974500D01*
X111590104Y-63974500D01*
X111590102Y-63974501D01*
X111560787Y-63980331D01*
X111560786Y-63980331D01*
X111560784Y-63980332D01*
X111560783Y-63980332D01*
X111527545Y-64002540D01*
X111527540Y-64002545D01*
X111518972Y-64015370D01*
X111500144Y-64031974D01*
X111325441Y-64119327D01*
X111303527Y-64124500D01*
X111135116Y-64124500D01*
X111061424Y-64155025D01*
X111061423Y-64155025D01*
X110851598Y-64364852D01*
X110786426Y-64430024D01*
X110760453Y-64455997D01*
X110730024Y-64486425D01*
X110699500Y-64560116D01*
X110699500Y-66496654D01*
X110685148Y-66531302D01*
X110231302Y-66985148D01*
X110196654Y-66999500D01*
X108585115Y-66999500D01*
X108571231Y-67005252D01*
X108511425Y-67030024D01*
X108494182Y-67047268D01*
X108455024Y-67086426D01*
X108284148Y-67257302D01*
X108249500Y-67271654D01*
X108214852Y-67257302D01*
X108200500Y-67222654D01*
X108200500Y-66453346D01*
X108214852Y-66418698D01*
X108493698Y-66139852D01*
X108528346Y-66125500D01*
X108850501Y-66125500D01*
X108885149Y-66139852D01*
X108899501Y-66174500D01*
X108899501Y-66184898D01*
X108905331Y-66214213D01*
X108905331Y-66214214D01*
X108905332Y-66214215D01*
X108905332Y-66214216D01*
X108927542Y-66247456D01*
X108927543Y-66247457D01*
X108960787Y-66269669D01*
X108990101Y-66275500D01*
X110009898Y-66275499D01*
X110039213Y-66269669D01*
X110072457Y-66247457D01*
X110094669Y-66214213D01*
X110100500Y-66184899D01*
X110100499Y-65665102D01*
X110100498Y-65665095D01*
X110100263Y-65662703D01*
X110100483Y-65662681D01*
X110100000Y-65657766D01*
X110100000Y-65392239D01*
X110100487Y-65387318D01*
X110100264Y-65387296D01*
X110100498Y-65384907D01*
X110100500Y-65384899D01*
X110100499Y-64865102D01*
X110094669Y-64835787D01*
X110094667Y-64835784D01*
X110094667Y-64835783D01*
X110072457Y-64802543D01*
X110039212Y-64780330D01*
X110009901Y-64774500D01*
X108990105Y-64774500D01*
X108990104Y-64774500D01*
X108990102Y-64774501D01*
X108960787Y-64780331D01*
X108960786Y-64780331D01*
X108960784Y-64780332D01*
X108960783Y-64780332D01*
X108927543Y-64802542D01*
X108905330Y-64835786D01*
X108905330Y-64835787D01*
X108899500Y-64865095D01*
X108899500Y-64875500D01*
X108885148Y-64910148D01*
X108850500Y-64924500D01*
X108635116Y-64924500D01*
X108574068Y-64949787D01*
X108561429Y-64955023D01*
X108561424Y-64955025D01*
X108384148Y-65132301D01*
X108349500Y-65146653D01*
X108314852Y-65132301D01*
X108300500Y-65097653D01*
X108300500Y-64771241D01*
X108300500Y-64771238D01*
X108289447Y-64715671D01*
X108287457Y-64712692D01*
X108247343Y-64652656D01*
X108184330Y-64610553D01*
X108170437Y-64607789D01*
X108128762Y-64599500D01*
X107671238Y-64599500D01*
X107637897Y-64606131D01*
X107615669Y-64610553D01*
X107552656Y-64652656D01*
X107510552Y-64715671D01*
X107510552Y-64715672D01*
X107501723Y-64760059D01*
X107493783Y-64771942D01*
X107488313Y-64785148D01*
X107483676Y-64787068D01*
X107480888Y-64791242D01*
X107453665Y-64799500D01*
X107361206Y-64799500D01*
X107326558Y-64785148D01*
X107319450Y-64776141D01*
X107257744Y-64675654D01*
X107250500Y-64650013D01*
X107250500Y-64637434D01*
X107250499Y-64637430D01*
X107241622Y-64592802D01*
X107227628Y-64571859D01*
X107207807Y-64542193D01*
X107182822Y-64525499D01*
X107157197Y-64508377D01*
X107112569Y-64499500D01*
X107112566Y-64499500D01*
X106787434Y-64499500D01*
X106787428Y-64499500D01*
X106775541Y-64501864D01*
X106772511Y-64502369D01*
X106761851Y-64503801D01*
X106741283Y-64506564D01*
X106685972Y-64525499D01*
X106550548Y-64571859D01*
X106534678Y-64574500D01*
X106399500Y-64574500D01*
X106364852Y-64560148D01*
X106350500Y-64525500D01*
X106350500Y-64262434D01*
X106350499Y-64262430D01*
X106341622Y-64217802D01*
X106315540Y-64178767D01*
X106307807Y-64167193D01*
X106287535Y-64153648D01*
X106257197Y-64133377D01*
X106212569Y-64124500D01*
X106212566Y-64124500D01*
X106157471Y-64124500D01*
X106136693Y-64119877D01*
X106135518Y-64119327D01*
X105987900Y-64050210D01*
X105974033Y-64040484D01*
X105913574Y-63980024D01*
X105900238Y-63974500D01*
X105839883Y-63949500D01*
X105839882Y-63949500D01*
X105539079Y-63949500D01*
X105504431Y-63935148D01*
X105491021Y-63910059D01*
X105490318Y-63906526D01*
X105490317Y-63906524D01*
X105490317Y-63906523D01*
X105477445Y-63887260D01*
X105451528Y-63848471D01*
X105393477Y-63809683D01*
X105393473Y-63809681D01*
X105389941Y-63808979D01*
X105378057Y-63801039D01*
X105364852Y-63795569D01*
X105362931Y-63790932D01*
X105358758Y-63788144D01*
X105350500Y-63760921D01*
X105350500Y-63721238D01*
X107499500Y-63721238D01*
X107499500Y-64178762D01*
X107507266Y-64217802D01*
X107510553Y-64234330D01*
X107552656Y-64297343D01*
X107615669Y-64339446D01*
X107615671Y-64339447D01*
X107671238Y-64350500D01*
X107996654Y-64350500D01*
X108031302Y-64364852D01*
X108161423Y-64494974D01*
X108161424Y-64494974D01*
X108161426Y-64494976D01*
X108235118Y-64525500D01*
X108314882Y-64525500D01*
X108703528Y-64525500D01*
X108725441Y-64530673D01*
X108813095Y-64574500D01*
X108900140Y-64618022D01*
X108918969Y-64634626D01*
X108927540Y-64647454D01*
X108927543Y-64647457D01*
X108960787Y-64669669D01*
X108990101Y-64675500D01*
X110009898Y-64675499D01*
X110039213Y-64669669D01*
X110072457Y-64647457D01*
X110094669Y-64614213D01*
X110100500Y-64584899D01*
X110100499Y-64065102D01*
X110094669Y-64035787D01*
X110094667Y-64035784D01*
X110094667Y-64035783D01*
X110072457Y-64002543D01*
X110039212Y-63980330D01*
X110009901Y-63974500D01*
X108990105Y-63974500D01*
X108990104Y-63974500D01*
X108990102Y-63974501D01*
X108960787Y-63980331D01*
X108960786Y-63980331D01*
X108960784Y-63980332D01*
X108960783Y-63980332D01*
X108927545Y-64002540D01*
X108927540Y-64002545D01*
X108918972Y-64015370D01*
X108900144Y-64031974D01*
X108725441Y-64119327D01*
X108703527Y-64124500D01*
X108378346Y-64124500D01*
X108343698Y-64110148D01*
X108314852Y-64081302D01*
X108300500Y-64046654D01*
X108300500Y-63721241D01*
X108300500Y-63721238D01*
X108289447Y-63665671D01*
X108279271Y-63650441D01*
X108247343Y-63602656D01*
X108184330Y-63560553D01*
X108170437Y-63557789D01*
X108128762Y-63549500D01*
X107671238Y-63549500D01*
X107637897Y-63556131D01*
X107615669Y-63560553D01*
X107552656Y-63602656D01*
X107510553Y-63665669D01*
X107506131Y-63687897D01*
X107499500Y-63721238D01*
X105350500Y-63721238D01*
X105350500Y-63585120D01*
X105350499Y-63585116D01*
X105340325Y-63560553D01*
X105319976Y-63511426D01*
X105263574Y-63455024D01*
X105087576Y-63279025D01*
X105013883Y-63248500D01*
X105013882Y-63248500D01*
X103410883Y-63248500D01*
X103331118Y-63248500D01*
X103331116Y-63248500D01*
X103257424Y-63279025D01*
X103214148Y-63322301D01*
X103179500Y-63336653D01*
X103144852Y-63322301D01*
X103130500Y-63287653D01*
X103130500Y-62565095D01*
X104874500Y-62565095D01*
X104874500Y-63034894D01*
X104874501Y-63034898D01*
X104880331Y-63064213D01*
X104880331Y-63064214D01*
X104880332Y-63064215D01*
X104880332Y-63064216D01*
X104902542Y-63097456D01*
X104902543Y-63097457D01*
X104935787Y-63119669D01*
X104965101Y-63125500D01*
X105151437Y-63125499D01*
X105151447Y-63125500D01*
X105157147Y-63125500D01*
X106448554Y-63125500D01*
X106448562Y-63125499D01*
X106634895Y-63125499D01*
X106634898Y-63125499D01*
X106664213Y-63119669D01*
X106697457Y-63097457D01*
X106719669Y-63064213D01*
X106725500Y-63034899D01*
X106725500Y-62837388D01*
X106725500Y-62757147D01*
X106725500Y-62753204D01*
X106725499Y-62753190D01*
X106725499Y-62565105D01*
X106725499Y-62565102D01*
X106725498Y-62565095D01*
X108474500Y-62565095D01*
X108474500Y-63034894D01*
X108474501Y-63034898D01*
X108480331Y-63064213D01*
X108480331Y-63064214D01*
X108480332Y-63064215D01*
X108480332Y-63064216D01*
X108502542Y-63097456D01*
X108502543Y-63097457D01*
X108535787Y-63119669D01*
X108565101Y-63125500D01*
X108751437Y-63125499D01*
X108751447Y-63125500D01*
X108757147Y-63125500D01*
X110048554Y-63125500D01*
X110048562Y-63125499D01*
X110234895Y-63125499D01*
X110234898Y-63125499D01*
X110264213Y-63119669D01*
X110297457Y-63097457D01*
X110319669Y-63064213D01*
X110325500Y-63034899D01*
X110325500Y-62837388D01*
X110325500Y-62757147D01*
X110325500Y-62753204D01*
X110325499Y-62753190D01*
X110325499Y-62565105D01*
X110325499Y-62565102D01*
X110319669Y-62535787D01*
X110319667Y-62535784D01*
X110319667Y-62535783D01*
X110297457Y-62502543D01*
X110264212Y-62480330D01*
X110234904Y-62474500D01*
X110234899Y-62474500D01*
X110042854Y-62474500D01*
X110042853Y-62474500D01*
X108757147Y-62474500D01*
X108757144Y-62474500D01*
X108565105Y-62474500D01*
X108565104Y-62474500D01*
X108565102Y-62474501D01*
X108535787Y-62480331D01*
X108535786Y-62480331D01*
X108535784Y-62480332D01*
X108535783Y-62480332D01*
X108502543Y-62502542D01*
X108480330Y-62535786D01*
X108480330Y-62535787D01*
X108474500Y-62565095D01*
X106725498Y-62565095D01*
X106719669Y-62535787D01*
X106719667Y-62535784D01*
X106719667Y-62535783D01*
X106697457Y-62502543D01*
X106664212Y-62480330D01*
X106634904Y-62474500D01*
X106634899Y-62474500D01*
X106442854Y-62474500D01*
X106442853Y-62474500D01*
X105157147Y-62474500D01*
X105157144Y-62474500D01*
X104965105Y-62474500D01*
X104965104Y-62474500D01*
X104965102Y-62474501D01*
X104935787Y-62480331D01*
X104935786Y-62480331D01*
X104935784Y-62480332D01*
X104935783Y-62480332D01*
X104902543Y-62502542D01*
X104880330Y-62535786D01*
X104880330Y-62535787D01*
X104874500Y-62565095D01*
X103130500Y-62565095D01*
X103130500Y-62424509D01*
X103130500Y-62424499D01*
X103129201Y-62407997D01*
X103124356Y-62377404D01*
X103105506Y-62331894D01*
X103104400Y-62329223D01*
X103105537Y-62328751D01*
X103101606Y-62295566D01*
X103108027Y-62281637D01*
X103119669Y-62264214D01*
X103119669Y-62264212D01*
X103125499Y-62234904D01*
X103125500Y-62234899D01*
X103125499Y-61765102D01*
X103125498Y-61765095D01*
X104874500Y-61765095D01*
X104874500Y-62234894D01*
X104874501Y-62234898D01*
X104880331Y-62264213D01*
X104880331Y-62264214D01*
X104880332Y-62264215D01*
X104880332Y-62264216D01*
X104902542Y-62297456D01*
X104902543Y-62297457D01*
X104935787Y-62319669D01*
X104965101Y-62325500D01*
X105151437Y-62325499D01*
X105151447Y-62325500D01*
X105157147Y-62325500D01*
X106448554Y-62325500D01*
X106448562Y-62325499D01*
X106634895Y-62325499D01*
X106634898Y-62325499D01*
X106664213Y-62319669D01*
X106697457Y-62297457D01*
X106719669Y-62264213D01*
X106725500Y-62234899D01*
X106725500Y-62024375D01*
X106725500Y-61957147D01*
X106725500Y-61953204D01*
X106725499Y-61953190D01*
X106725499Y-61765105D01*
X106725499Y-61765102D01*
X106725498Y-61765095D01*
X108474500Y-61765095D01*
X108474500Y-62234894D01*
X108474501Y-62234898D01*
X108480331Y-62264213D01*
X108480331Y-62264214D01*
X108480332Y-62264215D01*
X108480332Y-62264216D01*
X108502542Y-62297456D01*
X108502543Y-62297457D01*
X108535787Y-62319669D01*
X108565101Y-62325500D01*
X108751437Y-62325499D01*
X108751447Y-62325500D01*
X108757147Y-62325500D01*
X110048554Y-62325500D01*
X110048562Y-62325499D01*
X110234895Y-62325499D01*
X110234898Y-62325499D01*
X110264213Y-62319669D01*
X110297457Y-62297457D01*
X110319669Y-62264213D01*
X110325500Y-62234899D01*
X110325500Y-62024375D01*
X110325500Y-61957147D01*
X110325500Y-61953204D01*
X110325499Y-61953190D01*
X110325499Y-61765105D01*
X110325499Y-61765102D01*
X110319669Y-61735787D01*
X110319667Y-61735784D01*
X110319667Y-61735783D01*
X110297457Y-61702543D01*
X110264212Y-61680330D01*
X110234904Y-61674500D01*
X110234899Y-61674500D01*
X110042854Y-61674500D01*
X110042853Y-61674500D01*
X108757147Y-61674500D01*
X108757144Y-61674500D01*
X108565105Y-61674500D01*
X108565104Y-61674500D01*
X108565102Y-61674501D01*
X108535787Y-61680331D01*
X108535786Y-61680331D01*
X108535784Y-61680332D01*
X108535783Y-61680332D01*
X108502543Y-61702542D01*
X108480330Y-61735786D01*
X108480330Y-61735787D01*
X108474500Y-61765095D01*
X106725498Y-61765095D01*
X106719669Y-61735787D01*
X106719667Y-61735784D01*
X106719667Y-61735783D01*
X106697457Y-61702543D01*
X106664212Y-61680330D01*
X106634904Y-61674500D01*
X106634899Y-61674500D01*
X106442854Y-61674500D01*
X106442853Y-61674500D01*
X105157147Y-61674500D01*
X105157144Y-61674500D01*
X104965105Y-61674500D01*
X104965104Y-61674500D01*
X104965102Y-61674501D01*
X104935787Y-61680331D01*
X104935786Y-61680331D01*
X104935784Y-61680332D01*
X104935783Y-61680332D01*
X104902543Y-61702542D01*
X104880330Y-61735786D01*
X104880330Y-61735787D01*
X104874500Y-61765095D01*
X103125498Y-61765095D01*
X103125263Y-61762705D01*
X103125483Y-61762683D01*
X103125000Y-61757766D01*
X103125000Y-61442239D01*
X103125487Y-61437318D01*
X103125264Y-61437296D01*
X103125499Y-61434904D01*
X103125500Y-61434899D01*
X103125499Y-60965102D01*
X103125498Y-60965095D01*
X104874500Y-60965095D01*
X104874500Y-61434894D01*
X104874501Y-61434898D01*
X104880331Y-61464213D01*
X104880331Y-61464214D01*
X104880332Y-61464215D01*
X104880332Y-61464216D01*
X104902542Y-61497456D01*
X104902543Y-61497457D01*
X104935787Y-61519669D01*
X104965101Y-61525500D01*
X105151437Y-61525499D01*
X105151447Y-61525500D01*
X105157147Y-61525500D01*
X106448554Y-61525500D01*
X106448562Y-61525499D01*
X106634895Y-61525499D01*
X106634898Y-61525499D01*
X106664213Y-61519669D01*
X106697457Y-61497457D01*
X106719669Y-61464213D01*
X106725500Y-61434899D01*
X106725500Y-61207610D01*
X106725500Y-61157147D01*
X106725500Y-61153204D01*
X106725499Y-61153190D01*
X106725499Y-60965105D01*
X106725499Y-60965102D01*
X106725498Y-60965095D01*
X108474500Y-60965095D01*
X108474500Y-61434894D01*
X108474501Y-61434898D01*
X108480331Y-61464213D01*
X108480331Y-61464214D01*
X108480332Y-61464215D01*
X108480332Y-61464216D01*
X108502542Y-61497456D01*
X108502543Y-61497457D01*
X108535787Y-61519669D01*
X108565101Y-61525500D01*
X108751437Y-61525499D01*
X108751447Y-61525500D01*
X108757147Y-61525500D01*
X110048554Y-61525500D01*
X110048562Y-61525499D01*
X110234895Y-61525499D01*
X110234898Y-61525499D01*
X110264213Y-61519669D01*
X110297457Y-61497457D01*
X110319669Y-61464213D01*
X110325500Y-61434899D01*
X110325500Y-61207610D01*
X110325500Y-61157147D01*
X110325500Y-61153204D01*
X110325499Y-61153190D01*
X110325499Y-60965105D01*
X110325499Y-60965102D01*
X110319669Y-60935787D01*
X110319667Y-60935784D01*
X110319667Y-60935783D01*
X110297457Y-60902543D01*
X110264212Y-60880330D01*
X110234904Y-60874500D01*
X110234899Y-60874500D01*
X110042854Y-60874500D01*
X110042853Y-60874500D01*
X108757147Y-60874500D01*
X108757144Y-60874500D01*
X108565105Y-60874500D01*
X108565104Y-60874500D01*
X108565102Y-60874501D01*
X108535787Y-60880331D01*
X108535786Y-60880331D01*
X108535784Y-60880332D01*
X108535783Y-60880332D01*
X108502543Y-60902542D01*
X108480330Y-60935786D01*
X108480330Y-60935787D01*
X108474500Y-60965095D01*
X106725498Y-60965095D01*
X106719669Y-60935787D01*
X106719667Y-60935784D01*
X106719667Y-60935783D01*
X106697457Y-60902543D01*
X106664212Y-60880330D01*
X106634904Y-60874500D01*
X106634899Y-60874500D01*
X106442854Y-60874500D01*
X106442853Y-60874500D01*
X105157147Y-60874500D01*
X105157144Y-60874500D01*
X104965105Y-60874500D01*
X104965104Y-60874500D01*
X104965102Y-60874501D01*
X104935787Y-60880331D01*
X104935786Y-60880331D01*
X104935784Y-60880332D01*
X104935783Y-60880332D01*
X104902543Y-60902542D01*
X104880330Y-60935786D01*
X104880330Y-60935787D01*
X104874500Y-60965095D01*
X103125498Y-60965095D01*
X103125263Y-60962705D01*
X103125483Y-60962683D01*
X103125000Y-60957766D01*
X103125000Y-60642239D01*
X103125487Y-60637318D01*
X103125264Y-60637296D01*
X103125499Y-60634904D01*
X103125500Y-60634899D01*
X103125499Y-60165102D01*
X103125498Y-60165095D01*
X104874500Y-60165095D01*
X104874500Y-60634894D01*
X104874501Y-60634898D01*
X104880331Y-60664213D01*
X104880331Y-60664214D01*
X104880332Y-60664215D01*
X104880332Y-60664216D01*
X104902542Y-60697456D01*
X104902543Y-60697457D01*
X104935787Y-60719669D01*
X104965101Y-60725500D01*
X105151437Y-60725499D01*
X105151447Y-60725500D01*
X105157147Y-60725500D01*
X106448554Y-60725500D01*
X106448562Y-60725499D01*
X106634895Y-60725499D01*
X106634898Y-60725499D01*
X106664213Y-60719669D01*
X106697457Y-60697457D01*
X106719669Y-60664213D01*
X106725500Y-60634899D01*
X106725500Y-60424375D01*
X106725500Y-60357147D01*
X106725500Y-60353204D01*
X106725499Y-60353190D01*
X106725499Y-60165105D01*
X106725499Y-60165102D01*
X106725498Y-60165095D01*
X108474500Y-60165095D01*
X108474500Y-60634894D01*
X108474501Y-60634898D01*
X108480331Y-60664213D01*
X108480331Y-60664214D01*
X108480332Y-60664215D01*
X108480332Y-60664216D01*
X108502542Y-60697456D01*
X108502543Y-60697457D01*
X108535787Y-60719669D01*
X108565101Y-60725500D01*
X108751437Y-60725499D01*
X108751447Y-60725500D01*
X108757147Y-60725500D01*
X110048554Y-60725500D01*
X110048562Y-60725499D01*
X110234895Y-60725499D01*
X110234898Y-60725499D01*
X110264213Y-60719669D01*
X110297457Y-60697457D01*
X110319669Y-60664213D01*
X110325500Y-60634899D01*
X110325500Y-60424375D01*
X110325500Y-60357147D01*
X110325500Y-60353204D01*
X110325499Y-60353190D01*
X110325499Y-60165105D01*
X110325499Y-60165102D01*
X110319669Y-60135787D01*
X110319667Y-60135784D01*
X110319667Y-60135783D01*
X110297457Y-60102543D01*
X110264212Y-60080330D01*
X110234904Y-60074500D01*
X110234899Y-60074500D01*
X110042854Y-60074500D01*
X110042853Y-60074500D01*
X108757147Y-60074500D01*
X108757144Y-60074500D01*
X108565105Y-60074500D01*
X108565104Y-60074500D01*
X108565102Y-60074501D01*
X108535787Y-60080331D01*
X108535786Y-60080331D01*
X108535784Y-60080332D01*
X108535783Y-60080332D01*
X108502543Y-60102542D01*
X108480330Y-60135786D01*
X108480330Y-60135787D01*
X108474500Y-60165095D01*
X106725498Y-60165095D01*
X106719669Y-60135787D01*
X106719667Y-60135784D01*
X106719667Y-60135783D01*
X106697457Y-60102543D01*
X106664212Y-60080330D01*
X106634904Y-60074500D01*
X106634899Y-60074500D01*
X106442854Y-60074500D01*
X106442853Y-60074500D01*
X105157147Y-60074500D01*
X105157144Y-60074500D01*
X104965105Y-60074500D01*
X104965104Y-60074500D01*
X104965102Y-60074501D01*
X104935787Y-60080331D01*
X104935786Y-60080331D01*
X104935784Y-60080332D01*
X104935783Y-60080332D01*
X104902543Y-60102542D01*
X104880330Y-60135786D01*
X104880330Y-60135787D01*
X104874500Y-60165095D01*
X103125498Y-60165095D01*
X103119669Y-60135787D01*
X103119667Y-60135784D01*
X103119667Y-60135783D01*
X103097457Y-60102543D01*
X103064212Y-60080330D01*
X103034904Y-60074500D01*
X103034899Y-60074500D01*
X102569399Y-60074500D01*
X102564167Y-60073441D01*
X102555273Y-60074462D01*
X102538960Y-60079699D01*
X102535787Y-60080331D01*
X102535684Y-60080399D01*
X102535582Y-60080414D01*
X102533460Y-60081293D01*
X102529711Y-60082669D01*
X102516067Y-60087051D01*
X102324758Y-60193334D01*
X102300962Y-60199500D01*
X101767226Y-60199500D01*
X101693534Y-60230025D01*
X101693533Y-60230025D01*
X101226104Y-60697456D01*
X101086426Y-60837134D01*
X101063412Y-60860148D01*
X101030024Y-60893535D01*
X100999500Y-60967226D01*
X100999500Y-71311900D01*
X100997108Y-71319783D01*
X100997747Y-71324888D01*
X100995645Y-71332532D01*
X100986133Y-71346769D01*
X100974500Y-71405252D01*
X100000500Y-71405252D01*
X100000500Y-59849500D01*
X100014852Y-59814852D01*
X100049500Y-59800500D01*
X115150500Y-59800500D01*
X115185148Y-59814852D01*
G37*
%TD.AperFunction*%
%TD*%
%TA.AperFunction,Conductor*%
%TO.N,+12V*%
G36*
X107323108Y-72577852D02*
G01*
X107521927Y-72776671D01*
X107525354Y-72784944D01*
X107523404Y-72791412D01*
X107255307Y-73195552D01*
X107247878Y-73200552D01*
X107241116Y-73199909D01*
X107005258Y-73103154D01*
X106998905Y-73096843D01*
X106998177Y-73094358D01*
X106947818Y-72807808D01*
X106949761Y-72799068D01*
X106953187Y-72795834D01*
X107308687Y-72576171D01*
X107317524Y-72574738D01*
X107323108Y-72577852D01*
G37*
%TD.AperFunction*%
%TD*%
%TA.AperFunction,Conductor*%
%TO.N,/SRH*%
G36*
X107607749Y-71255853D02*
G01*
X107677806Y-71317811D01*
X107718076Y-71353426D01*
X107722003Y-71361474D01*
X107720646Y-71367701D01*
X107653305Y-71493811D01*
X107646385Y-71499495D01*
X107642984Y-71500000D01*
X107557016Y-71500000D01*
X107548743Y-71496573D01*
X107546695Y-71493811D01*
X107479353Y-71367701D01*
X107478479Y-71358789D01*
X107481923Y-71353426D01*
X107592250Y-71255853D01*
X107600716Y-71252940D01*
X107607749Y-71255853D01*
G37*
%TD.AperFunction*%
%TD*%
%TA.AperFunction,Conductor*%
%TO.N,/Base_{G}*%
G36*
X104955307Y-66257799D02*
G01*
X105302828Y-66420513D01*
X105308868Y-66427125D01*
X105308907Y-66434983D01*
X105252939Y-66594472D01*
X105246966Y-66601144D01*
X105245412Y-66601758D01*
X105059348Y-66660330D01*
X105050428Y-66659546D01*
X105045465Y-66654587D01*
X104939978Y-66452543D01*
X104938650Y-66447128D01*
X104938650Y-66268396D01*
X104942077Y-66260123D01*
X104950350Y-66256696D01*
X104955307Y-66257799D01*
G37*
%TD.AperFunction*%
%TD*%
%TA.AperFunction,Conductor*%
%TO.N,/DOUT*%
G36*
X112839001Y-66514340D02*
G01*
X112847054Y-66518256D01*
X112850000Y-66526019D01*
X112850000Y-66923980D01*
X112846573Y-66932253D01*
X112839001Y-66935659D01*
X112602870Y-66949827D01*
X112597376Y-66948821D01*
X112122765Y-66735673D01*
X112116622Y-66729158D01*
X112116885Y-66720207D01*
X112122765Y-66714327D01*
X112597377Y-66501177D01*
X112602869Y-66500172D01*
X112839001Y-66514340D01*
G37*
%TD.AperFunction*%
%TD*%
%TA.AperFunction,Conductor*%
%TO.N,/Gate_{W}*%
G36*
X105184388Y-71206939D02*
G01*
X105187568Y-71209229D01*
X105249740Y-71272291D01*
X105342901Y-71366786D01*
X105346269Y-71375083D01*
X105342901Y-71383214D01*
X105187572Y-71540767D01*
X105179323Y-71544253D01*
X105175451Y-71543622D01*
X104982911Y-71477708D01*
X104976193Y-71471787D01*
X104975000Y-71466639D01*
X104975000Y-71283360D01*
X104978427Y-71275087D01*
X104982908Y-71272292D01*
X105175453Y-71206377D01*
X105184388Y-71206939D01*
G37*
%TD.AperFunction*%
%TD*%
%TA.AperFunction,Conductor*%
%TO.N,/Red3*%
G36*
X113943039Y-60039685D02*
G01*
X113988794Y-60092489D01*
X114000000Y-60144000D01*
X114000000Y-64456000D01*
X113980315Y-64523039D01*
X113927511Y-64568794D01*
X113876000Y-64580000D01*
X113124000Y-64580000D01*
X113056961Y-64560315D01*
X113011206Y-64507511D01*
X113000000Y-64456000D01*
X113000000Y-63231250D01*
X112793750Y-63025000D01*
X112299000Y-63025000D01*
X112290314Y-63022449D01*
X112281353Y-63023738D01*
X112257312Y-63012759D01*
X112231961Y-63005315D01*
X112226033Y-62998474D01*
X112217797Y-62994713D01*
X112203507Y-62972478D01*
X112186206Y-62952511D01*
X112183918Y-62941996D01*
X112180023Y-62935935D01*
X112175000Y-62901000D01*
X112175000Y-62699000D01*
X112194685Y-62631961D01*
X112247489Y-62586206D01*
X112299000Y-62575000D01*
X112793750Y-62575000D01*
X113000000Y-62368750D01*
X113000000Y-60144000D01*
X113019685Y-60076961D01*
X113072489Y-60031206D01*
X113124000Y-60020000D01*
X113876000Y-60020000D01*
X113943039Y-60039685D01*
G37*
%TD.AperFunction*%
%TD*%
%TA.AperFunction,Conductor*%
%TO.N,/Green0*%
G36*
X102097801Y-66803427D02*
G01*
X102101156Y-66810408D01*
X102124428Y-67019852D01*
X102124500Y-67021144D01*
X102124500Y-67022463D01*
X102122735Y-67028642D01*
X102009935Y-67210024D01*
X102002656Y-67215239D01*
X101993821Y-67213780D01*
X101990065Y-67210024D01*
X101948121Y-67142579D01*
X101877139Y-67028440D01*
X101875447Y-67020972D01*
X101898844Y-66810408D01*
X101903163Y-66802564D01*
X101910472Y-66800000D01*
X102089528Y-66800000D01*
X102097801Y-66803427D01*
G37*
%TD.AperFunction*%
%TD*%
%TA.AperFunction,Conductor*%
%TO.N,/D_{OUT}*%
G36*
X114169726Y-66572723D02*
G01*
X114375464Y-66769764D01*
X114379068Y-66777961D01*
X114375821Y-66786307D01*
X114375644Y-66786487D01*
X114280105Y-66882026D01*
X114275230Y-66884949D01*
X114133411Y-66927987D01*
X114124499Y-66927110D01*
X114121137Y-66924413D01*
X113957474Y-66733820D01*
X113954684Y-66725311D01*
X113958728Y-66717322D01*
X113959349Y-66716824D01*
X114154657Y-66571779D01*
X114163342Y-66569599D01*
X114169726Y-66572723D01*
G37*
%TD.AperFunction*%
%TD*%
%TA.AperFunction,Conductor*%
%TO.N,/Gate_{B}*%
G36*
X105949971Y-69105463D02*
G01*
X105954998Y-69109946D01*
X106069975Y-69297182D01*
X106071705Y-69303304D01*
X106071705Y-69482764D01*
X106068278Y-69491037D01*
X106060005Y-69494464D01*
X106055686Y-69493638D01*
X105704116Y-69354011D01*
X105697692Y-69347772D01*
X105697273Y-69339630D01*
X105710610Y-69297182D01*
X105747269Y-69180508D01*
X105753017Y-69173644D01*
X105754417Y-69173027D01*
X105941025Y-69105074D01*
X105949971Y-69105463D01*
G37*
%TD.AperFunction*%
%TD*%
%TA.AperFunction,Conductor*%
%TO.N,V_{OUT}*%
G36*
X110142539Y-67420185D02*
G01*
X110188294Y-67472989D01*
X110199500Y-67524500D01*
X110199500Y-67792975D01*
X110179815Y-67860014D01*
X110127011Y-67905769D01*
X110122956Y-67907535D01*
X110115669Y-67910553D01*
X110052657Y-67952656D01*
X110052656Y-67952657D01*
X110010552Y-68015670D01*
X110010552Y-68015671D01*
X109999500Y-68071233D01*
X109999500Y-68528766D01*
X110010552Y-68584328D01*
X110010552Y-68584329D01*
X110052656Y-68647342D01*
X110052657Y-68647343D01*
X110115670Y-68689447D01*
X110171233Y-68700499D01*
X110171236Y-68700500D01*
X110171238Y-68700500D01*
X110628764Y-68700500D01*
X110628765Y-68700499D01*
X110647451Y-68696782D01*
X110684326Y-68689448D01*
X110684326Y-68689447D01*
X110684329Y-68689447D01*
X110707111Y-68674224D01*
X110773784Y-68653347D01*
X110841165Y-68671830D01*
X110887856Y-68723808D01*
X110900000Y-68777327D01*
X110900000Y-69156319D01*
X110880315Y-69223358D01*
X110879104Y-69225207D01*
X110855331Y-69260786D01*
X110855329Y-69260791D01*
X110849500Y-69290098D01*
X110849500Y-69683039D01*
X110829815Y-69750078D01*
X110777011Y-69795833D01*
X110707853Y-69805777D01*
X110701310Y-69804657D01*
X110680411Y-69800500D01*
X110675384Y-69799500D01*
X110449616Y-69799500D01*
X110449611Y-69799500D01*
X110392959Y-69810768D01*
X110392958Y-69810769D01*
X110328703Y-69853703D01*
X110318221Y-69869391D01*
X110264609Y-69914196D01*
X110215119Y-69924500D01*
X108804500Y-69924500D01*
X108737461Y-69904815D01*
X108691706Y-69852011D01*
X108680500Y-69800500D01*
X108680500Y-69738779D01*
X108680499Y-69738777D01*
X108671537Y-69693718D01*
X108671536Y-69693717D01*
X108637388Y-69642611D01*
X108586282Y-69608463D01*
X108586281Y-69608462D01*
X108541222Y-69599500D01*
X108541218Y-69599500D01*
X108258782Y-69599500D01*
X108258777Y-69599500D01*
X108213718Y-69608462D01*
X108213717Y-69608463D01*
X108162611Y-69642611D01*
X108128463Y-69693717D01*
X108128462Y-69693718D01*
X108119500Y-69738777D01*
X108119500Y-70021222D01*
X108130358Y-70075809D01*
X108130358Y-70124191D01*
X108119500Y-70178777D01*
X108119500Y-70461222D01*
X108126359Y-70495704D01*
X108125823Y-70501693D01*
X108128097Y-70507262D01*
X108122745Y-70536089D01*
X108120132Y-70565295D01*
X108116441Y-70570045D01*
X108115344Y-70575958D01*
X108100000Y-70597125D01*
X108100000Y-70951000D01*
X108080315Y-71018039D01*
X108027511Y-71063794D01*
X107976000Y-71075000D01*
X107849014Y-71075000D01*
X107781975Y-71055315D01*
X107780123Y-71054102D01*
X107774499Y-71050344D01*
X107753231Y-71036133D01*
X107753229Y-71036132D01*
X107753226Y-71036131D01*
X107694752Y-71024500D01*
X107694748Y-71024500D01*
X107549500Y-71024500D01*
X107482461Y-71004815D01*
X107436706Y-70952011D01*
X107425500Y-70900500D01*
X107425500Y-70855249D01*
X107422304Y-70839183D01*
X107428531Y-70769592D01*
X107456239Y-70727310D01*
X107463572Y-70719976D01*
X107463574Y-70719976D01*
X107696133Y-70487414D01*
X107696136Y-70487413D01*
X107713573Y-70469976D01*
X107713574Y-70469976D01*
X107769976Y-70413574D01*
X107800500Y-70339882D01*
X107800500Y-68960088D01*
X107820185Y-68893049D01*
X107836815Y-68872411D01*
X108396132Y-68313093D01*
X108396135Y-68313092D01*
X108413573Y-68295654D01*
X108413574Y-68295654D01*
X108469976Y-68239252D01*
X108500500Y-68165560D01*
X108500500Y-67659411D01*
X108509144Y-67629970D01*
X108515668Y-67599984D01*
X108519422Y-67594968D01*
X108520185Y-67592372D01*
X108536819Y-67571730D01*
X108671730Y-67436819D01*
X108733053Y-67403334D01*
X108759411Y-67400500D01*
X110075500Y-67400500D01*
X110142539Y-67420185D01*
G37*
%TD.AperFunction*%
%TD*%
%TA.AperFunction,Conductor*%
%TO.N,/Gate_{W}*%
G36*
X105549971Y-71305463D02*
G01*
X105554998Y-71309946D01*
X105669975Y-71497182D01*
X105671705Y-71503304D01*
X105671705Y-71682764D01*
X105668278Y-71691037D01*
X105660005Y-71694464D01*
X105655686Y-71693638D01*
X105304116Y-71554011D01*
X105297692Y-71547772D01*
X105297273Y-71539630D01*
X105310610Y-71497182D01*
X105347269Y-71380508D01*
X105353017Y-71373644D01*
X105354417Y-71373027D01*
X105541025Y-71305074D01*
X105549971Y-71305463D01*
G37*
%TD.AperFunction*%
%TD*%
%TA.AperFunction,Conductor*%
%TO.N,/Base_{R}*%
G36*
X105755307Y-64057799D02*
G01*
X106102828Y-64220513D01*
X106108868Y-64227125D01*
X106108907Y-64234983D01*
X106052939Y-64394472D01*
X106046966Y-64401144D01*
X106045412Y-64401758D01*
X105859348Y-64460330D01*
X105850428Y-64459546D01*
X105845465Y-64454587D01*
X105739978Y-64252543D01*
X105738650Y-64247128D01*
X105738650Y-64068396D01*
X105742077Y-64060123D01*
X105750350Y-64056696D01*
X105755307Y-64057799D01*
G37*
%TD.AperFunction*%
%TD*%
%TA.AperFunction,Conductor*%
%TO.N,/Gate_{G}*%
G36*
X102602542Y-67276211D02*
G01*
X102610703Y-67279637D01*
X102736147Y-67405081D01*
X102739574Y-67413354D01*
X102736147Y-67421627D01*
X102732180Y-67424233D01*
X102543148Y-67499056D01*
X102534194Y-67498914D01*
X102531940Y-67497624D01*
X102407935Y-67407021D01*
X102403276Y-67399373D01*
X102404813Y-67391540D01*
X102471288Y-67281164D01*
X102472389Y-67280351D01*
X102472890Y-67279077D01*
X102475773Y-67277852D01*
X102478492Y-67275845D01*
X102481100Y-67275502D01*
X102481211Y-67275500D01*
X102494748Y-67275500D01*
X102496096Y-67275231D01*
X102497140Y-67275213D01*
X102497200Y-67275236D01*
X102497448Y-67275213D01*
X102602542Y-67276211D01*
G37*
%TD.AperFunction*%
%TD*%
%TA.AperFunction,Conductor*%
%TO.N,/OUTW*%
G36*
X111605055Y-64102270D02*
G01*
X111841148Y-64208300D01*
X112077234Y-64314327D01*
X112083377Y-64320842D01*
X112083114Y-64329793D01*
X112077234Y-64335673D01*
X111605062Y-64547726D01*
X111596111Y-64547989D01*
X111595037Y-64547518D01*
X111356468Y-64428234D01*
X111350600Y-64421469D01*
X111350000Y-64417769D01*
X111350000Y-64232231D01*
X111353427Y-64223958D01*
X111356468Y-64221766D01*
X111595038Y-64102480D01*
X111603969Y-64101846D01*
X111605055Y-64102270D01*
G37*
%TD.AperFunction*%
%TD*%
%TA.AperFunction,Conductor*%
%TO.N,/Gate_{G}*%
G36*
X106349971Y-66905463D02*
G01*
X106354998Y-66909946D01*
X106469975Y-67097182D01*
X106471705Y-67103304D01*
X106471705Y-67282764D01*
X106468278Y-67291037D01*
X106460005Y-67294464D01*
X106455686Y-67293638D01*
X106104116Y-67154011D01*
X106097692Y-67147772D01*
X106097273Y-67139630D01*
X106110610Y-67097182D01*
X106147269Y-66980508D01*
X106153017Y-66973644D01*
X106154417Y-66973027D01*
X106341025Y-66905074D01*
X106349971Y-66905463D01*
G37*
%TD.AperFunction*%
%TD*%
%TA.AperFunction,Conductor*%
%TO.N,/OUTR*%
G36*
X109005055Y-64102270D02*
G01*
X109241148Y-64208300D01*
X109477234Y-64314327D01*
X109483377Y-64320842D01*
X109483114Y-64329793D01*
X109477234Y-64335673D01*
X109005062Y-64547726D01*
X108996111Y-64547989D01*
X108995037Y-64547518D01*
X108756468Y-64428234D01*
X108750600Y-64421469D01*
X108750000Y-64417769D01*
X108750000Y-64232231D01*
X108753427Y-64223958D01*
X108756468Y-64221766D01*
X108995038Y-64102480D01*
X109003969Y-64101846D01*
X109005055Y-64102270D01*
G37*
%TD.AperFunction*%
%TD*%
%TA.AperFunction,Conductor*%
%TO.N,/Gate_{G}*%
G36*
X105984388Y-66806939D02*
G01*
X105987568Y-66809229D01*
X106049740Y-66872291D01*
X106142901Y-66966786D01*
X106146269Y-66975083D01*
X106142901Y-66983214D01*
X105987572Y-67140767D01*
X105979323Y-67144253D01*
X105975451Y-67143622D01*
X105782911Y-67077708D01*
X105776193Y-67071787D01*
X105775000Y-67066639D01*
X105775000Y-66883360D01*
X105778427Y-66875087D01*
X105782908Y-66872292D01*
X105975453Y-66806377D01*
X105984388Y-66806939D01*
G37*
%TD.AperFunction*%
%TD*%
%TA.AperFunction,Conductor*%
%TO.N,/D_{OUT}*%
G36*
X108300584Y-72553427D02*
G01*
X108303051Y-72557058D01*
X108410640Y-72805952D01*
X108410777Y-72814905D01*
X108409312Y-72817544D01*
X108210217Y-73087162D01*
X108202546Y-73091782D01*
X108193855Y-73089624D01*
X108190884Y-73086413D01*
X108016956Y-72808096D01*
X108015479Y-72799266D01*
X108016589Y-72796329D01*
X108146681Y-72556127D01*
X108153634Y-72550485D01*
X108156969Y-72550000D01*
X108292311Y-72550000D01*
X108300584Y-72553427D01*
G37*
%TD.AperFunction*%
%TD*%
%TA.AperFunction,Conductor*%
%TO.N,/SRH*%
G36*
X104501582Y-72553427D02*
G01*
X104503393Y-72555767D01*
X104646255Y-72798607D01*
X104647497Y-72807476D01*
X104645866Y-72811090D01*
X104459695Y-73086650D01*
X104452224Y-73091587D01*
X104443450Y-73089795D01*
X104440305Y-73086650D01*
X104254133Y-72811090D01*
X104252341Y-72802316D01*
X104253743Y-72798609D01*
X104396607Y-72555766D01*
X104403755Y-72550374D01*
X104406691Y-72550000D01*
X104493309Y-72550000D01*
X104501582Y-72553427D01*
G37*
%TD.AperFunction*%
%TD*%
%TA.AperFunction,Conductor*%
%TO.N,/Gate_{B}*%
G36*
X105584388Y-69006939D02*
G01*
X105587568Y-69009229D01*
X105649740Y-69072291D01*
X105742901Y-69166786D01*
X105746269Y-69175083D01*
X105742901Y-69183214D01*
X105587572Y-69340767D01*
X105579323Y-69344253D01*
X105575451Y-69343622D01*
X105382911Y-69277708D01*
X105376193Y-69271787D01*
X105375000Y-69266639D01*
X105375000Y-69083360D01*
X105378427Y-69075087D01*
X105382908Y-69072292D01*
X105575453Y-69006377D01*
X105584388Y-69006939D01*
G37*
%TD.AperFunction*%
%TD*%
%TA.AperFunction,Conductor*%
%TO.N,+12V*%
G36*
X113835648Y-69089352D02*
G01*
X113850000Y-69124000D01*
X113850000Y-69776000D01*
X113835648Y-69810648D01*
X113801000Y-69825000D01*
X113004990Y-69825000D01*
X112995109Y-69823993D01*
X112189119Y-69658053D01*
X112158077Y-69637009D01*
X112150000Y-69610060D01*
X112150000Y-69289939D01*
X112164352Y-69255291D01*
X112189119Y-69241946D01*
X112995109Y-69076007D01*
X113004990Y-69075000D01*
X113801000Y-69075000D01*
X113835648Y-69089352D01*
G37*
%TD.AperFunction*%
%TD*%
%TA.AperFunction,Conductor*%
%TO.N,/Base_{B}*%
G36*
X104555307Y-68457799D02*
G01*
X104902828Y-68620513D01*
X104908868Y-68627125D01*
X104908907Y-68634983D01*
X104852939Y-68794472D01*
X104846966Y-68801144D01*
X104845412Y-68801758D01*
X104659348Y-68860330D01*
X104650428Y-68859546D01*
X104645465Y-68854587D01*
X104539978Y-68652543D01*
X104538650Y-68647128D01*
X104538650Y-68468396D01*
X104542077Y-68460123D01*
X104550350Y-68456696D01*
X104555307Y-68457799D01*
G37*
%TD.AperFunction*%
%TD*%
%TA.AperFunction,Conductor*%
%TO.N,/Green0*%
G36*
X102581240Y-61781212D02*
G01*
X102792672Y-61991709D01*
X102796117Y-61999974D01*
X102792708Y-62008255D01*
X102792672Y-62008291D01*
X102581240Y-62218787D01*
X102572959Y-62222196D01*
X102567303Y-62220724D01*
X102563816Y-62218787D01*
X102514481Y-62191378D01*
X102356018Y-62103343D01*
X102350450Y-62096329D01*
X102350000Y-62093115D01*
X102350000Y-61906884D01*
X102353427Y-61898611D01*
X102356014Y-61896658D01*
X102567305Y-61779274D01*
X102576199Y-61778253D01*
X102581240Y-61781212D01*
G37*
%TD.AperFunction*%
%TD*%
%TA.AperFunction,Conductor*%
%TO.N,/+V_{OUT_{SW}}*%
G36*
X104695722Y-64721674D02*
G01*
X104744023Y-64769975D01*
X104744026Y-64769977D01*
X104767430Y-64779671D01*
X104817716Y-64800500D01*
X105506338Y-64800500D01*
X105558663Y-64822174D01*
X105620842Y-64884352D01*
X105620845Y-64884356D01*
X105620846Y-64884356D01*
X105625064Y-64888574D01*
X105681466Y-64944976D01*
X105726366Y-64963574D01*
X105755157Y-64975500D01*
X105755158Y-64975500D01*
X106530522Y-64975500D01*
X106554489Y-64979489D01*
X106638165Y-65008134D01*
X106741281Y-65043435D01*
X106752631Y-65046281D01*
X106758465Y-65047744D01*
X106758468Y-65047744D01*
X106758482Y-65047748D01*
X106762354Y-65048379D01*
X106762356Y-65048378D01*
X106762359Y-65048379D01*
X106765402Y-65048444D01*
X106770650Y-65048208D01*
X106776832Y-65048390D01*
X106787434Y-65050500D01*
X106848191Y-65050500D01*
X106849274Y-65050532D01*
X106850770Y-65051204D01*
X106874399Y-65055724D01*
X106980914Y-65098027D01*
X107005925Y-65114475D01*
X107061426Y-65169976D01*
X107135118Y-65200500D01*
X107433148Y-65200500D01*
X107485474Y-65222174D01*
X107505726Y-65260063D01*
X107510553Y-65284329D01*
X107552657Y-65347343D01*
X107615671Y-65389447D01*
X107671238Y-65400500D01*
X107726000Y-65400500D01*
X107778326Y-65422174D01*
X107800000Y-65474500D01*
X107800000Y-65685798D01*
X107778326Y-65738124D01*
X107614108Y-65902341D01*
X107561782Y-65924015D01*
X107509456Y-65902341D01*
X107493234Y-65871990D01*
X107492236Y-65872404D01*
X107489447Y-65865672D01*
X107489447Y-65865671D01*
X107447343Y-65802657D01*
X107384329Y-65760553D01*
X107328762Y-65749500D01*
X106871238Y-65749500D01*
X106834193Y-65756868D01*
X106815670Y-65760553D01*
X106752657Y-65802656D01*
X106752656Y-65802657D01*
X106710553Y-65865670D01*
X106705026Y-65893454D01*
X106699500Y-65921238D01*
X106699500Y-66378762D01*
X106710553Y-66434329D01*
X106752657Y-66497343D01*
X106815671Y-66539447D01*
X106871238Y-66550500D01*
X106871240Y-66550500D01*
X107328760Y-66550500D01*
X107328762Y-66550500D01*
X107384329Y-66539447D01*
X107447343Y-66497343D01*
X107489447Y-66434329D01*
X107494274Y-66410063D01*
X107525740Y-66362971D01*
X107566852Y-66350500D01*
X107689881Y-66350500D01*
X107689882Y-66350500D01*
X107697180Y-66347476D01*
X107753817Y-66347475D01*
X107793866Y-66387523D01*
X107799500Y-66415843D01*
X107799500Y-67886298D01*
X107777826Y-67938624D01*
X107588624Y-68127826D01*
X107536298Y-68149500D01*
X107166852Y-68149500D01*
X107114526Y-68127826D01*
X107094274Y-68089937D01*
X107092620Y-68081624D01*
X107089447Y-68065671D01*
X107047343Y-68002657D01*
X107047099Y-68002494D01*
X106984329Y-67960553D01*
X106928762Y-67949500D01*
X106471238Y-67949500D01*
X106434193Y-67956868D01*
X106415670Y-67960553D01*
X106352657Y-68002656D01*
X106352656Y-68002657D01*
X106310553Y-68065670D01*
X106305726Y-68089937D01*
X106299500Y-68121238D01*
X106299500Y-68578762D01*
X106301749Y-68590067D01*
X106310553Y-68634329D01*
X106323233Y-68653307D01*
X106352657Y-68697343D01*
X106415671Y-68739447D01*
X106471238Y-68750500D01*
X106471240Y-68750500D01*
X106928760Y-68750500D01*
X106928762Y-68750500D01*
X106984329Y-68739447D01*
X107047343Y-68697343D01*
X107089447Y-68634329D01*
X107094274Y-68610063D01*
X107125740Y-68562971D01*
X107166852Y-68550500D01*
X107326000Y-68550500D01*
X107378326Y-68572174D01*
X107400000Y-68624500D01*
X107400000Y-68775997D01*
X107399500Y-68781079D01*
X107399500Y-70186298D01*
X107377826Y-70238624D01*
X107288624Y-70327826D01*
X107236298Y-70349500D01*
X106766852Y-70349500D01*
X106714526Y-70327826D01*
X106694274Y-70289937D01*
X106693402Y-70285554D01*
X106689447Y-70265671D01*
X106647343Y-70202657D01*
X106634325Y-70193959D01*
X106584329Y-70160553D01*
X106528762Y-70149500D01*
X106071238Y-70149500D01*
X106034193Y-70156868D01*
X106015670Y-70160553D01*
X105952657Y-70202656D01*
X105952656Y-70202657D01*
X105910553Y-70265670D01*
X105899500Y-70321239D01*
X105899500Y-70778760D01*
X105910553Y-70834329D01*
X105950138Y-70893574D01*
X105952657Y-70897343D01*
X106015671Y-70939447D01*
X106071238Y-70950500D01*
X106071240Y-70950500D01*
X106528760Y-70950500D01*
X106528762Y-70950500D01*
X106584329Y-70939447D01*
X106647343Y-70897343D01*
X106689447Y-70834329D01*
X106694274Y-70810063D01*
X106725740Y-70762971D01*
X106766852Y-70750500D01*
X107243401Y-70750500D01*
X107295727Y-70772174D01*
X107317295Y-70820535D01*
X107317578Y-70825818D01*
X107317224Y-70829780D01*
X107318831Y-70859767D01*
X107319610Y-70863684D01*
X107319894Y-70868969D01*
X107319671Y-70869600D01*
X107320000Y-70872934D01*
X107320000Y-70900500D01*
X107322411Y-70922928D01*
X107322809Y-70924757D01*
X107324500Y-70940486D01*
X107324500Y-70944746D01*
X107336133Y-71003232D01*
X107356617Y-71033888D01*
X107367666Y-71089436D01*
X107356617Y-71116112D01*
X107336133Y-71146767D01*
X107334928Y-71152826D01*
X107326977Y-71192802D01*
X107324500Y-71205253D01*
X107324500Y-71294746D01*
X107336133Y-71353233D01*
X107384496Y-71425611D01*
X107382223Y-71427129D01*
X107399796Y-71469552D01*
X107378122Y-71521878D01*
X106772174Y-72127826D01*
X106719848Y-72149500D01*
X104570064Y-72149500D01*
X104536545Y-72163384D01*
X104536543Y-72163385D01*
X104530950Y-72165702D01*
X104514748Y-72172413D01*
X104502810Y-72184350D01*
X104495571Y-72188850D01*
X104475398Y-72192175D01*
X104456509Y-72200000D01*
X102274000Y-72200000D01*
X102221674Y-72178326D01*
X102200000Y-72126000D01*
X102200000Y-71674685D01*
X102200500Y-71669611D01*
X102200500Y-71379671D01*
X102222174Y-71327345D01*
X102252345Y-71297174D01*
X102304671Y-71275500D01*
X103018896Y-71275500D01*
X103071222Y-71297174D01*
X103144023Y-71369975D01*
X103144026Y-71369977D01*
X103147073Y-71371239D01*
X103217716Y-71400500D01*
X103906338Y-71400500D01*
X103958663Y-71422174D01*
X104020842Y-71484352D01*
X104020845Y-71484356D01*
X104020846Y-71484356D01*
X104081466Y-71544976D01*
X104131730Y-71565796D01*
X104131729Y-71565796D01*
X104146319Y-71571839D01*
X104155157Y-71575500D01*
X104155158Y-71575500D01*
X104930522Y-71575500D01*
X104954489Y-71579489D01*
X105012943Y-71599500D01*
X105141281Y-71643435D01*
X105152631Y-71646281D01*
X105158465Y-71647744D01*
X105158468Y-71647744D01*
X105158482Y-71647748D01*
X105162354Y-71648379D01*
X105162356Y-71648378D01*
X105162359Y-71648379D01*
X105165402Y-71648444D01*
X105170650Y-71648208D01*
X105176832Y-71648390D01*
X105187434Y-71650500D01*
X105248191Y-71650500D01*
X105249274Y-71650532D01*
X105250770Y-71651204D01*
X105274399Y-71655724D01*
X105380914Y-71698027D01*
X105405925Y-71714475D01*
X105461426Y-71769976D01*
X105535118Y-71800500D01*
X105614882Y-71800500D01*
X105833148Y-71800500D01*
X105885474Y-71822174D01*
X105905726Y-71860063D01*
X105910553Y-71884329D01*
X105930093Y-71913574D01*
X105952657Y-71947343D01*
X106015671Y-71989447D01*
X106071238Y-72000500D01*
X106071240Y-72000500D01*
X106528760Y-72000500D01*
X106528762Y-72000500D01*
X106584329Y-71989447D01*
X106647343Y-71947343D01*
X106689447Y-71884329D01*
X106700500Y-71828762D01*
X106700500Y-71371238D01*
X106689447Y-71315671D01*
X106647343Y-71252657D01*
X106632815Y-71242950D01*
X106584329Y-71210553D01*
X106528762Y-71199500D01*
X106071238Y-71199500D01*
X106042321Y-71205252D01*
X106015670Y-71210553D01*
X105952657Y-71252656D01*
X105952656Y-71252657D01*
X105910553Y-71315670D01*
X105905726Y-71339937D01*
X105893734Y-71357883D01*
X105885474Y-71377826D01*
X105878471Y-71380726D01*
X105874260Y-71387029D01*
X105833148Y-71399500D01*
X105775191Y-71399500D01*
X105722865Y-71377826D01*
X105712131Y-71364223D01*
X105705382Y-71353233D01*
X105681029Y-71313574D01*
X105661440Y-71281673D01*
X105650500Y-71242950D01*
X105650500Y-71237434D01*
X105645153Y-71210553D01*
X105641622Y-71192803D01*
X105607807Y-71142193D01*
X105557197Y-71108378D01*
X105557195Y-71108377D01*
X105517593Y-71100500D01*
X105512566Y-71099500D01*
X105187434Y-71099500D01*
X105176318Y-71101711D01*
X105171737Y-71102473D01*
X105141283Y-71106564D01*
X105141281Y-71106564D01*
X104954487Y-71170511D01*
X104930520Y-71174500D01*
X104824500Y-71174500D01*
X104772174Y-71152826D01*
X104750500Y-71100500D01*
X104750500Y-70862434D01*
X104742165Y-70820535D01*
X104741622Y-70817803D01*
X104707807Y-70767193D01*
X104697324Y-70760189D01*
X104657197Y-70733378D01*
X104657195Y-70733377D01*
X104623647Y-70726704D01*
X104612566Y-70724500D01*
X104612565Y-70724500D01*
X104563033Y-70724500D01*
X104531655Y-70717518D01*
X104391878Y-70652073D01*
X104370930Y-70637380D01*
X104313577Y-70580026D01*
X104313572Y-70580022D01*
X104239882Y-70549500D01*
X103957564Y-70549500D01*
X103905238Y-70527826D01*
X103894841Y-70512265D01*
X103894367Y-70512583D01*
X103869335Y-70475122D01*
X103851528Y-70448472D01*
X103832188Y-70435549D01*
X103787417Y-70405633D01*
X103788855Y-70403480D01*
X103756129Y-70370743D01*
X103750500Y-70342435D01*
X103750500Y-70185118D01*
X103750499Y-70185116D01*
X103719977Y-70111428D01*
X103719975Y-70111425D01*
X103487575Y-69879025D01*
X103487571Y-69879022D01*
X103413882Y-69848500D01*
X102438701Y-69848500D01*
X102386375Y-69826826D01*
X102364701Y-69774500D01*
X102386375Y-69722175D01*
X102503162Y-69605386D01*
X102503166Y-69605383D01*
X102513573Y-69594976D01*
X102513574Y-69594976D01*
X102569976Y-69538574D01*
X102600500Y-69464882D01*
X102600500Y-69179671D01*
X102622174Y-69127345D01*
X102652345Y-69097174D01*
X102704671Y-69075500D01*
X103418896Y-69075500D01*
X103471222Y-69097174D01*
X103544023Y-69169975D01*
X103544026Y-69169977D01*
X103547073Y-69171239D01*
X103617716Y-69200500D01*
X104306338Y-69200500D01*
X104358663Y-69222174D01*
X104420842Y-69284352D01*
X104420845Y-69284356D01*
X104420846Y-69284356D01*
X104425064Y-69288574D01*
X104481466Y-69344976D01*
X104526366Y-69363574D01*
X104555157Y-69375500D01*
X104555158Y-69375500D01*
X105330522Y-69375500D01*
X105354489Y-69379489D01*
X105438165Y-69408134D01*
X105541281Y-69443435D01*
X105552631Y-69446281D01*
X105558465Y-69447744D01*
X105558468Y-69447744D01*
X105558482Y-69447748D01*
X105562354Y-69448379D01*
X105562356Y-69448378D01*
X105562359Y-69448379D01*
X105565402Y-69448444D01*
X105570650Y-69448208D01*
X105576832Y-69448390D01*
X105587434Y-69450500D01*
X105648191Y-69450500D01*
X105649274Y-69450532D01*
X105650770Y-69451204D01*
X105674399Y-69455724D01*
X105780914Y-69498027D01*
X105805925Y-69514475D01*
X105861426Y-69569976D01*
X105935118Y-69600500D01*
X106233148Y-69600500D01*
X106285474Y-69622174D01*
X106305726Y-69660063D01*
X106310553Y-69684329D01*
X106335840Y-69722175D01*
X106352657Y-69747343D01*
X106415671Y-69789447D01*
X106471238Y-69800500D01*
X106471240Y-69800500D01*
X106928760Y-69800500D01*
X106928762Y-69800500D01*
X106984329Y-69789447D01*
X107047343Y-69747343D01*
X107089447Y-69684329D01*
X107100500Y-69628762D01*
X107100500Y-69171238D01*
X107089447Y-69115671D01*
X107047343Y-69052657D01*
X107032815Y-69042950D01*
X106984329Y-69010553D01*
X106928762Y-68999500D01*
X106471238Y-68999500D01*
X106434193Y-69006868D01*
X106415670Y-69010553D01*
X106352657Y-69052656D01*
X106352656Y-69052657D01*
X106310553Y-69115670D01*
X106305726Y-69139937D01*
X106293734Y-69157883D01*
X106285474Y-69177826D01*
X106278471Y-69180726D01*
X106274260Y-69187029D01*
X106233148Y-69199500D01*
X106175191Y-69199500D01*
X106122865Y-69177826D01*
X106112131Y-69164223D01*
X106107277Y-69156319D01*
X106081029Y-69113574D01*
X106061440Y-69081673D01*
X106050500Y-69042950D01*
X106050500Y-69037434D01*
X106041622Y-68992804D01*
X106041621Y-68992802D01*
X106028042Y-68972479D01*
X106007807Y-68942193D01*
X105957197Y-68908378D01*
X105957195Y-68908377D01*
X105917593Y-68900500D01*
X105912566Y-68899500D01*
X105587434Y-68899500D01*
X105576318Y-68901711D01*
X105571737Y-68902473D01*
X105541283Y-68906564D01*
X105541281Y-68906564D01*
X105354487Y-68970511D01*
X105330520Y-68974500D01*
X105224500Y-68974500D01*
X105172174Y-68952826D01*
X105150500Y-68900500D01*
X105150500Y-68662434D01*
X105141622Y-68617804D01*
X105141621Y-68617802D01*
X105136450Y-68610063D01*
X105107807Y-68567193D01*
X105086066Y-68552667D01*
X105057197Y-68533378D01*
X105057195Y-68533377D01*
X105023647Y-68526704D01*
X105012566Y-68524500D01*
X105012565Y-68524500D01*
X104963033Y-68524500D01*
X104931655Y-68517518D01*
X104791878Y-68452073D01*
X104770930Y-68437380D01*
X104713577Y-68380026D01*
X104713572Y-68380022D01*
X104639882Y-68349500D01*
X104357564Y-68349500D01*
X104305238Y-68327826D01*
X104294841Y-68312265D01*
X104294367Y-68312583D01*
X104271310Y-68278077D01*
X104251528Y-68248472D01*
X104232188Y-68235549D01*
X104187417Y-68205633D01*
X104188855Y-68203480D01*
X104156129Y-68170743D01*
X104150500Y-68142435D01*
X104150500Y-67985118D01*
X104150499Y-67985116D01*
X104119977Y-67911428D01*
X104119975Y-67911425D01*
X103887575Y-67679025D01*
X103887571Y-67679022D01*
X103813882Y-67648500D01*
X102838701Y-67648500D01*
X102786375Y-67626826D01*
X102764701Y-67574500D01*
X102786375Y-67522175D01*
X102903162Y-67405386D01*
X102903166Y-67405383D01*
X102913573Y-67394976D01*
X102913574Y-67394976D01*
X102969976Y-67338574D01*
X103000500Y-67264882D01*
X103000500Y-66979671D01*
X103022174Y-66927345D01*
X103052345Y-66897174D01*
X103104671Y-66875500D01*
X103818896Y-66875500D01*
X103871222Y-66897174D01*
X103944023Y-66969975D01*
X103944026Y-66969977D01*
X103947073Y-66971239D01*
X104017716Y-67000500D01*
X104097480Y-67000500D01*
X104706338Y-67000500D01*
X104758663Y-67022174D01*
X104820842Y-67084352D01*
X104820845Y-67084356D01*
X104820846Y-67084356D01*
X104825064Y-67088574D01*
X104881466Y-67144976D01*
X104926366Y-67163574D01*
X104955157Y-67175500D01*
X104955158Y-67175500D01*
X105730522Y-67175500D01*
X105754489Y-67179489D01*
X105838165Y-67208134D01*
X105941281Y-67243435D01*
X105952631Y-67246281D01*
X105958465Y-67247744D01*
X105958468Y-67247744D01*
X105958482Y-67247748D01*
X105962354Y-67248379D01*
X105962356Y-67248378D01*
X105962359Y-67248379D01*
X105965402Y-67248444D01*
X105970650Y-67248208D01*
X105976832Y-67248390D01*
X105987434Y-67250500D01*
X106048191Y-67250500D01*
X106049274Y-67250532D01*
X106050770Y-67251204D01*
X106074399Y-67255724D01*
X106180914Y-67298027D01*
X106205925Y-67314475D01*
X106261426Y-67369976D01*
X106335118Y-67400500D01*
X106414882Y-67400500D01*
X106633148Y-67400500D01*
X106685474Y-67422174D01*
X106705726Y-67460063D01*
X106710553Y-67484329D01*
X106735840Y-67522175D01*
X106752657Y-67547343D01*
X106815671Y-67589447D01*
X106871238Y-67600500D01*
X106871240Y-67600500D01*
X107328760Y-67600500D01*
X107328762Y-67600500D01*
X107384329Y-67589447D01*
X107447343Y-67547343D01*
X107489447Y-67484329D01*
X107500500Y-67428762D01*
X107500500Y-66971238D01*
X107489447Y-66915671D01*
X107447343Y-66852657D01*
X107432815Y-66842950D01*
X107384329Y-66810553D01*
X107328762Y-66799500D01*
X106871238Y-66799500D01*
X106834193Y-66806868D01*
X106815670Y-66810553D01*
X106752657Y-66852656D01*
X106752656Y-66852657D01*
X106710553Y-66915670D01*
X106705726Y-66939937D01*
X106693734Y-66957883D01*
X106685474Y-66977826D01*
X106678471Y-66980726D01*
X106674260Y-66987029D01*
X106633148Y-66999500D01*
X106575191Y-66999500D01*
X106522865Y-66977826D01*
X106512131Y-66964223D01*
X106461440Y-66881673D01*
X106450500Y-66842950D01*
X106450500Y-66837434D01*
X106441622Y-66792804D01*
X106441621Y-66792802D01*
X106428042Y-66772479D01*
X106407807Y-66742193D01*
X106357197Y-66708378D01*
X106357195Y-66708377D01*
X106317593Y-66700500D01*
X106312566Y-66699500D01*
X105987434Y-66699500D01*
X105976318Y-66701711D01*
X105971737Y-66702473D01*
X105941283Y-66706564D01*
X105941281Y-66706564D01*
X105754487Y-66770511D01*
X105730520Y-66774500D01*
X105624500Y-66774500D01*
X105572174Y-66752826D01*
X105550500Y-66700500D01*
X105550500Y-66462434D01*
X105541622Y-66417804D01*
X105541621Y-66417802D01*
X105536450Y-66410063D01*
X105507807Y-66367193D01*
X105457197Y-66333378D01*
X105457195Y-66333377D01*
X105423647Y-66326704D01*
X105412566Y-66324500D01*
X105412565Y-66324500D01*
X105363033Y-66324500D01*
X105331655Y-66317518D01*
X105191878Y-66252073D01*
X105170930Y-66237380D01*
X105113577Y-66180026D01*
X105113572Y-66180022D01*
X105039882Y-66149500D01*
X104757564Y-66149500D01*
X104705238Y-66127826D01*
X104694841Y-66112265D01*
X104694367Y-66112583D01*
X104671310Y-66078077D01*
X104651528Y-66048472D01*
X104632188Y-66035549D01*
X104587417Y-66005633D01*
X104588855Y-66003480D01*
X104556129Y-65970743D01*
X104550500Y-65942435D01*
X104550500Y-65785118D01*
X104550499Y-65785116D01*
X104519977Y-65711428D01*
X104519975Y-65711425D01*
X104287575Y-65479025D01*
X104287571Y-65479022D01*
X104213882Y-65448500D01*
X103874000Y-65448500D01*
X103821674Y-65426826D01*
X103800000Y-65374500D01*
X103800000Y-65074684D01*
X103800500Y-65069610D01*
X103800500Y-64779671D01*
X103822174Y-64727345D01*
X103827845Y-64721674D01*
X103880171Y-64700000D01*
X104643396Y-64700000D01*
X104695722Y-64721674D01*
G37*
%TD.AperFunction*%
%TD*%
%TA.AperFunction,Conductor*%
%TO.N,/Red0*%
G36*
X102564868Y-62325477D02*
G01*
X102565091Y-62325498D01*
X102565101Y-62325500D01*
X102926000Y-62325499D01*
X102984191Y-62344406D01*
X103020155Y-62393906D01*
X103025000Y-62424499D01*
X103025000Y-63288008D01*
X103006093Y-63346199D01*
X102981004Y-63370322D01*
X102962614Y-63382610D01*
X102962609Y-63382615D01*
X102928465Y-63433714D01*
X102928463Y-63433719D01*
X102919500Y-63478773D01*
X102919500Y-63761226D01*
X102928463Y-63806280D01*
X102928465Y-63806285D01*
X102954333Y-63844998D01*
X102970942Y-63903886D01*
X102954333Y-63955002D01*
X102928465Y-63993714D01*
X102928463Y-63993719D01*
X102919500Y-64038773D01*
X102919500Y-64321226D01*
X102928463Y-64366280D01*
X102928465Y-64366285D01*
X102962609Y-64417384D01*
X102962612Y-64417388D01*
X102962615Y-64417390D01*
X102969507Y-64424282D01*
X102966944Y-64426844D01*
X102980593Y-64436761D01*
X102984849Y-64449860D01*
X102993377Y-64460675D01*
X102999500Y-64494952D01*
X102999500Y-64621903D01*
X102982815Y-64676905D01*
X102936134Y-64746766D01*
X102936132Y-64746772D01*
X102924501Y-64805241D01*
X102924500Y-64805253D01*
X102924500Y-64894746D01*
X102924501Y-64894758D01*
X102927817Y-64911426D01*
X102936133Y-64953231D01*
X102936134Y-64953232D01*
X102947337Y-64969999D01*
X102963945Y-65028887D01*
X102947337Y-65080001D01*
X102936134Y-65096767D01*
X102936132Y-65096772D01*
X102924501Y-65155241D01*
X102924500Y-65155253D01*
X102924500Y-65244746D01*
X102924501Y-65244758D01*
X102936132Y-65303227D01*
X102936133Y-65303231D01*
X102936134Y-65303233D01*
X102939606Y-65311614D01*
X102944407Y-65372611D01*
X102912437Y-65424780D01*
X102855909Y-65448195D01*
X102848142Y-65448500D01*
X102531117Y-65448500D01*
X102485335Y-65467464D01*
X102447449Y-65475000D01*
X102299500Y-65475000D01*
X102241309Y-65456093D01*
X102205345Y-65406593D01*
X102200500Y-65376000D01*
X102200500Y-62424058D01*
X102219407Y-62365867D01*
X102229496Y-62354054D01*
X102229554Y-62353996D01*
X102284071Y-62326219D01*
X102299558Y-62325000D01*
X102555161Y-62325000D01*
X102564868Y-62325477D01*
G37*
%TD.AperFunction*%
%TD*%
M02*
